<svg xmlns="http://www.w3.org/2000/svg" xmlns:xlink="http://www.w3.org/1999/xlink" viewBox="0 0 1920.5 950.53"><defs><style>.cls-1{opacity:0.1;fill:url(#Gradient_bez_nazwy_33);}.cls-2{fill:url(#Gradient_bez_nazwy_31);}.cls-3{fill:#76e688;}</style><linearGradient id="Gradient_bez_nazwy_31" x1="0.5" y1="448.26" x2="1920.5" y2="448.26" gradientUnits="userSpaceOnUse"><stop offset="0" stop-color="#7ed56f"/><stop offset="0.99" stop-color="#28b473"/></linearGradient></defs><title>Zasób 3</title><g id="Warstwa_2" data-name="Warstwa 2"><g id="Warstwa_1-2" data-name="Warstwa 1"><path class="cls-1" d="M0,95.11C46.46,57,110.21,33.9,548,78.11c390.55,39.45,411.16,65.07,613,78,490.07,31.42,760-50,759,7-.53,30.15,0,784,0,784-102,0-637,29-991-82-545.45-171-714-85-929-76v-694Z"/><path class="cls-2" d="M.5,41.11C47,3,110.71-20.1,548.5,24.11c390.55,39.45,411.16,65.07,613,78,490.07,31.42,759.5-47.5,759,7-.28,30.15,0,784,0,784-102,0-637,29-991-82-545.45-171-714-85-929-76v-694Z"/></g></g></svg>