<svg xmlns="http://www.w3.org/2000/svg" viewBox="0 0 377.74 413.18"><defs><style>.cls-1{isolation:isolate;}.cls-2{fill:#ff4597;}.cls-3{fill:#40a0fb;}.cls-4{fill:#ffbcdc;}.cls-5{fill:#73b7ff;}.cls-6{fill:#ff67ac;}.cls-11,.cls-7{fill:#aad2ff;}.cls-7{opacity:0.5;mix-blend-mode:multiply;}.cls-8{fill:#fff;}.cls-9{fill:#0088f7;}.cls-10{fill:#ff97ce;}.cls-12{fill:#cae5ff;}.cls-13{fill:#6d32c5;}.cls-14{fill:#9c5def;}.cls-15{fill:#824cd7;}</style></defs><title>5622505</title><g class="cls-1"><g id="OBJECTS"><polygon class="cls-2" points="104.94 143.41 88.32 60.23 92.21 59.29 108.83 142.47 104.94 143.41"/><path class="cls-3" d="M156.26,116.77c-21.69,5.61-23.46,30.11-22.47,42.05,4.85-.57,8.57-1.2,8.9-1.76,1-1.67-2.66-28,15-33.67s24,21.67,26,22.67c.63.31,3.83-.78,7.95-2.49C188.79,132.08,179.65,110.72,156.26,116.77Z" transform="translate(-67.46 -60.96)"/><path class="cls-4" d="M155.31,108.57c-32.64,9.67-34.71,40-33.54,51.32,4-.27,8.34-.65,12-1.07-1-11.94.78-36.44,22.47-42,23.39-6,32.53,15.31,35.38,26.8,3-1.26,6.56-2.85,9.92-4.46C199.73,129.48,190,98.3,155.31,108.57Z" transform="translate(-67.46 -60.96)"/><path class="cls-5" d="M154,97.43c-40.46,12-41.79,50.36-40.12,62.84,2.2-.05,4.94-.18,7.86-.38-1.17-11.34.9-41.65,33.54-51.32,34.68-10.27,44.42,20.91,46.25,30.54,3-1.45,5.88-2.91,8.14-4.16C207.94,124.57,196.77,84.77,154,97.43Z" transform="translate(-67.46 -60.96)"/><path class="cls-6" d="M152.36,89.72C99,104.72,107,159.06,109,160.06a19.11,19.11,0,0,0,4.88.21c-1.67-12.48-.34-50.87,40.12-62.84,42.74-12.66,53.91,27.14,55.67,37.52,2.74-1.52,4.58-2.73,4.66-3.23C214.69,129.72,205.69,74.72,152.36,89.72Z" transform="translate(-67.46 -60.96)"/><path class="cls-7" d="M109,160.06a19.11,19.11,0,0,0,4.88.21c2.2-.05,4.94-.18,7.86-.38,4-.27,8.34-.65,12-1.07,4.85-.57,8.57-1.2,8.9-1.76.72-1.2-1-15.07,4.54-24.92a75.78,75.78,0,0,1-34.7-9.34C104.72,141.11,107.87,159.48,109,160.06Z" transform="translate(-67.46 -60.96)"/><path class="cls-7" d="M199.07,99.14c-5.81,12.34-13.48,23.33-26,28.57,6.41,6.71,9.38,17.72,10.63,18.35.63.31,3.83-.78,7.95-2.49,3-1.26,6.56-2.85,9.92-4.46,3-1.45,5.88-2.91,8.14-4.16,2.74-1.52,4.58-2.73,4.66-3.23C214.55,130.57,211.66,112,199.07,99.14Z" transform="translate(-67.46 -60.96)"/><path d="M111,157.24l1.27.16,1.46.18a17.11,17.11,0,0,0,1.9.16l2.24.11c.8,0,1.64,0,2.51,0s1.77,0,2.69-.08l2.77-.14c3.72-.23,7.44-.56,10.23-.75,1.39-.12,2.56-.13,3.38-.18l1.28,0a.13.13,0,0,1,.12.11.11.11,0,0,1-.11.11s-1.86.13-4.64.36-6.5.59-10.23.86l-2.78.12c-.92.06-1.83,0-2.7,0s-1.73,0-2.53,0l-2.27-.14-1-.06-.89-.14-1.46-.23-1.26-.2a.11.11,0,0,1-.09-.13A.1.1,0,0,1,111,157.24Z" transform="translate(-67.46 -60.96)"/><path d="M185.65,143.62l4.19-1.94,9.26-4.15,4.91-2.29c.78-.37,1.55-.7,2.25-1.07l2-1.06L212.3,131h0a.11.11,0,0,1,.11.19l-4,2.27-2,1.09c-.69.38-1.46.71-2.24,1.1l-4.9,2.34L190,142l-4.24,1.81a.11.11,0,0,1-.15,0A.12.12,0,0,1,185.65,143.62Z" transform="translate(-67.46 -60.96)"/><path class="cls-8" d="M169.22,87.65l1.55.14,1.79.17,1.09.09c.39,0,.79.16,1.21.23l2.72.56.74.16.73.22,1.51.48a28.31,28.31,0,0,1,3.11,1.11l3.14,1.36,3,1.65a27.62,27.62,0,0,1,2.79,1.77,28,28,0,0,1,2.52,1.79l2.14,1.75c.32.28.65.52.94.79l.79.78,1.28,1.26,1.11,1.1a.24.24,0,0,1,0,.33.23.23,0,0,1-.32,0h0l-1.17-1-1.34-1.17a20.91,20.91,0,0,0-1.77-1.47l-2.16-1.66c-.75-.62-1.66-1.1-2.52-1.7a27.86,27.86,0,0,0-2.76-1.7l-2.94-1.6-3.07-1.35a24.75,24.75,0,0,0-3-1.12l-1.47-.5-.71-.24-.71-.17L174.74,89a18.82,18.82,0,0,0-2.26-.43l-1.77-.26-1.54-.23a.24.24,0,0,1,.05-.47Z" transform="translate(-67.46 -60.96)"/><polygon class="cls-2" points="267.88 142.75 278.63 76.23 282.6 76.78 271.85 143.3 267.88 142.75"/><path class="cls-3" d="M315,148.89c4.89,8.66,28.33-8.67,32.33-8.33s16.67,23.33,24,21.33,1.33-32.33,5.33-35.33,26-6.34,27.34-13-30-14-31-15.67,2-30-3.67-32-23.67,25.66-25.67,26.33-31.33-6.33-34,0,16.67,24,17.34,26S310.69,141.22,315,148.89Z" transform="translate(-67.46 -60.96)"/><path class="cls-9" d="M309.79,95.56c2.4,7.73,16.67,21,17.24,22.66.66,2-16.34,23-12,30.67,4.89,8.66,28.33-8.67,32.33-8.33s16.67,23.33,24,21.33,1.33-32.33,5.33-35.33,26-6.34,27.34-13v-.11C371.4,122.74,334.8,118.23,309.79,95.56Z" transform="translate(-67.46 -60.96)"/><path d="M317.91,94.71l4.57,2.44,10,5.44,9.76,5.91,4.41,2.71a.11.11,0,0,1,0,.15.11.11,0,0,1-.15,0h0l-4.48-2.6-9.8-5.8-10-5.54-4.5-2.56a.11.11,0,0,1,.1-.19Z" transform="translate(-67.46 -60.96)"/><path d="M354.26,109.27s.7-2,1.76-5.09,2.47-7.13,3.88-11.2l2-6c.3-1,.63-1.88.89-2.77s.49-1.73.72-2.51c.91-3.1,1.52-5.16,1.52-5.16h0a.11.11,0,0,1,.14-.07.11.11,0,0,1,.08.13l-1.4,5.21c-.22.78-.45,1.62-.7,2.52s-.57,1.81-.86,2.78c-.61,1.93-1.27,4-1.92,6-1.44,4.07-2.85,8.14-4,11.17l-1.9,5a.11.11,0,0,1-.14.07A.12.12,0,0,1,354.26,109.27Z" transform="translate(-67.46 -60.96)"/><path d="M322,141.23l3.53-3.43,7.81-7.5,4.1-4.06c.65-.66,1.3-1.26,1.87-1.89l1.6-1.76,3.34-3.61h0a.11.11,0,0,1,.16,0,.13.13,0,0,1,0,.16l-3.25,3.7-1.59,1.78c-.56.64-1.21,1.25-1.85,1.91l-4.07,4.12-7.88,7.42-3.62,3.33a.12.12,0,0,1-.16,0A.11.11,0,0,1,322,141.23Z" transform="translate(-67.46 -60.96)"/><path d="M390.47,111.45l-5.05.82L374.3,114l-11.06,2-5,.86h0a.11.11,0,0,1-.13-.09.1.1,0,0,1,.09-.12l5-1,11.05-2.11,11.14-1.59,5.07-.68a.11.11,0,0,1,0,.21Z" transform="translate(-67.46 -60.96)"/><path d="M369.92,153.37s-.86-1.75-2.14-4.38l-4.61-9.69c-.78-1.79-1.55-3.59-2.27-5.27-.36-.84-.73-1.64-1-2.43s-.56-1.53-.82-2.22c-1-2.75-1.66-4.59-1.66-4.59a.11.11,0,0,1,.07-.14.12.12,0,0,1,.14.06h0l1.78,4.53.84,2.21c.3.78.69,1.57,1,2.41l2.32,5.24,4.51,9.73,2,4.44a.11.11,0,0,1-.06.14A.11.11,0,0,1,369.92,153.37Z" transform="translate(-67.46 -60.96)"/><path class="cls-8" d="M373.11,99.83s1.13.33,2.79.87c.83.28,1.81.58,2.84,1l3.24,1.16,3.14,1.42c1,.46,1.93.92,2.72,1.29,1.59.77,2.62,1.32,2.62,1.32a.24.24,0,0,1,.1.32.23.23,0,0,1-.29.11h0s-1.1-.4-2.73-1c-.81-.33-1.75-.7-2.76-1.13l-3.13-1.35-3.22-1.21c-1-.38-2-.79-2.78-1.11-1.63-.66-2.69-1.14-2.69-1.14a.24.24,0,0,1-.12-.32A.25.25,0,0,1,373.11,99.83Z" transform="translate(-67.46 -60.96)"/><path class="cls-8" d="M356.52,79.23s.55-.72,1.43-1.75,2.06-2.38,3.29-3.69,2.59-2.51,3.59-3.42,1.7-1.48,1.7-1.48a.23.23,0,0,1,.33.33h0s-.58.69-1.49,1.68-2.13,2.3-3.4,3.57-2.49,2.59-3.46,3.53-1.64,1.54-1.64,1.54a.24.24,0,0,1-.35-.32Z" transform="translate(-67.46 -60.96)"/><path class="cls-6" d="M171.86,180.06c.17-1.64,5-6.67,14-4s10,8.83,7.67,13.66S170.53,193.06,171.86,180.06Z" transform="translate(-67.46 -60.96)"/><path class="cls-10" d="M138.69,191.89s.17-8.17,9.5-11.33,10.17,5,11.84,4.66S156,199.89,138.69,191.89Z" transform="translate(-67.46 -60.96)"/><path class="cls-10" d="M164.19,204.39c1.4.65,21.17-1.17,27.17-1.83s8.67-2.67,6.33-8.67-5.83-11.5-13.33-11.67-8,5.5-9,4.5-1.33-12.16-4-13.66-5.83-1.51-6.33.66S161.69,203.22,164.19,204.39Z" transform="translate(-67.46 -60.96)"/><path class="cls-4" d="M144.36,209.22c-6.09-1.76-16.33-8-8.83-18.66s19.5-.5,21.16-2.5.84-15.5,4.5-16.67,9.84,9.83,11.17,17.83-4.17,14.5-9.67,16.67S150.69,211.05,144.36,209.22Z" transform="translate(-67.46 -60.96)"/><path d="M143.59,201.1l-.42-.88a5.8,5.8,0,0,1-.44-1,10.24,10.24,0,0,1-.42-1.43c0-.27-.08-.55-.13-.84,0-.14,0-.29-.07-.44v-1.42c0-.33.1-.66.15-1a4.15,4.15,0,0,1,.25-1,5.23,5.23,0,0,1,.37-1c.17-.32.32-.65.52-1l.66-.88a7.74,7.74,0,0,1,1.7-1.38,4.25,4.25,0,0,1,.46-.27l.49-.2a4.64,4.64,0,0,1,1-.34l1-.2,1,0h.46l.45.06.84.12a12.7,12.7,0,0,1,1.42.43,5.61,5.61,0,0,1,1,.46l.89.44a.13.13,0,0,1,.05.15.11.11,0,0,1-.15.05h0l-.89-.4a4.89,4.89,0,0,0-1-.41c-.41-.1-.87-.28-1.38-.37l-.81-.11-.43,0-.44,0-.92,0-.93.21a4,4,0,0,0-.93.33l-.47.19a5.08,5.08,0,0,0-.43.27,7.24,7.24,0,0,0-1.57,1.31l-.63.82c-.19.29-.33.6-.5.9a5.4,5.4,0,0,0-.37.94,4.12,4.12,0,0,0-.25,1c0,.32-.12.63-.16,1s0,.62,0,.92v.44l.06.43c0,.28.07.55.11.81.08.52.26,1,.36,1.38a5,5,0,0,0,.39,1.05l.38.9a.1.1,0,0,1,0,.14A.11.11,0,0,1,143.59,201.1Z" transform="translate(-67.46 -60.96)"/><path d="M164.94,201.33s.12-.2.35-.55.58-.83.89-1.46l.51-1a7.32,7.32,0,0,0,.47-1.17,8.36,8.36,0,0,0,.43-1.28q.16-.66.33-1.35c.08-.46.15-.92.22-1.37a10.52,10.52,0,0,0,.11-1.35,10.7,10.7,0,0,0,0-1.26c0-.4,0-.78-.06-1.13,0-.71-.16-1.28-.2-1.69s-.09-.64-.09-.64h0a.11.11,0,0,1,.09-.13.11.11,0,0,1,.12.09l.14.64a13.91,13.91,0,0,1,.29,1.7c0,.36.06.75.09,1.16a9.25,9.25,0,0,1,0,1.29,8.11,8.11,0,0,1-.08,1.38c-.06.47-.12.94-.19,1.42s-.25.92-.37,1.38a9.08,9.08,0,0,1-.46,1.3,9.93,9.93,0,0,1-.52,1.19l-.55,1a4.47,4.47,0,0,1-.53.82l-.45.6-.38.52a.11.11,0,0,1-.16,0A.1.1,0,0,1,164.94,201.33Z" transform="translate(-67.46 -60.96)"/><path d="M177.35,189l.57-.09a4.79,4.79,0,0,1,.65-.08,7.71,7.71,0,0,1,.87-.05,9.67,9.67,0,0,1,2.17.23,9,9,0,0,1,2.33,1,8.52,8.52,0,0,1,1,.77,7.91,7.91,0,0,1,.86.88,10.14,10.14,0,0,1,1.2,1.82,7.17,7.17,0,0,1,.35.79c.11.24.18.45.24.62l.19.55a.11.11,0,0,1-.07.14.11.11,0,0,1-.14-.06h0l-.22-.52a6,6,0,0,0-.28-.59c-.12-.22-.23-.48-.39-.75a10.25,10.25,0,0,0-1.21-1.71,7.16,7.16,0,0,0-.83-.82,8.7,8.7,0,0,0-1-.72,8.37,8.37,0,0,0-1.08-.54,6.83,6.83,0,0,0-1.1-.38,9.69,9.69,0,0,0-2.07-.29,8,8,0,0,0-.84,0,4.23,4.23,0,0,0-.65,0l-.58,0a.13.13,0,0,1-.12-.11A.11.11,0,0,1,177.35,189Z" transform="translate(-67.46 -60.96)"/><path class="cls-8" d="M149,181.49l.31-.12a5.36,5.36,0,0,1,.85-.25,5.9,5.9,0,0,1,1.32-.13,3.76,3.76,0,0,1,.74.06l.76.15.73.27a4.48,4.48,0,0,1,.65.35,6.13,6.13,0,0,1,1,.79,5.4,5.4,0,0,1,.61.68l.21.27a.24.24,0,0,1,0,.33.23.23,0,0,1-.28,0l0,0-.26-.18c-.17-.12-.39-.31-.69-.49l-.46-.29a4.58,4.58,0,0,0-.54-.28,5.26,5.26,0,0,0-.59-.26l-.62-.22L152,182a4.78,4.78,0,0,0-.63-.09c-.21,0-.42-.06-.6-.05h-.54a8.23,8.23,0,0,0-.86.06h-.33a.24.24,0,0,1-.26-.22A.25.25,0,0,1,149,181.49Z" transform="translate(-67.46 -60.96)"/><path class="cls-8" d="M161.84,173.21s.39.21.94.57l.43.3a2.8,2.8,0,0,1,.46.4c.31.3.62.63.94,1s.51.74.74,1.1a3.12,3.12,0,0,1,.3.53l.21.5c.25.62.38,1,.38,1a.23.23,0,0,1-.16.29.24.24,0,0,1-.25-.08l0,0s-.27-.35-.62-.88l-.28-.43a4.43,4.43,0,0,0-.34-.45c-.25-.31-.49-.65-.74-1s-.55-.61-.79-.91c-.14-.14-.23-.3-.37-.43l-.38-.36c-.47-.47-.75-.81-.75-.81a.24.24,0,0,1,0-.34A.23.23,0,0,1,161.84,173.21Z" transform="translate(-67.46 -60.96)"/><path class="cls-8" d="M175.93,177.84s.4-.27,1-.62l.51-.27a2.59,2.59,0,0,1,.61-.24c.44-.16.92-.3,1.4-.45s1-.15,1.42-.2a3.77,3.77,0,0,1,.66,0l.6,0c.73,0,1.21.11,1.21.11a.24.24,0,0,1,.2.27.25.25,0,0,1-.19.2h0s-.47.1-1.16.19l-.55.06c-.2,0-.4.09-.62.12-.42.09-.87.17-1.32.24s-.87.25-1.28.35a6.06,6.06,0,0,0-.61.16l-.54.19c-.68.23-1.15.34-1.15.34a.24.24,0,0,1-.29-.18A.24.24,0,0,1,175.93,177.84Z" transform="translate(-67.46 -60.96)"/><path class="cls-6" d="M344.75,181.08c.66-1.5,6.79-4.83,14.56.44s6.85,11.45,3.16,15.35S339.54,193.06,344.75,181.08Z" transform="translate(-67.46 -60.96)"/><path class="cls-10" d="M309.56,182.3s2.64-7.74,12.49-7.92,8.17,7.85,9.86,8S323.65,195.18,309.56,182.3Z" transform="translate(-67.46 -60.96)"/><path class="cls-10" d="M330.07,201.94c1.13,1,20.52,5.31,26.44,6.5s9.07.09,8.66-6.34-2.07-12.73-9.16-15.16-9.29,2.81-9.94,1.56,2.42-12,.33-14.24-5.1-3.2-6.24-1.29S328,200.07,330.07,201.94Z" transform="translate(-67.46 -60.96)"/><path class="cls-4" d="M309.7,200.53C304.43,197,296.56,188,307,180.06s18.73,5.44,20.92,4,5.5-14.51,9.35-14.51,6.39,12.35,5.23,20.38-8.37,12.55-14.27,12.95S315.18,204.2,309.7,200.53Z" transform="translate(-67.46 -60.96)"/><path d="M309.26,191s.08-.29.23-.79a5.69,5.69,0,0,1,.33-.9,6.59,6.59,0,0,1,.57-1.12,6.72,6.72,0,0,1,.9-1.18,8.27,8.27,0,0,1,1.23-1.11,8.47,8.47,0,0,1,1.58-.83,5.15,5.15,0,0,1,.86-.3,9,9,0,0,1,.9-.2l.92-.11h.91a12.36,12.36,0,0,1,1.75.17,13.76,13.76,0,0,1,3,.88,8.4,8.4,0,0,1,1.12.53,8.19,8.19,0,0,1,.83.47l.71.44a.11.11,0,0,1-.12.19h0l-.72-.4a6.53,6.53,0,0,0-.84-.42,10.84,10.84,0,0,0-1.11-.48,13.69,13.69,0,0,0-2.92-.81,11.82,11.82,0,0,0-1.7-.13l-.87,0-.87.12a7.85,7.85,0,0,0-1.68.45,8.11,8.11,0,0,0-1.5.76,7.54,7.54,0,0,0-1.19,1,6.68,6.68,0,0,0-.88,1.11,8.06,8.06,0,0,0-.58,1,4.94,4.94,0,0,0-.37.86l-.27.78a.12.12,0,0,1-.15.07A.11.11,0,0,1,309.26,191Z" transform="translate(-67.46 -60.96)"/><path d="M331.66,199.28l.76-.24a5.1,5.1,0,0,0,.85-.32,8.79,8.79,0,0,0,1.06-.49l.59-.31.6-.39a11.48,11.48,0,0,0,1.23-.94,14.29,14.29,0,0,0,1.15-1.18,15.64,15.64,0,0,0,1-1.36,14.46,14.46,0,0,0,.86-1.47,14.19,14.19,0,0,0,.68-1.5c.17-.51.36-1,.47-1.48a11.21,11.21,0,0,0,.31-1.35,17.47,17.47,0,0,0,.28-2.07c0-.5.05-.79.05-.79h0a.11.11,0,0,1,.12-.1.1.1,0,0,1,.1.11s0,.29,0,.8a8.31,8.31,0,0,1-.05.93,9.73,9.73,0,0,1-.14,1.19,11.94,11.94,0,0,1-.29,1.39c-.1.49-.3,1-.46,1.52a15,15,0,0,1-.67,1.56,15.34,15.34,0,0,1-.86,1.53,13.94,13.94,0,0,1-2.3,2.59,14.45,14.45,0,0,1-1.29.94l-.62.4-.62.31a7.2,7.2,0,0,1-1.11.47,5.6,5.6,0,0,1-.88.27l-.78.21a.11.11,0,0,1-.13-.08A.12.12,0,0,1,331.66,199.28Z" transform="translate(-67.46 -60.96)"/><path d="M345,193.94l.44,0,.51,0a2.75,2.75,0,0,1,.66.07l.78.18a3,3,0,0,1,.84.3,4.27,4.27,0,0,1,.86.42l.83.55.7.7a4.14,4.14,0,0,1,.58.76,3.35,3.35,0,0,1,.46.76l.33.73a2.47,2.47,0,0,1,.2.64c0,.19.09.36.13.5l.11.43a.11.11,0,0,1-.08.13.1.1,0,0,1-.13-.06v0l-.14-.41c-.05-.13-.11-.29-.17-.47a3.57,3.57,0,0,0-.24-.6l-.35-.68a4.21,4.21,0,0,0-.46-.7,3.74,3.74,0,0,0-.56-.7l-.67-.65-.76-.52a3.78,3.78,0,0,0-.8-.41,3.84,3.84,0,0,0-.78-.31l-.72-.21a3.24,3.24,0,0,0-.64-.12l-.51-.07-.43-.06a.12.12,0,0,1-.1-.13A.12.12,0,0,1,345,193.94Z" transform="translate(-67.46 -60.96)"/><path d="M363.58,192.41l-.27-1.08c-.12-.67-.42-1.48-.66-2.32l-.48-1.2c-.08-.18-.13-.38-.22-.55l-.23-.47c-.28-.6-.45-1-.45-1h0a.12.12,0,0,1,.06-.15.11.11,0,0,1,.14,0s.24.37.58,1c.09.15.18.3.27.47a3.1,3.1,0,0,1,.26.55l.52,1.22c.12.43.24.87.36,1.28a6.87,6.87,0,0,1,.22,1.12c.09.66.13,1.11.13,1.11a.11.11,0,0,1-.1.12A.12.12,0,0,1,363.58,192.41Z" transform="translate(-67.46 -60.96)"/><path class="cls-8" d="M336.19,173.55l.15-.22a2.41,2.41,0,0,1,.56-.54,1.94,1.94,0,0,1,.52-.25,1.53,1.53,0,0,1,.71,0,2,2,0,0,1,.67.31,2.78,2.78,0,0,1,.48.49,3.93,3.93,0,0,1,.58,1.08,5.9,5.9,0,0,1,.28,1,5.3,5.3,0,0,1,.12,1,.25.25,0,0,1-.25.25.25.25,0,0,1-.21-.13h0a2.37,2.37,0,0,1-.12-.23c-.06-.15-.16-.36-.27-.61a8.49,8.49,0,0,0-.92-1.68,1.82,1.82,0,0,0-.29-.32,1.4,1.4,0,0,0-.3-.18,1.54,1.54,0,0,0-.3,0,1.32,1.32,0,0,0-.33.08,2.76,2.76,0,0,0-.52.28l-.22.15a.25.25,0,0,1-.34-.08A.3.3,0,0,1,336.19,173.55Z" transform="translate(-67.46 -60.96)"/><path class="cls-8" d="M349,180.49a8.59,8.59,0,0,1,.95-.2,4.62,4.62,0,0,1,1-.1c.38,0,.78,0,1.18,0s.78.13,1.13.22a4.33,4.33,0,0,1,1,.31,8.4,8.4,0,0,1,.89.41.23.23,0,0,1,.1.32.22.22,0,0,1-.22.12h0a9.45,9.45,0,0,1-.94-.11l-.44-.08c-.15,0-.32,0-.49-.06-.35,0-.71-.09-1.07-.14s-.72-.05-1.06-.09a4.07,4.07,0,0,0-.49,0l-.46,0c-.58,0-1-.1-1-.1a.25.25,0,0,1-.2-.28A.24.24,0,0,1,349,180.49Z" transform="translate(-67.46 -60.96)"/><path class="cls-8" d="M321.41,175.49a7.84,7.84,0,0,1,.84,0,4.81,4.81,0,0,1,.85.12c.32.06.65.16,1,.25s.63.25.93.38a5.88,5.88,0,0,1,.76.43,7.54,7.54,0,0,1,.69.5.24.24,0,0,1,0,.34.23.23,0,0,1-.23.08h0a7,7,0,0,1-.8-.23c-.22-.08-.49-.17-.78-.25l-.9-.3c-.61-.17-1.18-.42-1.67-.56a7.29,7.29,0,0,1-.79-.31.24.24,0,0,1-.11-.32A.26.26,0,0,1,321.41,175.49Z" transform="translate(-67.46 -60.96)"/><polygon class="cls-2" points="187.74 137.56 185.07 70.22 189.07 69.98 191.73 137.31 187.74 137.56"/><path class="cls-6" d="M254.94,134.56c-3.5,0-61-29.75-41.75-60s34.5,9.5,38.5,10,9-37.25,36.25-18.25S259.69,134.56,254.94,134.56Z" transform="translate(-67.46 -60.96)"/><path class="cls-2" d="M211.43,97.49c8.72,20.75,40.92,37.07,43.51,37.07,3.3,0,31.11-23.79,38.62-44.68C270.85,110.84,236.36,116.32,211.43,97.49Z" transform="translate(-67.46 -60.96)"/><path d="M211.3,85.81s0,.47,0,1.31a13.22,13.22,0,0,0,0,1.49c0,.57.08,1.21.18,1.92a21.32,21.32,0,0,0,.39,2.25c.14.79.42,1.61.66,2.46s.58,1.7,1,2.55.8,1.69,1.21,2.54.91,1.65,1.43,2.42,1,1.53,1.54,2.26,1.06,1.38,1.6,2,1,1.19,1.54,1.7c1,1,1.83,1.85,2.45,2.4l1,.87a.11.11,0,0,1,0,.16.12.12,0,0,1-.16,0l-1-.84c-.33-.26-.7-.6-1.13-1s-.91-.84-1.4-1.36-1-1.08-1.57-1.69-1.08-1.3-1.64-2-1.09-1.46-1.59-2.26-1-1.62-1.47-2.44-.87-1.71-1.21-2.59-.66-1.75-1-2.6-.51-1.69-.64-2.5a19,19,0,0,1-.37-2.29,14.1,14.1,0,0,1-.14-2,10.48,10.48,0,0,1,0-1.5c0-.83.06-1.31.06-1.31a.11.11,0,0,1,.12-.1A.1.1,0,0,1,211.3,85.81Z" transform="translate(-67.46 -60.96)"/><path class="cls-8" d="M270.64,62.57l1-.26.5-.13.63-.1a8.65,8.65,0,0,1,1.52-.14l.86,0L276,62a11.92,11.92,0,0,1,2,.33,16.12,16.12,0,0,1,2,.66,19.84,19.84,0,0,1,2,.89c.64.36,1.28.71,1.88,1.12s1.18.81,1.74,1.2c1.08.83,2.05,1.66,2.85,2.39S290,70,290.42,70.42l.68.71a.25.25,0,0,1,0,.34.26.26,0,0,1-.32,0l-.76-.64c-.47-.41-1.16-1-2-1.67-.41-.34-.87-.7-1.35-1.08s-1-.74-1.55-1.14-1.11-.79-1.71-1.14-1.21-.71-1.82-1-1.26-.64-1.91-.88a17.93,17.93,0,0,0-1.91-.65,16.91,16.91,0,0,0-1.85-.38l-.86-.11-.82,0a10.64,10.64,0,0,0-1.42,0l-.6,0-.51.09-1,.17a.24.24,0,0,1-.27-.2A.25.25,0,0,1,270.64,62.57Z" transform="translate(-67.46 -60.96)"/><path class="cls-8" d="M292.68,76.27s.13.41.28,1a8.53,8.53,0,0,1,.19,1.08c0,.41.06.85.08,1.29s-.05.87-.09,1.27a7.65,7.65,0,0,1-.18,1.1c-.15.64-.29,1-.29,1a.24.24,0,0,1-.3.15.26.26,0,0,1-.16-.21v0s0-.43,0-1.05,0-1.46,0-2.28,0-1.62,0-2.27,0-1.07,0-1.07a.24.24,0,0,1,.25-.23A.27.27,0,0,1,292.68,76.27Z" transform="translate(-67.46 -60.96)"/><path class="cls-5" d="M217,168.22s5.66,1.5,6.16.67,3.17-6,3.17-6l-1.17-7.33S217.61,163.89,217,168.22Z" transform="translate(-67.46 -60.96)"/><path class="cls-5" d="M244.45,192.39c.74-.37,5-3.67,5.16-4.5s-2.5-50.83-2.66-51.83-3.34-2.67-5-3.17S242.78,193.22,244.45,192.39Z" transform="translate(-67.46 -60.96)"/><path class="cls-5" d="M261.11,132.72c4.25-6.75,25.25-7.25,29.25-.25s4.75,51.5-.5,55.25-26.75,2.75-29.5-1.75S257.15,139,261.11,132.72Z" transform="translate(-67.46 -60.96)"/><polygon class="cls-2" points="168.5 126.93 168.99 139.22 172.99 138.98 172.51 126.93 168.5 126.93"/><polygon class="cls-2" points="209 126.93 209.49 139.22 213.49 138.98 213.01 126.93 209 126.93"/><path class="cls-11" d="M204.61,159.39c.25-2.49,16.84-25.67,18.67-27s17.67-1.5,18.67.5,3.83,58.17,2.5,59.5-16.34,1.67-17.34.17-1.83-35-2.33-35.84-6.83,10.5-7.83,11.5S204.45,161.06,204.61,159.39Z" transform="translate(-67.46 -60.96)"/><path class="cls-11" d="M296.86,132.81c-4-7-24-7.75-28.25-1-4,6.29-4.5,51.5-1.75,56s24.25,4,29.5.25S300.86,139.81,296.86,132.81Zm-11.39,35.55c-1.09,1.2-5.56,1.36-6.13-.08s-.46-15.92.36-17.94,5.05-1.92,5.88.32S286.57,167.16,285.47,168.36Z" transform="translate(-67.46 -60.96)"/><path class="cls-12" d="M223.28,132.39c-1.1.8-7.45,9.38-12.45,16.7a52.61,52.61,0,0,0,11.56,10.58c1.22-1.89,2.2-3.26,2.39-2.95a36.22,36.22,0,0,1,.38,4.7,54.6,54.6,0,0,0,19.15,6.92c-.66-16-1.8-34.32-2.36-35.45C241,130.89,225.11,131.06,223.28,132.39Z" transform="translate(-67.46 -60.96)"/><path class="cls-12" d="M268.61,131.81c-2.34,3.72-3.49,21.1-3.46,35.59a51.29,51.29,0,0,0,7-2.34,75,75,0,0,0,6.87-3.33c0-4.64.23-10.2.72-11.39.89-2.16,5.05-1.92,5.88.32a31.6,31.6,0,0,1,.63,6.57,98.85,98.85,0,0,0,13.22-11.09c-.55-6.29-1.43-11.34-2.57-13.33C292.86,125.81,272.86,125.06,268.61,131.81Z" transform="translate(-67.46 -60.96)"/><path d="M242.67,185.72s0-1.62-.07-4.06,0-5.69,0-8.94,0-6.5,0-8.94.07-4.06.07-4.06a.11.11,0,1,1,.22,0s0,1.63.07,4.06,0,5.69,0,8.94,0,6.5,0,8.94-.07,4.06-.07,4.06a.11.11,0,1,1-.22,0Z" transform="translate(-67.46 -60.96)"/><path d="M266.33,181.06l-.08-4c0-2.41,0-5.62-.06-8.83.06-1.61.12-3.22.17-4.72,0-.75,0-1.48.1-2.17s.11-1.34.16-1.94c.23-2.4.38-4,.38-4a.11.11,0,0,1,.12-.1.1.1,0,0,1,.1.11h0s-.1,1.6-.24,4c-.05.6-.09,1.25-.14,1.94s0,1.41-.07,2.16c0,1.51-.07,3.11-.11,4.71,0,3.21,0,6.42-.05,8.83l-.05,4a.11.11,0,0,1-.12.1A.12.12,0,0,1,266.33,181.06Z" transform="translate(-67.46 -60.96)"/><path d="M226.67,167.73s-.08-.45-.17-1.14-.2-1.6-.29-2.51-.14-1.84-.17-2.53,0-1.15,0-1.15a.11.11,0,0,1,.11-.11.11.11,0,0,1,.11.09s.08.45.18,1.14.19,1.6.28,2.51.15,1.84.18,2.53,0,1.15,0,1.15a.11.11,0,0,1-.11.11A.09.09,0,0,1,226.67,167.73Z" transform="translate(-67.46 -60.96)"/><path d="M277,166.38s0-.44,0-1.09,0-1.54.06-2.41.11-1.75.17-2.41.12-1.09.12-1.09a.11.11,0,0,1,.13-.09.12.12,0,0,1,.1.1s0,.44,0,1.1,0,1.53-.06,2.41-.1,1.75-.16,2.4-.13,1.09-.13,1.09a.11.11,0,0,1-.12.1A.11.11,0,0,1,277,166.38Z" transform="translate(-67.46 -60.96)"/><path d="M216.69,166s.15-.32.41-.77.61-1,1-1.63.77-1.16,1.08-1.58.53-.69.53-.69a.1.1,0,0,1,.15,0,.11.11,0,0,1,0,.14l-.41.77c-.25.45-.62,1-1,1.63s-.77,1.15-1.08,1.57-.53.7-.53.7a.11.11,0,0,1-.15,0A.09.09,0,0,1,216.69,166Z" transform="translate(-67.46 -60.96)"/><path d="M295.34,186.69l.5-2.22c.07-.33.16-.69.25-1.07s.14-.78.23-1.2l.5-2.61c.12-.9.25-1.8.36-2.64.05-.42.14-.82.16-1.21s.07-.76.1-1.1l.23-2.26h0a.11.11,0,0,1,.12-.1.11.11,0,0,1,.1.11s0,.91-.09,2.28q0,.51-.06,1.11c0,.39-.08.8-.12,1.22-.11.85-.23,1.76-.34,2.66l-.53,2.64c-.09.42-.16.83-.27,1.2s-.2.74-.29,1.06c-.38,1.32-.64,2.19-.64,2.19a.11.11,0,0,1-.13.08A.12.12,0,0,1,295.34,186.69Z" transform="translate(-67.46 -60.96)"/><path class="cls-8" d="M279.47,128.82s.94,0,2.35.06a17.22,17.22,0,0,1,2.41.21l1.36.2c.46.07.94.12,1.4.22l2.71.67a11,11,0,0,1,1.23.36L292,131c1.33.51,2.2.89,2.2.89a.23.23,0,0,1-.15.44h0s-.92-.21-2.26-.59l-1.08-.32c-.38-.13-.81-.17-1.23-.28l-2.66-.59c-.91-.18-1.83-.32-2.68-.48l-1.24-.22-1.13-.15c-1.4-.18-2.32-.35-2.32-.35a.24.24,0,0,1-.2-.27A.24.24,0,0,1,279.47,128.82Z" transform="translate(-67.46 -60.96)"/><path class="cls-8" d="M227.11,132.82s.86-.08,2.15-.14c.64,0,1.39-.08,2.2,0s1.68.06,2.55.1,1.71.17,2.52.27,1.54.24,2.18.36c1.27.25,2.11.45,2.11.45a.24.24,0,0,1,.17.29.25.25,0,0,1-.24.18h0s-.86,0-2.14-.16c-.63-.07-1.37-.15-2.17-.19l-2.5-.21c-1.69-.07-3.38-.25-4.67-.28s-2.15-.16-2.15-.16a.24.24,0,0,1,0-.47Z" transform="translate(-67.46 -60.96)"/><path class="cls-13" d="M67.59,446.92c0-1.12-.54-5.59.57-6.69,13.1-13,101.28-21.27,194-21.27,91.22,0,168.81,6.7,182.25,20.68,1.39,1.45.43,5.74.43,7.28,0,16.41-106.62,27.22-182.68,27.22S67.59,468.54,67.59,446.92Z" transform="translate(-67.46 -60.96)"/><path class="cls-14" d="M67.68,440.77c0-14.25,93.95-28,194.61-28S445,424.37,445,440.77,338.34,468,262.29,468,67.68,462.39,67.68,440.77Z" transform="translate(-67.46 -60.96)"/><path class="cls-15" d="M128.86,440.65c0-9.63,63.48-18.89,131.49-18.89s123.44,7.8,123.44,18.89S311.74,459,260.35,459,128.86,455.26,128.86,440.65Z" transform="translate(-67.46 -60.96)"/><path d="M262.29,468.1l-8.64,0c-5.49,0-13.34-.08-22.76-.25-18.84-.34-44-1.12-69-2.9-12.53-.91-25.05-2.08-36.73-3.56a297.38,297.38,0,0,1-31.72-5.49,109.6,109.6,0,0,1-12.33-3.66,39.62,39.62,0,0,1-8.88-4.43A11.08,11.08,0,0,1,68,443a5.59,5.59,0,0,1-.4-1.66c0-.38-.05-.58-.05-.58a.11.11,0,0,1,.1-.12.11.11,0,0,1,.12.1v0s0,.19,0,.56a5.47,5.47,0,0,0,.39,1.6,10.9,10.9,0,0,0,4.12,4.66A39.52,39.52,0,0,0,81.17,452a111.71,111.71,0,0,0,12.31,3.62A300.53,300.53,0,0,0,125.17,461c11.69,1.45,24.2,2.58,36.72,3.47,25.05,1.82,50.17,2.67,69,3.06,9.42.19,17.27.27,22.77.31l8.63,0a.11.11,0,0,1,.11.11A.11.11,0,0,1,262.29,468.1Z" transform="translate(-67.46 -60.96)"/><path class="cls-5" d="M382.32,311.32q.27-5.13.53-10.18c-15.09.9-84.94,4.88-133.06,4.88s-110-4-123.25-4.88q.46,5.07.94,10.22c16.17,1.08,75.63,4.8,122.31,4.8C297.07,316.16,365.07,312.34,382.32,311.32Z" transform="translate(-67.46 -60.96)"/><path class="cls-4" d="M134.11,376.79c3.4,31.11,6.4,55.22,7.25,58.27,2.5,9,89.25,15,117.75,15s113.75-5.5,115.25-15c.5-3.18,2.23-27.38,4.18-58.52-21.83,1.26-84.4,4.62-128.75,4.62C208.12,381.16,156.27,378.19,134.11,376.79Z" transform="translate(-67.46 -60.96)"/><path class="cls-10" d="M332.36,410.39c-55.08,12.59-71.67,10.67-118.67,6.67-22.85-1.39-57.56-10.05-77.46-21.33,2.47,21.56,4.47,36.93,5.13,39.33,2.5,9,89.25,15,117.75,15s113.75-5.5,115.25-15c.4-2.54,1.58-18.45,3-40.6C366.37,399.9,355.69,405.06,332.36,410.39Z" transform="translate(-67.46 -60.96)"/><path class="cls-11" d="M379.17,366.36c1.07-17.5,2.17-36.58,3.15-55-17.25,1-85.25,4.84-132.53,4.84-46.68,0-106.14-3.72-122.31-4.8,1.72,18.53,3.65,37.67,5.53,55.21,20.93,1.33,74.23,4.45,116.78,4.45C294.74,371,358.64,367.54,379.17,366.36Z" transform="translate(-67.46 -60.96)"/><path class="cls-12" d="M377.36,348.06c0,8.28-4.66,15-12.05,15s-12.95-6.72-12.95-15,5.55-15,12.95-15S377.36,339.77,377.36,348.06Z" transform="translate(-67.46 -60.96)"/><path class="cls-4" d="M382.85,301.14c2.15-42,3.47-78.54,2-82.08-3.5-8.5-75.75-18-125.75-18s-134,11.4-136.42,18c-2.11,5.72.21,41.34,3.85,82.08,13.26.9,75.14,4.88,123.25,4.88S367.76,302,382.85,301.14Z" transform="translate(-67.46 -60.96)"/><path class="cls-10" d="M384.86,219.06c-3.5-8.5-75.75-18-125.75-18s-134,11.4-136.42,18c-2.11,5.72.21,41.34,3.85,82.08l5.5.36c3.56-17.15-7.64-36.17-.68-54.44,1-1,3-3,5-2,9,7-2,25,9,29,3-13-4-31,11-38,6-2,9,3,13,8,0,1,5,1,6,0,7-9,18-13,25-7,8,8,1,23,8,33,7-9-1-21,5-30,4-5,12-13,17-7,2,2,5,7,8,5,4-3,6-8,12-9,8-1,16,1,20,8,7,10,8,23,9,36,4-15,5-47,25-40,9,4,17,6,27,5,1,0,3,5,5,7,2,1,4,2,6,1,8-4,6-15,12-20,6-4,13,0,14,5,3.14,23.88,7.47,47,11.24,70.27l3.25-.19C385,259.1,386.32,222.6,384.86,219.06Z" transform="translate(-67.46 -60.96)"/><path class="cls-5" d="M249.79,371c-42.55,0-95.85-3.12-116.78-4.45.37,3.47.74,6.89,1.1,10.22,22.16,1.4,74,4.37,115.68,4.37,44.35,0,106.92-3.36,128.75-4.62.21-3.32.42-6.72.63-10.18C358.64,367.54,294.74,371,249.79,371Z" transform="translate(-67.46 -60.96)"/><path class="cls-6" d="M388.86,216.06c-2.61-9.3-77-18.46-129.48-18.46s-139.6,8.19-143.25,18.91c-3.77,11.05.73,39.88,4.73,69.55s2.83,34.66-4.5,41-19.67,14-8.67,25,25.34,7.66,25.34-3-8.67-92.34-6.67-105.34,10.67-15.66,12-7.33,2.67,23.67.33,35.67-.66,19.33,6.67,17.66,6.33-21.33,3.33-30.33-7.72-35.53,7.34-31c16.33,4.92,2.66,23.26,18.66,23.33,18.42.09-.33-18.41,12-26.33,12.15-7.8,15.34,10,15,28s-1.66,53,12.67,52,.33-30-2.33-45-2.34-33.33,10.66-33.33,3.34,25,14.34,24.66-5.34-30,16.66-29.33,20.67,25.67,22.34,44.33-4.67,51.67,6.33,51,9-15.66,5.67-33.66-8.67-52,3-56,11.33,19.66,25.33,17.33,13.33-16,15.33-17S335,238.72,342,235.72s5.33-12.33,8.33-12.33,7.21,11.12,13.33,11.67c11.17,1,13.17-8.17,15.17-7.5s-1.5,49.16-2.5,65.5-9.67,50.33-2,55.66,21.75,2.59,25-8.66,3-19-4-23.75c-5-3.38-11-5-11.25-11S392.42,228.76,388.86,216.06Z" transform="translate(-67.46 -60.96)"/><path class="cls-2" d="M122.36,342.06c-5,2-10,2-14,0a15.82,15.82,0,0,1-4-2.92c-1.87,3.76-1.62,8,3.29,12.92,11,11,25.34,7.66,25.34-3,0-3-.69-11.65-1.63-22.81C131,332.84,129.15,339,122.36,342.06Z" transform="translate(-67.46 -60.96)"/><path class="cls-2" d="M145.36,277.06a8,8,0,0,1-7.3-1.06c-1.23,9.62.81,15.2,7.3,13.72,4.68-1.06,6-9.45,5.5-17.72A7.17,7.17,0,0,1,145.36,277.06Z" transform="translate(-67.46 -60.96)"/><path class="cls-2" d="M177.36,245.06c-5.34,2.37-8.92-.18-12-4.11.7,5.57.85,10.73,9.32,10.77,17.3.08,1.82-16.23,10.09-24.77C176.93,227.84,184.68,242.31,177.36,245.06Z" transform="translate(-67.46 -60.96)"/><path class="cls-2" d="M207.36,294.06a37.88,37.88,0,0,1-4.54-5.51c1.55,9.88,4.83,17.31,11.54,16.84,11.53-.81,4.72-19.74.23-34.92,1.26,6,2.77,12,2.77,18.59C216.36,294.06,212.36,297.06,207.36,294.06Z" transform="translate(-67.46 -60.96)"/><path class="cls-2" d="M237.36,243.06c-5.82.72-5.29-7.53-8-10.94,2.5,7.28-.12,19.84,7.7,19.6,6.48-.19,3.47-10.59,4.41-18.95C240,237.16,240.18,242.35,237.36,243.06Z" transform="translate(-67.46 -60.96)"/><path class="cls-2" d="M284.36,292.06c-3.79,3.41-6.43,1.93-8.47-1.71-.51,14.52-.55,27.8,6.47,27.37,10.85-.66,9.05-15.26,5.8-32.94A10.47,10.47,0,0,1,284.36,292.06Z" transform="translate(-67.46 -60.96)"/><path class="cls-2" d="M301.36,229.06c-1.5-.76-4.7-2.64-7.05-1.4,8.46,1.07,9.51,19.82,22.05,17.73A15.57,15.57,0,0,0,329,235.3a17.27,17.27,0,0,1-5.65,3.76C313.36,244.06,308.36,232.06,301.36,229.06Z" transform="translate(-67.46 -60.96)"/><path class="cls-2" d="M353.36,224.06c-.39,0-1.1-.16-1.86-.22,2.9,2.07,6.81,10.73,12.19,11.22,7.1.63,10.5-2.84,12.54-5.29C367.83,233.93,361.39,233,353.36,224.06Z" transform="translate(-67.46 -60.96)"/><path class="cls-2" d="M379.36,228.06l-.2.11a32.69,32.69,0,0,1,.31,5.53A14.9,14.9,0,0,0,379.36,228.06Z" transform="translate(-67.46 -60.96)"/><path class="cls-2" d="M391.36,333.06c-6,4-14,3-17-3a30.64,30.64,0,0,1-2.22-5.32c-1.36,11.32-1.64,21.29,2.22,24,7.67,5.34,21.75,2.59,25-8.66,2.06-7.12,2.71-12.84,1.13-17.28A17.21,17.21,0,0,1,391.36,333.06Z" transform="translate(-67.46 -60.96)"/><path class="cls-13" d="M148.49,217.18a24.64,24.64,0,0,0,4,2.5c1.75.88,2.62-.5,1.12-1.37s-3.12-1.88-4.25-2.38S147.6,216.57,148.49,217.18Z" transform="translate(-67.46 -60.96)"/><path class="cls-5" d="M132.8,218.85a26.11,26.11,0,0,0-2.5,4c-.87,1.75.5,2.63,1.38,1.13s1.87-3.13,2.37-4.25S133.41,218,132.8,218.85Z" transform="translate(-67.46 -60.96)"/><path class="cls-5" d="M179.17,241.63a24.64,24.64,0,0,0-4-2.5c-1.75-.88-2.63.5-1.13,1.37s3.13,1.88,4.25,2.38S180.06,242.24,179.17,241.63Z" transform="translate(-67.46 -60.96)"/><path class="cls-5" d="M159.69,222.73c-.06-1.67,2.22-1.43,2.34.06S159.75,224.41,159.69,222.73Z" transform="translate(-67.46 -60.96)"/><path class="cls-4" d="M165.62,213.23a24.45,24.45,0,0,0,4.36-1.8c1.73-.91,1.12-2.42-.46-1.71s-3.35,1.45-4.41,2.07S164.61,213.6,165.62,213.23Z" transform="translate(-67.46 -60.96)"/><path class="cls-4" d="M170.62,230.9a26,26,0,0,0,4.36-1.8c1.73-.91,1.12-2.43-.46-1.71s-3.35,1.45-4.41,2.07S169.61,231.27,170.62,230.9Z" transform="translate(-67.46 -60.96)"/><path class="cls-4" d="M206.06,228.69a25.82,25.82,0,0,0,1.8,4.37c.91,1.73,2.43,1.12,1.72-.47s-1.46-3.34-2.08-4.4S205.69,227.68,206.06,228.69Z" transform="translate(-67.46 -60.96)"/><path class="cls-5" d="M176.66,207.35c-1.4-.93.12-2.64,1.4-1.87S178.05,208.27,176.66,207.35Z" transform="translate(-67.46 -60.96)"/><path class="cls-4" d="M174.53,220.56c-1.4-.93.12-2.64,1.4-1.87S175.93,221.48,174.53,220.56Z" transform="translate(-67.46 -60.96)"/><path class="cls-13" d="M144.3,274.72a24.79,24.79,0,0,0,4.08-2.36c1.59-1.14.79-2.55-.69-1.64s-3.12,1.89-4.08,2.64S143.35,275.22,144.3,274.72Z" transform="translate(-67.46 -60.96)"/><path class="cls-13" d="M186,221.06a25.5,25.5,0,0,0,4.08-2.37c1.59-1.13.79-2.55-.69-1.64s-3.12,1.89-4.09,2.65S185,221.55,186,221.06Z" transform="translate(-67.46 -60.96)"/><path class="cls-4" d="M143.91,265.11a26.85,26.85,0,0,0,.45-4.7c0-2-1.62-2.12-1.74-.39s-.28,3.63-.22,4.86S143.75,266.17,143.91,265.11Z" transform="translate(-67.46 -60.96)"/><path class="cls-4" d="M122.91,246.11a26.85,26.85,0,0,0,.45-4.7c0-1.95-1.62-2.12-1.74-.39s-.28,3.63-.22,4.86S122.75,247.17,122.91,246.11Z" transform="translate(-67.46 -60.96)"/><path class="cls-5" d="M143.87,252.6c-1.47.8-2.27-1.34-1-2.12S145.34,251.8,143.87,252.6Z" transform="translate(-67.46 -60.96)"/><path class="cls-4" d="M145.68,283.17c-1.47.8-2.27-1.34-1-2.11S147.16,282.37,145.68,283.17Z" transform="translate(-67.46 -60.96)"/><path class="cls-13" d="M208.29,287.68a24.77,24.77,0,0,0,4.08-2.37c1.59-1.13.79-2.55-.69-1.63s-3.12,1.88-4.08,2.64S207.34,288.18,208.29,287.68Z" transform="translate(-67.46 -60.96)"/><path class="cls-4" d="M207.9,278.06a25.82,25.82,0,0,0,.45-4.69c0-2-1.62-2.13-1.74-.39s-.28,3.63-.22,4.86S207.75,279.13,207.9,278.06Z" transform="translate(-67.46 -60.96)"/><path class="cls-5" d="M207.86,265.56c-1.47.8-2.27-1.35-1-2.12S209.33,264.75,207.86,265.56Z" transform="translate(-67.46 -60.96)"/><path class="cls-4" d="M209.67,296.13c-1.47.8-2.27-1.34-1-2.12S211.15,295.32,209.67,296.13Z" transform="translate(-67.46 -60.96)"/><path class="cls-4" d="M141.69,227.39c-1.39-.93.12-2.64,1.41-1.87S143.09,228.31,141.69,227.39Z" transform="translate(-67.46 -60.96)"/><path class="cls-13" d="M216.76,207.76a25.25,25.25,0,0,0,2.74,3.84c1.29,1.47,2.62.53,1.57-.85s-2.18-2.92-3-3.81S216.17,206.86,216.76,207.76Z" transform="translate(-67.46 -60.96)"/><path class="cls-5" d="M201.62,203.34a25.24,25.24,0,0,0-3.84,2.75c-1.47,1.28-.53,2.62.85,1.56s2.92-2.17,3.81-3S202.52,202.75,201.62,203.34Z" transform="translate(-67.46 -60.96)"/><path class="cls-5" d="M207.85,245.74a25.81,25.81,0,0,0-3.83,2.75c-1.48,1.29-.54,2.62.84,1.57s2.92-2.18,3.81-3S208.75,245.16,207.85,245.74Z" transform="translate(-67.46 -60.96)"/><path class="cls-5" d="M284.36,301.72a25.89,25.89,0,0,0-4.65-.77c-2-.13-2.23,1.48-.51,1.7s3.6.53,4.83.56S285.41,301.94,284.36,301.72Z" transform="translate(-67.46 -60.96)"/><path class="cls-5" d="M225,217.16c.58-1.57,2.59-.48,2.13,1S224.43,218.74,225,217.16Z" transform="translate(-67.46 -60.96)"/><path class="cls-13" d="M284.83,215.35a24.64,24.64,0,0,0,4,2.5c1.75.88,2.63-.5,1.13-1.37s-3.13-1.88-4.25-2.38S283.94,214.74,284.83,215.35Z" transform="translate(-67.46 -60.96)"/><path class="cls-5" d="M269.15,217a24.64,24.64,0,0,0-2.5,4c-.88,1.75.5,2.63,1.37,1.13s1.88-3.13,2.38-4.25S269.76,216.14,269.15,217Z" transform="translate(-67.46 -60.96)"/><path class="cls-5" d="M315.51,239.8a24.64,24.64,0,0,0-4-2.5c-1.75-.88-2.62.5-1.12,1.37s3.12,1.88,4.25,2.38S316.4,240.41,315.51,239.8Z" transform="translate(-67.46 -60.96)"/><path class="cls-5" d="M296,220.9c-.06-1.67,2.21-1.43,2.33.06S296.1,222.58,296,220.9Z" transform="translate(-67.46 -60.96)"/><path class="cls-13" d="M381,258c-.06-1.67,2.21-1.43,2.33.07S381.08,259.67,381,258Z" transform="translate(-67.46 -60.96)"/><path class="cls-4" d="M291,206.35a25.26,25.26,0,0,0,4.36-1.79c1.73-.92,1.12-2.43-.46-1.72s-3.35,1.45-4.41,2.08S290,206.72,291,206.35Z" transform="translate(-67.46 -60.96)"/><path class="cls-4" d="M307,229.07a25.68,25.68,0,0,0,4.36-1.8c1.73-.91,1.12-2.43-.46-1.71s-3.34,1.45-4.4,2.07S306,229.44,307,229.07Z" transform="translate(-67.46 -60.96)"/><path class="cls-4" d="M342.41,226.86a24.27,24.27,0,0,0,1.8,4.37c.91,1.73,2.42,1.12,1.71-.47s-1.45-3.34-2.07-4.4S342,225.85,342.41,226.86Z" transform="translate(-67.46 -60.96)"/><path class="cls-5" d="M319,207.42c-1.39-.93.12-2.64,1.41-1.86S320.35,208.35,319,207.42Z" transform="translate(-67.46 -60.96)"/><path class="cls-4" d="M310.87,218.73c-1.4-.93.12-2.64,1.41-1.87S312.27,219.65,310.87,218.73Z" transform="translate(-67.46 -60.96)"/><path class="cls-13" d="M280.65,272.89a25.22,25.22,0,0,0,4.08-2.36c1.59-1.14.78-2.55-.69-1.64s-3.12,1.88-4.09,2.64S279.69,273.39,280.65,272.89Z" transform="translate(-67.46 -60.96)"/><path class="cls-13" d="M322.31,219.23a25.5,25.5,0,0,0,4.08-2.37c1.6-1.13.79-2.55-.68-1.64s-3.12,1.89-4.09,2.65S321.36,219.72,322.31,219.23Z" transform="translate(-67.46 -60.96)"/><path class="cls-4" d="M280.25,263.28a25.05,25.05,0,0,0,.45-4.7c0-1.95-1.62-2.12-1.73-.39s-.28,3.63-.23,4.86S280.1,264.34,280.25,263.28Z" transform="translate(-67.46 -60.96)"/><path class="cls-5" d="M280.22,250.77c-1.48.8-2.28-1.34-1-2.12S281.69,250,280.22,250.77Z" transform="translate(-67.46 -60.96)"/><path class="cls-4" d="M282,281.34c-1.47.8-2.28-1.34-1-2.11S283.5,280.54,282,281.34Z" transform="translate(-67.46 -60.96)"/><path class="cls-13" d="M380.64,330.85a25.2,25.2,0,0,0,4.08-2.37c1.59-1.13.78-2.55-.69-1.63s-3.12,1.88-4.09,2.64S379.68,331.35,380.64,330.85Z" transform="translate(-67.46 -60.96)"/><path class="cls-4" d="M380.24,321.23a25,25,0,0,0,.45-4.69c0-2-1.62-2.13-1.73-.4s-.28,3.64-.23,4.87S380.09,322.3,380.24,321.23Z" transform="translate(-67.46 -60.96)"/><path class="cls-5" d="M380.21,308.73c-1.48.8-2.28-1.35-1-2.12S381.68,307.92,380.21,308.73Z" transform="translate(-67.46 -60.96)"/><path class="cls-4" d="M382,339.3c-1.47.8-2.28-1.34-1-2.12S383.49,338.49,382,339.3Z" transform="translate(-67.46 -60.96)"/><path class="cls-4" d="M278,225.56c-1.4-.93.12-2.64,1.41-1.87S279.44,226.48,278,225.56Z" transform="translate(-67.46 -60.96)"/><path class="cls-13" d="M357,213.71a25.81,25.81,0,0,0,2.75,3.83c1.29,1.48,2.62.54,1.56-.84s-2.17-2.92-3-3.81S356.39,212.81,357,213.71Z" transform="translate(-67.46 -60.96)"/><path class="cls-5" d="M262.46,204a25.11,25.11,0,0,0-3.83,2.75c-1.48,1.28-.54,2.62.84,1.56s2.93-2.17,3.82-3S263.36,203.42,262.46,204Z" transform="translate(-67.46 -60.96)"/><path class="cls-5" d="M382.54,271.77a25.24,25.24,0,0,0-3.84,2.75c-1.47,1.28-.53,2.61.85,1.56s2.92-2.18,3.81-3S383.44,271.18,382.54,271.77Z" transform="translate(-67.46 -60.96)"/><path class="cls-13" d="M124.64,350.35a24.77,24.77,0,0,0,4.08-2.37c1.59-1.13.78-2.55-.69-1.63s-3.12,1.88-4.09,2.64S123.68,350.85,124.64,350.35Z" transform="translate(-67.46 -60.96)"/><path class="cls-4" d="M124.24,340.73a25,25,0,0,0,.45-4.69c0-2-1.62-2.13-1.73-.4s-.28,3.64-.23,4.87S124.09,341.8,124.24,340.73Z" transform="translate(-67.46 -60.96)"/><path class="cls-5" d="M124.21,328.23c-1.48.8-2.28-1.35-1-2.12S125.68,327.42,124.21,328.23Z" transform="translate(-67.46 -60.96)"/><path class="cls-5" d="M116,339.77a25.24,25.24,0,0,0-3.84,2.75c-1.47,1.28-.53,2.61.85,1.56s2.92-2.18,3.81-3S116.94,339.18,116,339.77Z" transform="translate(-67.46 -60.96)"/><path class="cls-5" d="M365.22,223.11c.59-1.57,2.6-.48,2.14.95S364.64,224.68,365.22,223.11Z" transform="translate(-67.46 -60.96)"/><path class="cls-4" d="M374.32,216.58a24.67,24.67,0,0,0,4.72,0c1.95-.19,2-1.82.22-1.76s-3.64.06-4.86.24S373.25,216.54,374.32,216.58Z" transform="translate(-67.46 -60.96)"/><path class="cls-4" d="M383.86,244.06c-.94-1.39,1.12-2.4,2-1.19S384.8,245.44,383.86,244.06Z" transform="translate(-67.46 -60.96)"/><path class="cls-4" d="M342.94,212.79c-.94-1.39,1.11-2.4,2-1.19S343.88,214.18,342.94,212.79Z" transform="translate(-67.46 -60.96)"/><path class="cls-4" d="M234.1,210.64a25.43,25.43,0,0,0,4.72,0c2-.19,2-1.81.22-1.76s-3.64.07-4.86.24S233,210.59,234.1,210.64Z" transform="translate(-67.46 -60.96)"/><path class="cls-4" d="M239.55,220.8c-.94-1.39,1.12-2.4,2-1.19S240.49,222.19,239.55,220.8Z" transform="translate(-67.46 -60.96)"/><path class="cls-4" d="M206.59,214.62c-.94-1.39,1.12-2.4,2-1.19S207.53,216,206.59,214.62Z" transform="translate(-67.46 -60.96)"/><path class="cls-12" d="M136.25,359.69l.29-.05a3.42,3.42,0,0,0,.71-.2,4.47,4.47,0,0,0,2.15-2c1.48-2.37,2.21-6.78,2.93-12.34.38-2.79.77-5.9,1.46-9.28a34,34,0,0,1,3.77-10.61,16.94,16.94,0,0,1,4.25-4.82,15.25,15.25,0,0,1,2.94-1.73,24.71,24.71,0,0,1,3.18-1.18,15.28,15.28,0,0,1,7.21-.42,13.71,13.71,0,0,1,6.72,3.59,24.7,24.7,0,0,1,4.62,6.2,50.85,50.85,0,0,1,3.16,7.19c.9,2.49,1.67,5.05,2.41,7.65s1.42,5.25,2.26,7.8a60.83,60.83,0,0,0,3,7.66,19.28,19.28,0,0,0,2.06,3.42,3.74,3.74,0,0,0,2.53,1.7,4.4,4.4,0,0,0,2.74-1.64,24,24,0,0,0,2.53-3.31c1.57-2.41,3-5,4.44-7.67a172.88,172.88,0,0,1,9.35-16,52.2,52.2,0,0,1,6.1-7.44,26.59,26.59,0,0,1,8.12-5.73,18.81,18.81,0,0,1,4.95-1.4,15.48,15.48,0,0,1,5.25.09,13.41,13.41,0,0,1,4.89,2.17,19.82,19.82,0,0,1,3.79,3.51,41.66,41.66,0,0,1,5.33,8.43c1.45,2.95,2.7,6,3.87,9s2.25,6.06,3.36,9.06a68.75,68.75,0,0,0,3.73,8.64,9.17,9.17,0,0,0,2.52,3.14,1.48,1.48,0,0,0,1.19.24,3.61,3.61,0,0,0,1.42-.84,15.64,15.64,0,0,0,2.66-3.43,42.6,42.6,0,0,0,2.19-4.06c1.36-2.79,2.5-5.71,3.75-8.61s2.49-5.79,3.87-8.62a73,73,0,0,1,4.59-8.24,32.49,32.49,0,0,1,6.21-7.2,17,17,0,0,1,8.79-3.93,17.76,17.76,0,0,1,4.78.11,16.54,16.54,0,0,1,4.54,1.36,20.81,20.81,0,0,1,7.2,5.6,37.28,37.28,0,0,1,4.74,7.29,68.58,68.58,0,0,1,3.29,7.65c.92,2.59,1.72,5.06,2.64,7.47a75.43,75.43,0,0,0,3,6.94,31.22,31.22,0,0,0,1.77,3.12,10.47,10.47,0,0,0,2.14,2.47,2.08,2.08,0,0,0,2.22.48A6,6,0,0,0,336,359a35.56,35.56,0,0,0,3.28-5.65c1.9-3.91,3.52-7.77,5.18-11.35,3.28-7.15,6.67-13.3,10.71-17.51a20.71,20.71,0,0,1,6.24-4.63,15,15,0,0,1,5.65-1.39,15.72,15.72,0,0,1,3.59.27,9,9,0,0,1,1.2.26h0a.73.73,0,0,1,.49.88.71.71,0,0,1-.87.49s-.37-.1-1.11-.22a14.44,14.44,0,0,0-3.27-.2,13.47,13.47,0,0,0-5.06,1.32,19.26,19.26,0,0,0-5.69,4.37c-3.74,4-7,10-10.13,17.18-1.6,3.56-3.15,7.43-5,11.47a35.31,35.31,0,0,1-3.46,6.07A7.88,7.88,0,0,1,334.7,363a4,4,0,0,1-2.41.24,5.2,5.2,0,0,1-2.06-1,12.5,12.5,0,0,1-2.67-3,32.09,32.09,0,0,1-1.95-3.35c-1.16-2.29-2.17-4.69-3.13-7.14s-1.81-5-2.72-7.47a65.26,65.26,0,0,0-3.22-7.35,35.21,35.21,0,0,0-4.47-6.74,18.09,18.09,0,0,0-6.31-4.86,14.72,14.72,0,0,0-3.84-1.12,15.62,15.62,0,0,0-4-.06,14.17,14.17,0,0,0-7.36,3.33,30.12,30.12,0,0,0-5.64,6.6,71.24,71.24,0,0,0-4.38,7.93c-1.34,2.77-2.57,5.62-3.79,8.5s-2.37,5.83-3.78,8.75c-.7,1.46-1.45,2.91-2.31,4.33a18.52,18.52,0,0,1-3.2,4.08,6.31,6.31,0,0,1-2.7,1.52,4.46,4.46,0,0,1-3.39-.6,8.34,8.34,0,0,1-2.12-2,19.05,19.05,0,0,1-1.43-2.19,70.42,70.42,0,0,1-3.94-9c-1.14-3-2.22-6.05-3.38-9s-2.35-5.93-3.74-8.75a38.88,38.88,0,0,0-4.9-7.85,13.21,13.21,0,0,0-7-4.73,12.9,12.9,0,0,0-4.26-.07,15.77,15.77,0,0,0-4.19,1.18,23.76,23.76,0,0,0-7.26,5.11,49.5,49.5,0,0,0-5.78,7A172.62,172.62,0,0,0,204.05,351c-1.45,2.66-2.9,5.3-4.57,7.86a26,26,0,0,1-2.87,3.69,10.15,10.15,0,0,1-2,1.61,5.24,5.24,0,0,1-2.78.83,4.9,4.9,0,0,1-2.78-1,8.94,8.94,0,0,1-1.8-1.78,20.71,20.71,0,0,1-2.34-3.92,64.21,64.21,0,0,1-3.08-8c-.86-2.71-1.5-5.35-2.22-7.93s-1.45-5.09-2.3-7.51c-1.7-4.79-3.81-9.38-7.07-12.52a11.54,11.54,0,0,0-5.59-3.07,13.15,13.15,0,0,0-6.17.33,19.45,19.45,0,0,0-2.94,1,12.63,12.63,0,0,0-2.53,1.44,14.64,14.64,0,0,0-3.79,4.18,32.48,32.48,0,0,0-3.69,10c-.72,3.27-1.15,6.34-1.57,9.13-.83,5.56-1.57,10.07-3.34,12.89a5.87,5.87,0,0,1-2.9,2.52,4.71,4.71,0,0,1-1,.27l-.3,0a.71.71,0,0,1-.22-1.4Z" transform="translate(-67.46 -60.96)"/><path d="M106.14,343.37s.06.42.18,1.15a5.41,5.41,0,0,0,.11.59c.06.21.14.43.22.67l.25.76c.11.26.25.52.38.8a9.21,9.21,0,0,0,1,1.71,5.47,5.47,0,0,0,.69.85c.26.27.48.58.78.84a15.43,15.43,0,0,0,1.86,1.5,19.62,19.62,0,0,0,2.13,1.27,19.56,19.56,0,0,0,4.61,1.55,19.76,19.76,0,0,0,2.23.25,13,13,0,0,0,2-.05l.89-.09.79-.16a6.4,6.4,0,0,0,1.27-.34l1.08-.38h0a.11.11,0,0,1,.14.07.12.12,0,0,1-.06.14l-1.08.43a6.89,6.89,0,0,1-1.29.39l-.8.2-.91.1a13.7,13.7,0,0,1-2.06.08,21.14,21.14,0,0,1-2.29-.23,19.75,19.75,0,0,1-2.38-.6,20.7,20.7,0,0,1-2.36-.94,17,17,0,0,1-2.17-1.32,14.69,14.69,0,0,1-1.9-1.57,10.7,10.7,0,0,1-.79-.87,7.1,7.1,0,0,1-.7-.88A11.16,11.16,0,0,1,107,347.5c-.13-.29-.27-.57-.38-.84l-.23-.8c-.08-.25-.14-.49-.21-.7s0-.43-.08-.61l-.14-1.15a.1.1,0,0,1,.09-.12A.11.11,0,0,1,106.14,343.37Z" transform="translate(-67.46 -60.96)"/><path d="M138.8,279.74s0,.2-.06.54-.06.84-.09,1.43a11,11,0,0,0,.13,2,10.52,10.52,0,0,0,.25,1.08,6.59,6.59,0,0,0,.47,1,3,3,0,0,0,.3.48,2.51,2.51,0,0,0,.35.44,5.11,5.11,0,0,0,.82.73,8.09,8.09,0,0,0,.91.49,5,5,0,0,0,.89.31,7,7,0,0,0,.77.18c.24,0,.45.07.62.09l.54.05h0a.11.11,0,0,1,0,.22h-.55a5.42,5.42,0,0,1-.64-.05,5.52,5.52,0,0,1-.82-.13,6.25,6.25,0,0,1-2-.79,5.6,5.6,0,0,1-.91-.79,3.09,3.09,0,0,1-.4-.47,3.61,3.61,0,0,1-.33-.53,5.94,5.94,0,0,1-.49-1.13,8.31,8.31,0,0,1-.25-1.16,9.91,9.91,0,0,1-.06-2.08,12.52,12.52,0,0,1,.19-1.44c.07-.35.1-.54.1-.54a.12.12,0,0,1,.13-.09A.1.1,0,0,1,138.8,279.74Z" transform="translate(-67.46 -60.96)"/><path d="M204.13,289.36s.3,1.33.91,3.25a25.81,25.81,0,0,0,3,6.7A8.38,8.38,0,0,0,210.8,302a4.36,4.36,0,0,0,3.22.44,5.62,5.62,0,0,0,1.26-.46,6.82,6.82,0,0,0,.92-.5c.49-.33.76-.53.76-.53a.1.1,0,0,1,.15,0,.11.11,0,0,1,0,.15s-.27.22-.75.57a8.64,8.64,0,0,1-.93.57,5.34,5.34,0,0,1-1.32.52,4.82,4.82,0,0,1-1.68.14,4.72,4.72,0,0,1-1.81-.57,8.76,8.76,0,0,1-2.92-2.8,26,26,0,0,1-3-6.85c-.29-1-.47-1.81-.6-2.39s-.18-.92-.18-.92a.11.11,0,0,1,.08-.13A.11.11,0,0,1,204.13,289.36Z" transform="translate(-67.46 -60.96)"/><path d="M280.56,313.78l.95.31c.31.05.67.18,1.1.22a6.13,6.13,0,0,0,1.44.05,3.86,3.86,0,0,0,1.59-.47,3.82,3.82,0,0,0,1.35-1.28,9,9,0,0,0,1.26-3.91,30.58,30.58,0,0,0-.21-7.89c-.3-2.15-.62-3.56-.62-3.56a.12.12,0,0,1,.08-.14.11.11,0,0,1,.13.09s.09.35.24,1,.35,1.51.52,2.58a31,31,0,0,1,.33,8,9.32,9.32,0,0,1-1.4,4.09,4.12,4.12,0,0,1-3.24,1.86,5.66,5.66,0,0,1-1.52-.09,10.35,10.35,0,0,1-1.13-.28l-.94-.35a.11.11,0,0,1-.07-.14A.14.14,0,0,1,280.56,313.78Z" transform="translate(-67.46 -60.96)"/><path d="M373.47,323.06s-.17,2.13-.29,5.31a44.31,44.31,0,0,0,.8,11.57,15.88,15.88,0,0,0,1,3,9.83,9.83,0,0,0,1.57,2.55,6.64,6.64,0,0,0,4.64,2.26,10.62,10.62,0,0,0,2.14-.06c.63-.06,1.18-.23,1.63-.3l1.39-.41h0a.11.11,0,0,1,.07.21l-1.4.45c-.46.09-1,.27-1.66.35a9.61,9.61,0,0,1-2.2.12,8.07,8.07,0,0,1-2.56-.61,7.68,7.68,0,0,1-2.36-1.74,10.28,10.28,0,0,1-1.67-2.64,17,17,0,0,1-1-3,33.39,33.39,0,0,1-.75-6.24c-.07-2,0-3.86.05-5.46s.21-2.92.29-3.85.14-1.45.14-1.45a.11.11,0,1,1,.22,0Z" transform="translate(-67.46 -60.96)"/><path d="M172.72,248.28l.48.09c.3.07.74.11,1.25.17a7.72,7.72,0,0,0,.84,0,6.08,6.08,0,0,0,.92-.09,4.67,4.67,0,0,0,.94-.25,6.25,6.25,0,0,0,.89-.46,4.74,4.74,0,0,0,.76-.65,4.44,4.44,0,0,0,.59-.78,5.38,5.38,0,0,0,.44-.81,7.88,7.88,0,0,0,.31-.78,10.06,10.06,0,0,0,.34-1.22c.07-.3.1-.47.1-.47h0a.11.11,0,0,1,.13-.08.1.1,0,0,1,.08.12s0,.18-.06.49a12.07,12.07,0,0,1-.25,1.28c-.09.25-.16.54-.29.83a5.16,5.16,0,0,1-.44.88,4.68,4.68,0,0,1-.63.85,5.35,5.35,0,0,1-.83.74,5.69,5.69,0,0,1-1,.49,4.86,4.86,0,0,1-1,.26,5.76,5.76,0,0,1-1,.07c-.31,0-.61-.05-.88-.06a8.93,8.93,0,0,1-1.27-.27l-.47-.13a.12.12,0,0,1-.08-.14A.11.11,0,0,1,172.72,248.28Z" transform="translate(-67.46 -60.96)"/><path d="M233.14,244.37l.06.29c.05.17.1.45.2.74a6.55,6.55,0,0,0,.39,1,4.41,4.41,0,0,0,.28.52l.35.49a4.83,4.83,0,0,0,.84.85,4.34,4.34,0,0,0,.44.34l.42.26a4.51,4.51,0,0,0,.68.33l.26.12h0a.11.11,0,0,1,.06.15.12.12,0,0,1-.13.06l-.29-.09a4.23,4.23,0,0,1-.75-.26l-.48-.24a3.61,3.61,0,0,1-.49-.34,5.3,5.3,0,0,1-.94-.9l-.37-.55a3.75,3.75,0,0,1-.28-.57,5.26,5.26,0,0,1-.36-1.08,6,6,0,0,1-.1-.77c0-.19,0-.29,0-.29a.11.11,0,0,1,.1-.12A.12.12,0,0,1,233.14,244.37Z" transform="translate(-67.46 -60.96)"/><path d="M302.12,232.66l1.11,1.53c.16.24.34.49.53.75s.41.52.62.81c.44.55.9,1.14,1.36,1.74s1,1.14,1.45,1.67c.23.26.44.54.66.77l.64.66,1.28,1.38h0a.11.11,0,0,1,0,.16.12.12,0,0,1-.15,0l-1.39-1.3a16.51,16.51,0,0,1-1.37-1.39l-1.48-1.66L304,236a17.94,17.94,0,0,1-1.1-1.61c-.6-1-1-1.61-1-1.61a.1.1,0,0,1,0-.15A.11.11,0,0,1,302.12,232.66Z" transform="translate(-67.46 -60.96)"/><path d="M334.46,227.33s.2.26.48.67.68.9,1.06,1.41.84,1,1.2,1.3l.56.59h0a.11.11,0,0,1,0,.16.14.14,0,0,1-.14,0L337,231a6.09,6.09,0,0,1-.64-.56l-.67-.71-.59-.8a5.3,5.3,0,0,1-.43-.73c-.23-.43-.36-.73-.36-.73a.1.1,0,0,1,.05-.15A.12.12,0,0,1,334.46,227.33Z" transform="translate(-67.46 -60.96)"/><path d="M143.75,431.57l-1.9-13.7c-.28-2.05-.59-4.28-.91-6.63s-.61-4.85-.94-7.42c-.64-5.15-1.32-10.64-2-16.13-.53-5.51-1.05-11-1.54-16.18-.22-2.58-.54-5.07-.65-7.45s-.25-4.62-.36-6.69l-.7-13.81a.12.12,0,0,1,.1-.12.11.11,0,0,1,.12.11h0s.34,5.52.84,13.8c.12,2.07.25,4.31.38,6.68s.45,4.86.68,7.45c.5,5.16,1,10.66,1.59,16.16s1.33,11,1.95,16.13c.32,2.57.59,5.06.91,7.42s.61,4.58.88,6.64c1.06,8.23,1.77,13.71,1.77,13.71a.1.1,0,0,1-.1.12A.1.1,0,0,1,143.75,431.57Z" transform="translate(-67.46 -60.96)"/><path d="M374.21,406s.09-3,.22-7.58.38-10.6.6-16.66c.17-3,.35-6.06.51-8.9.09-1.42.13-2.79.26-4.09s.21-2.53.31-3.66c.41-4.53.68-7.55.68-7.55a.11.11,0,0,1,.12-.1.11.11,0,0,1,.1.12l-.55,7.56c-.09,1.13-.18,2.36-.29,3.66s-.14,2.67-.22,4.09c-.15,2.83-.3,5.86-.45,8.89-.26,6.06-.52,12.11-.71,16.66s-.36,7.57-.36,7.57a.11.11,0,0,1-.12.1A.1.1,0,0,1,374.21,406Z" transform="translate(-67.46 -60.96)"/><path class="cls-8" d="M109.85,336.24s.45-.68,1.17-1.66,1.72-2.27,2.76-3.52,2.33-2.31,3.23-3.15,1.52-1.36,1.52-1.36a.24.24,0,0,1,.33,0,.23.23,0,0,1,0,.3h0s-.51.64-1.31,1.56-1.87,2.1-3,3.25-2.11,2.47-2.93,3.37-1.41,1.47-1.41,1.47a.24.24,0,0,1-.34,0A.23.23,0,0,1,109.85,336.24Z" transform="translate(-67.46 -60.96)"/><path class="cls-8" d="M116.8,220.66s0-.17.07-.46c0-.14,0-.32.09-.52a2.18,2.18,0,0,1,.17-.68l.3-.81a4.77,4.77,0,0,1,.43-.84,4.16,4.16,0,0,1,.56-.85c.23-.26.43-.55.68-.8l.78-.7a6.22,6.22,0,0,1,.84-.57,8.45,8.45,0,0,1,1.59-.8,3.48,3.48,0,0,1,.67-.22l.52-.14.46-.11a.23.23,0,0,1,.28.18.22.22,0,0,1-.12.26h0l-.4.21a11.72,11.72,0,0,0-1.06.51l-.68.39a5.21,5.21,0,0,0-.71.48,7.85,7.85,0,0,0-.73.56l-.7.64c-.22.22-.41.47-.62.71a4.68,4.68,0,0,0-.53.73c-.15.26-.35.48-.46.72l-.34.68a10,10,0,0,0-.44,1.11c-.1.28-.17.43-.17.43a.24.24,0,0,1-.3.14A.23.23,0,0,1,116.8,220.66Z" transform="translate(-67.46 -60.96)"/><path class="cls-8" d="M372.74,211.16s.89.1,2.2.32l1.06.18a9.63,9.63,0,0,1,1.18.29c.81.22,1.68.48,2.54.74s1.67.67,2.44,1a8,8,0,0,1,1.1.5l.95.53c1.18.66,1.93,1.13,1.93,1.13a.23.23,0,0,1,.08.32.24.24,0,0,1-.29.1h0s-.83-.32-2-.86l-1-.43c-.34-.17-.73-.27-1.11-.42-.77-.28-1.59-.6-2.41-.92s-1.66-.51-2.44-.77c-.39-.11-.75-.27-1.13-.36l-1-.27c-1.29-.34-2.14-.61-2.14-.61a.24.24,0,0,1,.1-.46Z" transform="translate(-67.46 -60.96)"/><path class="cls-8" d="M390.79,315.84l.65.23a5.1,5.1,0,0,1,.73.32,6.8,6.8,0,0,1,.94.51,9.65,9.65,0,0,1,1,.72,9.92,9.92,0,0,1,1,.94,13.81,13.81,0,0,1,.93,1.18,10.42,10.42,0,0,1,.8,1.33,11.58,11.58,0,0,1,.58,1.43,12,12,0,0,1,.66,4.05c0,.38,0,.73,0,1s-.05.58-.08.8c-.07.44-.1.69-.1.69a.24.24,0,0,1-.47,0v-.69c0-.43,0-1.05-.08-1.77a16.68,16.68,0,0,0-.41-2.45,9.9,9.9,0,0,0-.4-1.32,10.75,10.75,0,0,0-.56-1.31,11.54,11.54,0,0,0-.71-1.23,10.08,10.08,0,0,0-.83-1.09c-.31-.31-.58-.66-.9-.92a13.45,13.45,0,0,0-1.7-1.28,4.07,4.07,0,0,0-.67-.39l-.6-.33a.24.24,0,0,1-.1-.32A.24.24,0,0,1,390.79,315.84Z" transform="translate(-67.46 -60.96)"/><path class="cls-8" d="M214.35,201.15l3.46-.26c2.2-.15,5.34-.43,9.13-.65s8.19-.54,12.92-.73c2.37-.11,4.81-.24,7.3-.29l7.54-.2h7.54c2.49,0,4.94.08,7.31.14s4.66.1,6.83.26l6.11.4,2.71.18,2.44.29,4,.46,3.46.39a.24.24,0,0,1,.2.27.23.23,0,0,1-.25.2h0l-3.46-.31-4-.36-2.44-.22-2.71-.15-6.09-.34c-2.16-.15-4.45-.13-6.81-.2s-4.81-.13-7.29-.08l-7.53,0-7.52.18c-2.48,0-4.92.15-7.29.25l-6.81.27L227,201l-12.61.61a.23.23,0,0,1-.24-.22A.24.24,0,0,1,214.35,201.15Z" transform="translate(-67.46 -60.96)"/><path class="cls-12" d="M242.86,350.06c0,8.28-5.22,15-13.5,15s-14.5-6.72-14.5-15,6.22-15,14.5-15S242.86,341.77,242.86,350.06Z" transform="translate(-67.46 -60.96)"/><path class="cls-12" d="M176.86,350.06c0,8.28-5.22,15-13.5,15s-14.5-6.72-14.5-15,6.22-15,14.5-15S176.86,341.77,176.86,350.06Z" transform="translate(-67.46 -60.96)"/><path class="cls-12" d="M313.36,350.56c0,8.28-5.22,15-13.5,15s-14.5-6.72-14.5-15,6.22-15,14.5-15S313.36,342.27,313.36,350.56Z" transform="translate(-67.46 -60.96)"/><path class="cls-10" d="M163.09,283.08v.33c0,.21,0,.49.05.8a3.87,3.87,0,0,0,.24,1,2,2,0,0,0,.26.47,1.27,1.27,0,0,0,.38.35,1.66,1.66,0,0,0,.48.24,2.64,2.64,0,0,0,.56.11,5.14,5.14,0,0,0,1.1,0c.33,0,.61,0,.81-.07l.31,0h0a.24.24,0,0,1,.26.21.24.24,0,0,1-.13.24l-.31.13a5.8,5.8,0,0,1-.84.28,4.84,4.84,0,0,1-1.28.15,3.66,3.66,0,0,1-.77-.11,3,3,0,0,1-.76-.35,2.25,2.25,0,0,1-.62-.61,2.45,2.45,0,0,1-.35-.73,3.7,3.7,0,0,1-.12-1.32,4.86,4.86,0,0,1,.15-.88c.06-.2.1-.31.1-.31a.24.24,0,0,1,.29-.17A.23.23,0,0,1,163.09,283.08Z" transform="translate(-67.46 -60.96)"/><path class="cls-10" d="M168.55,273.91l.17.15.19.18a2.25,2.25,0,0,0,.24.21,4.6,4.6,0,0,0,.59.36,1.46,1.46,0,0,0,.36.16l.38.11.39.05a1.78,1.78,0,0,0,.4,0,1.58,1.58,0,0,0,.38,0L172,275c.21,0,.39-.1.53-.14l.21,0h0a.24.24,0,0,1,.28.19.27.27,0,0,1-.08.22l-.18.15a3.39,3.39,0,0,1-.54.35,3.62,3.62,0,0,1-.88.3,2.36,2.36,0,0,1-.54.05l-.56-.05-.55-.18a1.69,1.69,0,0,1-.47-.27,2.81,2.81,0,0,1-.7-.67,1,1,0,0,1-.18-.3l-.12-.23-.09-.21a.25.25,0,0,1,.15-.32A.26.26,0,0,1,168.55,273.91Z" transform="translate(-67.46 -60.96)"/><path class="cls-10" d="M165,263.89l.16.09.18.11a1.53,1.53,0,0,0,.21.14,3.13,3.13,0,0,0,.49.2,1.34,1.34,0,0,0,.27.07l.27,0a1.24,1.24,0,0,1,.27,0,2.76,2.76,0,0,0,.27-.08,1,1,0,0,0,.27-.1l.24-.11c.29-.19.52-.32.52-.32h0a.24.24,0,0,1,.32.1.24.24,0,0,1,0,.22l-.09.17a5.18,5.18,0,0,1-.3.43,2.45,2.45,0,0,1-.62.47,1.63,1.63,0,0,1-.43.18l-.49.07a3.85,3.85,0,0,1-.49-.07,2,2,0,0,1-.43-.17,2.59,2.59,0,0,1-.64-.5,3.1,3.1,0,0,1-.27-.41l-.09-.16a.25.25,0,0,1,.13-.33A.26.26,0,0,1,165,263.89Z" transform="translate(-67.46 -60.96)"/><path class="cls-10" d="M242,287.88l.26.17c.16.12.41.25.67.42a2.76,2.76,0,0,0,1.93.51c.58-.15,1.05-.91,1.31-1.47.13-.3.26-.54.32-.72s.12-.28.12-.28v0a.23.23,0,0,1,.32-.11.25.25,0,0,1,.13.23,2.54,2.54,0,0,1,0,.32,4.84,4.84,0,0,1-.64,2,3,3,0,0,1-.51.59,2.42,2.42,0,0,1-.76.41,2.29,2.29,0,0,1-.86.06,2.89,2.89,0,0,1-.74-.22,4.74,4.74,0,0,1-1.06-.69,6.12,6.12,0,0,1-.59-.61l-.2-.25a.25.25,0,0,1,.05-.34A.26.26,0,0,1,242,287.88Z" transform="translate(-67.46 -60.96)"/><path class="cls-10" d="M241.39,273.82a3.59,3.59,0,0,1,.49-.1,2.52,2.52,0,0,0,.48-.06,2.42,2.42,0,0,1,.47-.06c.17,0,.33-.08.49-.1a1.73,1.73,0,0,0,.44-.08,2.32,2.32,0,0,1,.47-.06h.06a.25.25,0,0,1,.25.24.22.22,0,0,1,0,.16,2.5,2.5,0,0,1-.41.37,1.69,1.69,0,0,1-.48.28,3.74,3.74,0,0,1-.62.18,4.9,4.9,0,0,1-.66,0,1.49,1.49,0,0,1-.52-.11,2.34,2.34,0,0,1-.46-.2.26.26,0,0,1,0-.47Z" transform="translate(-67.46 -60.96)"/><path class="cls-10" d="M302.41,267.33l.95,0a4.7,4.7,0,0,0,1.84-.24,2.19,2.19,0,0,0,1.13-1.23c.09-.24.18-.46.22-.62s.07-.24.07-.24v0a.24.24,0,0,1,.31-.14.24.24,0,0,1,.16.19s0,.1,0,.28a3.71,3.71,0,0,1-.05.76,2.92,2.92,0,0,1-.42,1.06,2.44,2.44,0,0,1-.46.51,2.28,2.28,0,0,1-.6.36,3,3,0,0,1-1.28.24,5.09,5.09,0,0,1-1.06-.15,4.18,4.18,0,0,1-.94-.35h0a.24.24,0,0,1-.1-.32A.24.24,0,0,1,302.41,267.33Z" transform="translate(-67.46 -60.96)"/><path class="cls-10" d="M300.91,255.82a4.26,4.26,0,0,1,.47-.06,4.83,4.83,0,0,0,.78-.18,2.11,2.11,0,0,0,.34-.16,1.73,1.73,0,0,0,.32-.2l.33-.26,0,0a.24.24,0,0,1,.35,0,.22.22,0,0,1,.05.17.77.77,0,0,1,0,.15,1.24,1.24,0,0,1-.12.38,1.76,1.76,0,0,1-.35.48,1.85,1.85,0,0,1-.59.37,2,2,0,0,1-.67.09,1.93,1.93,0,0,1-.57-.1,1.35,1.35,0,0,1-.32-.16l-.12-.07v0a.25.25,0,0,1,0-.36A.38.38,0,0,1,300.91,255.82Z" transform="translate(-67.46 -60.96)"/><path class="cls-10" d="M337.45,281.84l.24,0,.28.06a2.17,2.17,0,0,0,.35.07l.36,0a1.8,1.8,0,0,0,.39,0,1.42,1.42,0,0,0,.41-.08,3.12,3.12,0,0,0,.39-.15l.37-.22.33-.29a5.17,5.17,0,0,0,.56-.61c.29-.41.51-.69.51-.69h0a.24.24,0,0,1,.42.2s0,.09-.07.24a5,5,0,0,1-.22.66,5.24,5.24,0,0,1-.53.85c-.13.13-.26.29-.41.42l-.53.34a3,3,0,0,1-.6.21,1.82,1.82,0,0,1-.61.07,1.75,1.75,0,0,1-.56-.06l-.49-.15a1,1,0,0,1-.34-.17l-.24-.15-.21-.14a.24.24,0,0,1,0-.34A.24.24,0,0,1,337.45,281.84Z" transform="translate(-67.46 -60.96)"/><path class="cls-10" d="M339.3,265.83l.11-.09.29-.18c.18-.14.42-.34.62-.53a6,6,0,0,0,.54-.66l.27-.37h0a.26.26,0,0,1,.36,0,.26.26,0,0,1,.09.16.79.79,0,0,1,0,.14,1.9,1.9,0,0,1,0,.39,1.85,1.85,0,0,1-.17.54,2.65,2.65,0,0,1-.37.55l-.27.22a1.12,1.12,0,0,1-.28.16,1.91,1.91,0,0,1-.56.18,1.6,1.6,0,0,1-.37,0l-.14,0a.26.26,0,0,1-.2-.31A.22.22,0,0,1,339.3,265.83Z" transform="translate(-67.46 -60.96)"/><path class="cls-10" d="M355.83,249.82a3.09,3.09,0,0,1,.47-.22c.14,0,.32-.11.47-.17a4.2,4.2,0,0,1,.5-.17l.51-.17a3.71,3.71,0,0,0,.46-.13,3,3,0,0,1,.49-.1h0a.26.26,0,0,1,.27.22.23.23,0,0,1-.05.18,4.31,4.31,0,0,1-.38.39,3.56,3.56,0,0,1-1,.57,5.27,5.27,0,0,1-.64.14,1.91,1.91,0,0,1-.53,0,3.15,3.15,0,0,1-.51-.07.27.27,0,0,1-.19-.32A.26.26,0,0,1,355.83,249.82Z" transform="translate(-67.46 -60.96)"/><path class="cls-10" d="M159.1,386.55l.06.23c0,.07,0,.16.05.27s0,.23.07.33l.13.33a1,1,0,0,0,.16.33c.08.11.11.25.21.33s.17.19.27.27l.34.22c.12.06.25.1.38.15a6,6,0,0,0,.75.2c.47.05.81.11.81.11h0a.24.24,0,0,1,.19.28.26.26,0,0,1-.16.18l-.24.06a4.72,4.72,0,0,1-.66.12,3.73,3.73,0,0,1-1-.06,3.8,3.8,0,0,1-.55-.16l-.54-.32A6.17,6.17,0,0,1,159,389a1.93,1.93,0,0,1-.28-.53,1.28,1.28,0,0,1-.15-.53q0-.26-.06-.48a1.94,1.94,0,0,1,0-.36c0-.1,0-.19,0-.27s0-.24,0-.24a.26.26,0,0,1,.3-.18A.28.28,0,0,1,159.1,386.55Z" transform="translate(-67.46 -60.96)"/><path class="cls-10" d="M169.6,391.54a2.83,2.83,0,0,1,.17.38c0,.07.09.16.15.24a1.16,1.16,0,0,0,.16.21,1.45,1.45,0,0,0,.18.16,1.23,1.23,0,0,0,.25.14,3.43,3.43,0,0,1,.33.15l0,0a.25.25,0,0,1,.11.35.24.24,0,0,1-.1.1l-.11,0a2.25,2.25,0,0,1-.33.1,1.46,1.46,0,0,1-.53-.05,1.19,1.19,0,0,1-.29-.12,2.78,2.78,0,0,1-.27-.21,1.34,1.34,0,0,1-.31-.57,1.6,1.6,0,0,1,0-.52,1.16,1.16,0,0,1,.08-.29.37.37,0,0,1,0-.11v0a.27.27,0,0,1,.36-.11A.36.36,0,0,1,169.6,391.54Z" transform="translate(-67.46 -60.96)"/><path class="cls-10" d="M152.09,393.59a5.82,5.82,0,0,1,0,.72c0,.2.05.4.06.62a1.83,1.83,0,0,1,.07.32c0,.13.09.19.12.28a.53.53,0,0,0,.14.23.41.41,0,0,0,.19.18c.08,0,.13.12.23.14l.26.1c.08,0,.18,0,.25.05l.2,0,.18.05,0,0a.24.24,0,0,1,.16.3.28.28,0,0,1-.15.15l-.21.06-.24,0a1,1,0,0,1-.32,0,2,2,0,0,1-.87-.19,1.11,1.11,0,0,1-.44-.31,1.45,1.45,0,0,1-.33-.46,1.74,1.74,0,0,1-.17-.5,4.12,4.12,0,0,1-.05-.48,5.42,5.42,0,0,1,.1-.81,5.94,5.94,0,0,1,.27-.67.24.24,0,0,1,.33-.12A.28.28,0,0,1,152.09,393.59Z" transform="translate(-67.46 -60.96)"/><path class="cls-10" d="M259.5,399.86l.21.1.54.24a6,6,0,0,0,.72.25,2.79,2.79,0,0,0,.38.07,1.42,1.42,0,0,0,.36,0,1.56,1.56,0,0,0,1-.82c.1-.2.22-.36.27-.49l.11-.2h0a.24.24,0,0,1,.33-.08.25.25,0,0,1,.12.2,3.28,3.28,0,0,1-.14.89,2.66,2.66,0,0,1-.48.88,1.62,1.62,0,0,1-.49.4,1.7,1.7,0,0,1-.62.22,2.19,2.19,0,0,1-1.19-.17,3.47,3.47,0,0,1-.82-.47,3.54,3.54,0,0,1-.47-.44l-.16-.17a.26.26,0,0,1,0-.35A.29.29,0,0,1,259.5,399.86Z" transform="translate(-67.46 -60.96)"/><path class="cls-10" d="M257.92,390.33a1.44,1.44,0,0,1,.39-.05,2.72,2.72,0,0,1,.3,0,3.11,3.11,0,0,0,.32,0c.11,0,.18,0,.26,0s.15,0,.2-.06a.67.67,0,0,0,.17-.08l.08,0,.09-.05a.25.25,0,0,1,.33.11.29.29,0,0,1,0,.09.45.45,0,0,1,0,.13.73.73,0,0,1-.11.35,1.25,1.25,0,0,1-.37.4,1.37,1.37,0,0,1-.55.18,1.49,1.49,0,0,1-.52,0,2.89,2.89,0,0,1-.42-.15,2,2,0,0,1-.31-.24.28.28,0,0,1,0-.39A.34.34,0,0,1,257.92,390.33Z" transform="translate(-67.46 -60.96)"/><path class="cls-10" d="M230.08,389.47a3.35,3.35,0,0,1,.3.33c.16.14.34.36.53.51,0,.05.1.07.14.11l.14.1a2.09,2.09,0,0,0,.29.16l.35.14h0a.25.25,0,0,1,.14.33.24.24,0,0,1-.11.13l-.13.06a1.66,1.66,0,0,1-.37.09,1.57,1.57,0,0,1-.55-.06,1,1,0,0,1-.3-.13,1,1,0,0,1-.27-.18,1.59,1.59,0,0,1-.4-.47,2.48,2.48,0,0,1-.2-.5,1.47,1.47,0,0,1,0-.33v-.15a.26.26,0,0,1,.29-.22A.21.21,0,0,1,230.08,389.47Z" transform="translate(-67.46 -60.96)"/><path class="cls-10" d="M329,388.85l.22.08.25.09c.1,0,.21.09.32.12a4.46,4.46,0,0,0,.69.13,2.54,2.54,0,0,0,.39,0l.39,0,.37-.14c.13,0,.23-.13.35-.18a1.58,1.58,0,0,0,.33-.22l.28-.22c.1-.07.16-.16.24-.22l.18-.17a1.52,1.52,0,0,1,.17-.15l0,0a.23.23,0,0,1,.33,0,.22.22,0,0,1,0,.23s0,.08-.1.22l-.12.26a1.53,1.53,0,0,1-.19.31,3,3,0,0,1-.65.7,1.92,1.92,0,0,1-.47.31c-.18.07-.36.16-.55.22l-.6.06a2.12,2.12,0,0,1-.57-.07,1.24,1.24,0,0,1-.5-.17l-.43-.21a4.82,4.82,0,0,1-.47-.39l-.17-.16a.25.25,0,0,1,0-.35A.24.24,0,0,1,329,388.85Z" transform="translate(-67.46 -60.96)"/><path class="cls-10" d="M338.89,394.32l.15,0,.37-.06c.26-.06.62-.13.94-.23.16-.06.33-.11.47-.18a2.76,2.76,0,0,0,.42-.19l.44-.23h0a.26.26,0,0,1,.34.12.28.28,0,0,1,0,.2l-.07.14a1.61,1.61,0,0,1-.23.36,2,2,0,0,1-.45.42,2.56,2.56,0,0,1-.64.32,2.42,2.42,0,0,1-.69.11,2.86,2.86,0,0,1-.62-.07,1.9,1.9,0,0,1-.37-.13l-.14-.07a.26.26,0,0,1,.06-.47Z" transform="translate(-67.46 -60.96)"/><path class="cls-10" d="M344,385.35a2.88,2.88,0,0,1,.55.12c.15,0,.31,0,.46.06h.22c.07,0,.12,0,.18,0s.08-.05.14-.06.08-.08.13-.11.16-.24.24-.34c.12-.26.24-.46.24-.46l0,0a.23.23,0,0,1,.33-.08.25.25,0,0,1,.12.16,3.59,3.59,0,0,1,0,.62,1.82,1.82,0,0,1-.23.68c-.09.11-.14.26-.3.34a1.36,1.36,0,0,1-.44.24,1.88,1.88,0,0,1-.47.05c-.14,0-.27,0-.4-.06a3.27,3.27,0,0,1-.62-.3,4.6,4.6,0,0,1-.42-.38.26.26,0,0,1,0-.36A.25.25,0,0,1,344,385.35Z" transform="translate(-67.46 -60.96)"/><path class="cls-10" d="M362.56,385.44a2.31,2.31,0,0,1,.38.34,3,3,0,0,0,.3.19,1.19,1.19,0,0,0,.31.14,1.24,1.24,0,0,0,.33,0,1.69,1.69,0,0,0,.39-.08,3.73,3.73,0,0,1,.44-.14h0a.26.26,0,0,1,.31.19.32.32,0,0,1,0,.17l-.09.13a1.92,1.92,0,0,1-.26.31,1.94,1.94,0,0,1-.52.33,2,2,0,0,1-.37.1h-.43l-.39-.15a1.83,1.83,0,0,1-.31-.24,1.89,1.89,0,0,1-.37-.53,2.25,2.25,0,0,1-.12-.49h0a.24.24,0,0,1,.23-.28A.22.22,0,0,1,362.56,385.44Z" transform="translate(-67.46 -60.96)"/><path class="cls-10" d="M291.47,408.85a.72.72,0,0,1,.17,0l.41.1a7.74,7.74,0,0,0,1.07.12,5.3,5.3,0,0,0,.57,0c.09,0,.18,0,.26,0l.25-.05a3.09,3.09,0,0,0,.37-.1l.16,0h0a.23.23,0,0,1,.27.2.25.25,0,0,1-.05.19l-.12.13a1.74,1.74,0,0,1-.36.31,2.56,2.56,0,0,1-.62.29,2.83,2.83,0,0,1-.78.12l-.41,0a2.24,2.24,0,0,1-.37-.1,2.38,2.38,0,0,1-.62-.29,1.55,1.55,0,0,1-.34-.29l-.12-.12a.25.25,0,0,1,0-.36A.27.27,0,0,1,291.47,408.85Z" transform="translate(-67.46 -60.96)"/></g></g></svg>