<svg xmlns="http://www.w3.org/2000/svg" xmlns:xlink="http://www.w3.org/1999/xlink" viewBox="0 0 249.46 310.29"><defs><style>.cls-1{isolation:isolate;}.cls-2{mix-blend-mode:multiply;fill:url(#radial-gradient);}.cls-3{fill:url(#radial-gradient-2);}.cls-4{fill:url(#linear-gradient);}.cls-5{fill:url(#linear-gradient-2);}.cls-6{fill:url(#linear-gradient-3);}.cls-7{fill:url(#linear-gradient-4);}.cls-8{opacity:0.2;}.cls-9{fill:url(#linear-gradient-5);}.cls-10{fill:url(#linear-gradient-6);}.cls-11{fill:url(#linear-gradient-7);}.cls-12{fill:url(#radial-gradient-3);}.cls-13{fill:url(#radial-gradient-4);}.cls-14{fill:url(#radial-gradient-5);}.cls-15{fill:url(#radial-gradient-6);}.cls-16{fill:url(#radial-gradient-7);}.cls-17{fill:url(#radial-gradient-8);}.cls-18{fill:url(#radial-gradient-9);}.cls-19{fill:#b4349d;}.cls-20{fill:#e51a4f;}.cls-21{fill:#d3114d;}.cls-22{fill:#ff3e6a;}.cls-23{fill:#ff80a1;}.cls-24{fill:#dd76cf;}.cls-25{fill:#e2ace1;}.cls-26{fill:#fcdefa;}.cls-27{fill:#fff5fe;}.cls-28{fill:#fffafe;}.cls-29{fill:#2c8cff;}.cls-30{fill:#92c8fc;}.cls-31{fill:#ff7935;}.cls-32,.cls-33{fill:#ffa98d;}.cls-32,.cls-36,.cls-41,.cls-48,.cls-79{opacity:0.5;}.cls-34{fill:#ff4d36;}.cls-35{fill:#ff357a;}.cls-36,.cls-37{fill:#ff8dcd;}.cls-38{fill:url(#linear-gradient-8);}.cls-39{fill:#bef3e6;}.cls-40{fill:#355eff;}.cls-41,.cls-42{fill:#8dbaff;}.cls-43{fill:#234fdb;}.cls-44{fill:url(#radial-gradient-10);}.cls-45,.cls-48{fill:#fff;}.cls-45{opacity:0.4;mix-blend-mode:overlay;}.cls-46{fill:#f5d1f7;}.cls-47{fill:#ffc635;}.cls-49{opacity:0.1;fill:url(#linear-gradient-9);}.cls-50{fill:#180a19;}.cls-51{fill:#1290dd;}.cls-52{fill:#0a87c6;}.cls-53{fill:#30c0fd;}.cls-54{fill:#5fd6ff;}.cls-55{fill:#dd4b12;}.cls-56{fill:#c63c0a;}.cls-57{fill:#fd6330;}.cls-58{fill:#ff845f;}.cls-59{fill:#dd1292;}.cls-60{fill:#c60a87;}.cls-61{fill:#fd30c1;}.cls-62{fill:#ff5fd7;}.cls-63{fill:#12dd7d;}.cls-64{fill:#0ac666;}.cls-65{fill:#30fd8b;}.cls-66{fill:#5fff9f;}.cls-67{fill:#1297dd;}.cls-68{fill:#0a8cc6;}.cls-69{fill:#30c8fd;}.cls-70{fill:#5fdcff;}.cls-71{fill:#c054dd;}.cls-72{fill:#a645c6;}.cls-73{fill:#d77bfd;}.cls-74{fill:#e3abff;}.cls-75{fill:#ddb41f;}.cls-76{fill:#c69e15;}.cls-77{fill:#fdd03f;}.cls-78{fill:#ffdb6e;}.cls-79,.cls-80{fill:#ffd78d;}.cls-81{fill:#ffa536;}</style><radialGradient id="radial-gradient" cx="209.9" cy="457.97" r="61.66" gradientTransform="translate(-250.89 60.24) scale(1.77 0.48)" gradientUnits="userSpaceOnUse"><stop offset="0.36"/><stop offset="0.43" stop-color="#050505"/><stop offset="0.51" stop-color="#121212"/><stop offset="0.59" stop-color="#292929"/><stop offset="0.68" stop-color="#494949"/><stop offset="0.77" stop-color="#727272"/><stop offset="0.86" stop-color="#a5a5a5"/><stop offset="0.95" stop-color="#dfdfdf"/><stop offset="1" stop-color="#fff"/></radialGradient><radialGradient id="radial-gradient-2" cx="134.6" cy="299.26" r="228.49" gradientUnits="userSpaceOnUse"><stop offset="0" stop-color="#d4b18e"/><stop offset="1" stop-color="#d7a763"/></radialGradient><linearGradient id="linear-gradient" x1="169.65" y1="299.43" x2="286.32" y2="310.69" gradientUnits="userSpaceOnUse"><stop offset="0" stop-color="#8e5d3f"/><stop offset="1" stop-color="#552f1c"/></linearGradient><linearGradient id="linear-gradient-2" x1="113.89" y1="292.94" x2="360.16" y2="292.94" gradientUnits="userSpaceOnUse"><stop offset="0" stop-color="#fff5fe"/><stop offset="1" stop-color="#fdccfc"/></linearGradient><linearGradient id="linear-gradient-3" x1="175.11" y1="335.71" x2="275.91" y2="345.95" xlink:href="#linear-gradient"/><linearGradient id="linear-gradient-4" x1="120.34" y1="331.82" x2="327.03" y2="331.82" xlink:href="#linear-gradient-2"/><linearGradient id="linear-gradient-5" x1="113.08" y1="236.34" x2="325" y2="310.16" gradientUnits="userSpaceOnUse"><stop offset="0" stop-color="#3d150b"/><stop offset="1" stop-color="#340d07"/></linearGradient><linearGradient id="linear-gradient-6" x1="221.84" y1="253.6" x2="243.18" y2="253.6" gradientUnits="userSpaceOnUse"><stop offset="0.1" stop-color="#dd76cf"/><stop offset="1" stop-color="#ca51ba"/></linearGradient><linearGradient id="linear-gradient-7" x1="125.37" y1="277.85" x2="328.71" y2="277.85" gradientUnits="userSpaceOnUse"><stop offset="0.21" stop-color="#c657b8"/><stop offset="0.3" stop-color="#b4349d"/></linearGradient><radialGradient id="radial-gradient-3" cx="94.39" cy="32.75" r="289.01" gradientTransform="translate(-319.83 -203.06) scale(1.92)" gradientUnits="userSpaceOnUse"><stop offset="0.75" stop-color="#f6d4f8"/><stop offset="0.83" stop-color="#f5d2f7"/><stop offset="0.88" stop-color="#f4caf4"/><stop offset="0.92" stop-color="#f1bcee"/><stop offset="0.95" stop-color="#eca9e5"/><stop offset="0.98" stop-color="#e790db"/><stop offset="1" stop-color="#e37ed3"/></radialGradient><radialGradient id="radial-gradient-4" cx="257.1" cy="-15.31" r="259.69" gradientTransform="translate(-271.42 -192.26) scale(1.89 1.8)" gradientUnits="userSpaceOnUse"><stop offset="0.87" stop-color="#f8abef"/><stop offset="0.91" stop-color="#f6a6ec"/><stop offset="0.95" stop-color="#f099e4"/><stop offset="0.99" stop-color="#e583d6"/><stop offset="1" stop-color="#e37ed3"/></radialGradient><radialGradient id="radial-gradient-5" cx="313.69" cy="263.44" r="34.38" gradientUnits="userSpaceOnUse"><stop offset="0.54" stop-color="#ca51ba"/><stop offset="0.68" stop-color="#cd57be"/><stop offset="0.89" stop-color="#d669c8"/><stop offset="1" stop-color="#dd76cf"/></radialGradient><radialGradient id="radial-gradient-6" cx="285.55" cy="264.47" r="27.12" gradientUnits="userSpaceOnUse"><stop offset="0.65" stop-color="#ca51ba"/><stop offset="0.76" stop-color="#cd57be"/><stop offset="0.91" stop-color="#d669c8"/><stop offset="1" stop-color="#dd76cf"/></radialGradient><radialGradient id="radial-gradient-7" cx="150.97" cy="261.4" r="33.81" gradientUnits="userSpaceOnUse"><stop offset="0.54" stop-color="#dd76cf"/><stop offset="0.65" stop-color="#e07cd3"/><stop offset="0.81" stop-color="#e98edd"/><stop offset="1" stop-color="#f8abef"/><stop offset="1" stop-color="#f8abef"/></radialGradient><radialGradient id="radial-gradient-8" cx="208.79" cy="259.86" r="45.26" xlink:href="#radial-gradient-7"/><radialGradient id="radial-gradient-9" cx="166.32" cy="227.11" r="39.05" gradientUnits="userSpaceOnUse"><stop offset="0.72" stop-color="#dd76cf"/><stop offset="0.79" stop-color="#e07cd3"/><stop offset="0.89" stop-color="#e98edd"/><stop offset="1" stop-color="#f8abef"/><stop offset="1" stop-color="#f8abef"/></radialGradient><linearGradient id="linear-gradient-8" x1="297.06" y1="182.67" x2="310.22" y2="182.67" gradientTransform="matrix(0.99, 0.14, -0.14, 0.99, 30.35, -41.03)" gradientUnits="userSpaceOnUse"><stop offset="0.21" stop-color="#57c6b5"/><stop offset="0.3" stop-color="#34b4a7"/></linearGradient><radialGradient id="radial-gradient-10" cx="225.67" cy="87.77" r="22" gradientUnits="userSpaceOnUse"><stop offset="0.21" stop-color="#ffc635"/><stop offset="0.55" stop-color="#ff7935"/></radialGradient><linearGradient id="linear-gradient-9" x1="230.42" y1="158.9" x2="233.92" y2="158.9" xlink:href="#linear-gradient-5"/></defs><title>cake</title><g class="cls-1"><g id="layer"><ellipse class="cls-2" cx="121.43" cy="280.62" rx="109.38" ry="29.67"/><path class="cls-3" d="M319.5,345.4c-2.06,11.3-47.19,24.09-97.77,24.09s-92.09-12.79-94.14-24.09c-.53-2.93-20.84-88.36-20-103.36,3.66-19.33,67.25-9.31,113.84-9.31,48.34,0,114.05-15,118.14,10.26C341.23,253.5,320,342.8,319.5,345.4Z" transform="translate(-101.05 -66.1)"/><path class="cls-4" d="M221.51,324.76c5.7-.25,11.4-.53,17.15-.51,6.69,0,13.5.14,20.18-1.23,4.71-1,9.55-2.92,14.31-3.49,3.33-.41,6.8,0,10.13-.8,2.08-.5,3.79-1.4,5.94-1.64,6.18-.7,12.23-2.31,18.42-3.81,6-1.45,13.9-3.89,19.23-8.34a8.08,8.08,0,0,0,3-4.82c.21-.68,1.38-8,1.47-8-19.47,8.07-57.59,14.78-109.91,14.78-51.92,0-94.46-3.26-106.32-16.12.9,1,1.83,8.34,2.59,9.85,1.17,2.34,3.8,3.65,5.9,5.06a61.19,61.19,0,0,0,19.91,8.42c4.87,1.17,9.44,3.22,14.16,4.87,5,1.74,9.8,1.93,14.83,2.34,4.88.39,9.56,1.75,14.37,2.62,5,.9,10,.83,15,1.07C208.47,325.29,215,325.05,221.51,324.76Z" transform="translate(-101.05 -66.1)"/><path class="cls-5" d="M221.46,315.38c10.47.08,20.9,1.3,31.39.46,9.12-.73,18.45-3.14,27.56-5.61,4.84-1.31,9.78-.84,14.6-2.05,6.76-1.69,13.6-3.21,20.35-5.82,3.41-1.31,14.59-5.79,16-10.28a105,105,0,0,0,4.26-21c-4,4.37-8.1,5.44-12.53,8-4.74,2.77-8.38,6.56-13.5,8.2a203,203,0,0,1-36.88,7.62c-7.51.91-14.9,1.76-22.28,2.45-5,.47-9.73,1.86-14.72,2.44-2.67.32-5.29-.53-7.94-.63-8.62-.34-17.18-.14-25.82-.62-7.21-.39-14.23-2.44-21.47-3.14-5.87-.58-11.59-3.75-17.35-3.88-3.93-.1-8,.48-11.94-.61-4.26-1.17-7.95-3.86-12-6-4.29-2.3-8.66-3-13.06-4.12-1.86-.49-14.68-8.26-14.78-11,.24,6.32,1,18.69,5.73,23.89,4.38,4.85,11.1,6.4,16.29,8.58a175.77,175.77,0,0,0,19.5,7c8.23,2.41,15.7,2.78,23.9,3.31,10.12.66,20,2.78,30.09,2.79C211.75,315.29,216.61,315.35,221.46,315.38Z" transform="translate(-101.05 -66.1)"/><path class="cls-6" d="M221.78,359.07c5.31-.22,10.63-.47,16-.46,6.23,0,12.58.13,18.8-1.07,4.38-.85,8.89-2.55,13.32-3.05,3.1-.36,6.33,0,9.42-.7,1.94-.44,3.53-1.22,5.53-1.43A147.52,147.52,0,0,0,302,349c5.54-1.26,12.9-3.39,17.8-7.27.15-.12,2.54-6.4,2-4.82-.18.59,1.61-7.36,1.69-7.39-18,7-53.08,13.88-101.74,13.88-48.28,0-86.62-.83-97.42-11.93.83.85.35,5.16,1,6.47,1.06,2,3.49,3.18,5.43,4.41a58.44,58.44,0,0,0,18.43,7.34c4.52,1,8.76,2.81,13.15,4.25,4.64,1.52,9.11,1.69,13.79,2s8.9,1.53,13.38,2.29c4.63.78,9.31.73,13.95.94C209.63,359.52,215.7,359.32,221.78,359.07Z" transform="translate(-101.05 -66.1)"/><path class="cls-7" d="M221.74,350.87c9.74.06,19.46,1.13,29.23.4,8.49-.64,17.16-2.74,25.62-4.9,4.49-1.14,9.09-.73,13.57-1.79,6.27-1.47,12.62-2.8,18.87-5.06,3.15-1.14,13.19-6.06,14.45-10A77.4,77.4,0,0,0,327,312.11c-3.65,3.78-7,5-11.06,7.19-4.37,2.4-7.71,5.69-12.44,7.11A198.89,198.89,0,0,1,269.35,333c-7,.79-13.83,1.53-20.68,2.13-4.66.4-9,1.61-13.67,2.12-2.48.28-4.91-.46-7.38-.55-8-.29-16-.12-24-.53-6.7-.35-13.21-2.12-19.93-2.74-5.45-.5-10.74-3.25-16.08-3.37-3.65-.08-7.4.42-11.08-.53-3.95-1-7.35-3.34-11.09-5.23-4-2-8-2.56-12.07-3.56-1.72-.42-13-5.6-13-7.95.14,5.43.2,14.61,4.49,19.12,4,4.22,10.24,5.57,15,7.47a174.17,174.17,0,0,0,18.06,6.07c7.65,2.09,14.6,2.42,22.23,2.88,9.4.58,18.6,2.43,28,2.44C212.7,350.79,217.23,350.84,221.74,350.87Z" transform="translate(-101.05 -66.1)"/><g class="cls-8"><path class="cls-9" d="M329.41,291.89a2.92,2.92,0,0,0,2.56-1.75c1.51-6.31,3.08-21.06,4.19-26.15.75-3.42,1.54-6.87,2.19-10.37.3-1.59,2.4-9.29,1.45-10.32-.8-.87-2.13-1-3-1.81-3.12-2.81-9.6-3.36-13.91-4.68-18-5.54-36.74-6.93-56.32-8.77-3.59-.33-7.17-.61-10.76-.83-11.4.69-22.82,1.27-33.49,1.27-11.12,0-23.14-.46-35.08-.94q-17,1.1-33.72,3.08a127.85,127.85,0,0,0-23.64,5.2c-4.57,1.43-16.28,3.46-18.68,6.9a9.44,9.44,0,0,0-1.52,4.2c.92,7.39,7.25,49.37,8.89,55.81.68,2.7.79,6,1.95,8.54,1.25,2.75,3.53,2.15,4.25-.09.88-2.73.15-7.6-.33-10.64-.25-1.53-7-43.82-4.54-44.26,1.74-.33,4,6.32,5.94,7.33,3.14,1.63,4.64,1.26,7.74,3.18,5.9,3.66,7.07,44,20,38.42,3.49-1.51,4.42-6.6,5.12-10.21.53-2.76.36-26.47,4.08-25.33,2.21.68,2.2,2.83,4,4.05,6.28,4.17,12.15-1.78,15.35-6.59,1.32-2,2.31-4.69,5-4.71,5.36,0,7.83,5.78,10.19,9.89,2.89,5,4,19.92,4.28,25.29s.92,11.82,5.33,15.27c3.83,3,11.41,4,14.69-.19,4.15-5.29,1.93-14.6,2-21.08,0-2.62-.55-5.83,2.37-7.14,2.55-1.15,4.93.79,6,3.12.84,1.77.95,4,3.08,4.56,7.08,1.85,7.78-21.94,16.53-15.22,3,2.33,4.53,3.6,8.27,1.19,3.09-2,6.32-15.19,10.08-15.93,10.46-2.05,4.16,36.89,13,37.44,4.11.25,8.16-6.71,10.94-2.16,2.11,3.46,3.48,7.77,6,11a8.17,8.17,0,0,0,9.45,3c6.89-2.4,7.89-11.78,7.36-17.35a57.45,57.45,0,0,1,1.07-12.81c1.24-5.54,3.63-17.54,6-16.23,3.44,1.9,5.21-1.77,6.9-4.63,2.11-3.55,3.14-.68,2.36,2.29-1,3.77-4.19,18.26-5,22.06C327.65,286.71,326.63,291.4,329.41,291.89Z" transform="translate(-101.05 -66.1)"/></g><path class="cls-10" d="M348.47,218.73c4,7.06,1.56,17.4-3,28.15-1.61,6.29-10,24.88-9.21,30.68.3,2.13,1.93,5.51.18,7.75a3.29,3.29,0,0,1-5.23.15c-2.78-3.57,7.46-34.76,1.76-34.86-2.91-.06-2.68,3.63-3.17,5.53s-1.29,5.4-3.83,5.48-1.9-3.13-2.4-5.09c-2.14-8.51-6.76,20.71-7.35,24.63-.93,6.21.51,13.65-2.49,19.31-2.82,5.32-7.75,7.56-12.36,4.5a10.47,10.47,0,0,1-4.22-6c-.6-2-.6-6.21-2.54-7.47-2.52-1.63-5.28,1-7.78,2-10.68,4.25-7.25-7.28-7.68-13.6s-5.11-27.52-10.44-24.87c-5.64,2.8-9.41,21-16.42,19.25-2.35-.59-4.6-3.53-7.33-2.72-5.35,1.58-2.22,12-8.88,12.06-5,.07-7.24-15.79-12.43-6.27-2.08,3.83-.71,8.84-.43,12.84.35,5,.61,11.15-1.36,15.7-3.78,8.72-13.52,5.67-17.87-.92-5.56-8.41.88-30.46-6.4-39.57-3.48-4.35-7.63-10-13.54-8.51-4.21,1.08-6.36,5.52-10.06,7.42-4.87,2.5-8.3-1-13.08-.67-3.22.23-4.44,24.92-4.76,27.6-.58,4.85-1.3,15-9.35,9.94-6.14-3.84-3.72-35.94-10.66-39.58-3.13-1.63-6.58,1.26-9.69-1.31-2.91-2.4-2.34-7.65-5.64-9.9-6.69-4.58.17,44.25.51,47.11s3,18-3.94,11.69c-2.57-2.33-1.54-5.59-1.09-8.16,2.06-11.84-24-71.06-12.17-84.34,6.4-7,17.3-4.9,22-7a99.8,99.8,0,0,1,24.38-7.5A447.8,447.8,0,0,1,223,196a349.52,349.52,0,0,1,45.33,2.44c20.36,2.67,39.85,4.67,58.31,12.66,4.41,1.91,11.1,2.69,14.18,6.72C342,219.28,348,216.32,348.47,218.73Z" transform="translate(-101.05 -66.1)"/><path class="cls-11" d="M334.22,282.24a3.65,3.65,0,0,1-1.83-2.26c-.32-2.21,1.31-16.05,2-18.3,1.13-3.82,4-11.06,1.12-14-5.29-5.42-5.94,9.93-8.85,8.13-2.51-1.55-3.23-11.8-8-4.42-3.26,5-4.77,30.69-4.92,35.74-.1,3.85-.95,10.44-5.34,12.13a8.28,8.28,0,0,1-7.47-1.17c-3.38-2.91-2.29-8-3.45-12.06-1.8-6.29-5.56,3.75-9.18,4.63-5.35,1.31-5.77-4.51-6.53-8.11-1.05-5-4.25-36.66-11.45-34.31-7,2.29-11.24,27.82-19.45,21.6-4-3-7.41-2.84-9.82,2.28-1.25,2.65-4,10.83-7.88,6.56-2.59-2.87-.51-9.23-3.56-11.65-8.9-7.05-7.62,21.85-7.7,24-.14,3.84-.47,9.6-4.44,11.27-5.77,2.43-10.59-3.12-12-8.22-2.11-7.7-4-25.42-5.42-33.83a13.54,13.54,0,0,0-4.94-8.89c-4.91-4-10.64-.42-13.82,3.72-3,4-5.83,7.72-11.1,7.84-3.87.08-6.77-3.41-8.59-6.73-1.07-1.95-1.75-4.11-3.81-2.75-1.52,1-.8,4.08-1.22,5.83-1,4-1.46,30.17-3.22,33.53-2.48,4.71-7.62,3.92-9.66-1.47-1.09-2.86-1.8-27.08-3-30.09-2.84-7.18-9.09.55-13-3.28-2.13-2.11-2.53-5.64-3.8-8.3s-3.67-5.9-6.61-5.06c-5.85,1.65,4.31,53.71,3.71,57.74-.21,1.34-.36,4.05-1.08,5.12-.38.57-2.63,1.82-3.4.67a5.31,5.31,0,0,0,.84,1c6.9,6.28,4.29-8.78,3.94-11.69s-7.2-51.69-.51-47.11c3.3,2.25,2.73,7.5,5.64,9.9,3.11,2.57,6.56-.32,9.69,1.31,6.94,3.64,4.52,35.74,10.66,39.58,8.05,5,8.77-5.09,9.35-9.94.32-2.68,1.54-27.37,4.76-27.6,4.78-.33,8.21,3.17,13.08.67,3.7-1.9,5.85-6.34,10.06-7.42,5.91-1.51,10.06,4.16,13.54,8.51,7.28,9.11.84,31.16,6.4,39.57,4.35,6.59,14.09,9.64,17.87.92,2-4.55,1.71-10.68,1.36-15.7-.28-4-1.65-9,.43-12.84,5.19-9.52,7.39,6.34,12.43,6.27,6.66-.1,3.53-10.48,8.88-12.06,2.73-.81,5,2.13,7.33,2.72,7,1.75,10.78-16.45,16.42-19.25,5.33-2.65,10,18.61,10.44,24.87.45,6.61-3,17.83,7.68,13.6,2.5-1,5.26-3.61,7.78-2,1.94,1.26,1.94,5.45,2.54,7.47a10.47,10.47,0,0,0,4.22,6c4.61,3.06,9.54.82,12.36-4.5,3-5.66,1.56-13.1,2.49-19.31.59-3.92,5.21-33.14,7.35-24.63.5,2-.21,5.17,2.4,5.09s3.33-3.6,3.83-5.48.26-5.59,3.17-5.53c5.7.1-4.34,30-2.12,34.7.79,1.68,4.89,2.41,5.93-.26C337.05,283.89,335.55,283.16,334.22,282.24Z" transform="translate(-101.05 -66.1)"/><path class="cls-12" d="M348.67,220.05c0,12.92-57.56,21.23-125.58,21.23S102.35,233,102.35,220.05s52.72-25.54,120.74-25.54S348.67,207.14,348.67,220.05Z" transform="translate(-101.05 -66.1)"/><path class="cls-13" d="M242.12,238.72c-67-.18-125.7-10.13-125.66-22.28,0-5.59,18.08-10.82,36.46-15.12-30.12,4.5-49.36,11.73-49.39,19.12,0,12.15,51.86,20.11,118.84,20.28,43.27.12,82.22-3.05,104.41-8.58C304.47,235.32,274.38,238.8,242.12,238.72Z" transform="translate(-101.05 -66.1)"/><path class="cls-14" d="M307.17,298.54c5.35-1.31,6.12-9.63,6.37-12.74,1.2-15.42-2-6.76-6.53-7.32-4.35-.54-8-7-9.91-10.17C298.85,275.54,294.46,301.66,307.17,298.54Z" transform="translate(-101.05 -66.1)"/><path class="cls-15" d="M288,290.7c3.57-.72,7-8.15,10-10.33,8.45-6-6.79-3.1-9.77-3.68s-7.48-10.33-8.66-12.55C281.71,274.34,280.19,292.29,288,290.7Z" transform="translate(-101.05 -66.1)"/><path class="cls-16" d="M147.62,295.41c-3.8-.94-4.29-6.86-4.44-9.07-.75-10.85,1.43-4.77,4.66-5.17,3.07-.37,5.67-4.91,7-7.12C153.61,279.11,156.67,297.64,147.62,295.41Z" transform="translate(-101.05 -66.1)"/><path class="cls-17" d="M216.19,302.6c5.87-1,5.56-10.18,5.39-13.61-.84-17.05-3.2-7.67-8.46-8.65-5-.94-10.4-18.27-13.08-22.06C203.14,266.7,202.23,305.07,216.19,302.6Z" transform="translate(-101.05 -66.1)"/><path class="cls-18" d="M185.19,250.24c-6.17,3.75-7.13,11.06-12.41,12.05-7,1.32-10.72-5.1-13.15-13.25Z" transform="translate(-101.05 -66.1)"/><path class="cls-19" d="M264.05,194.94c.78,1,1.7,2.27,1.66,2.71s-2,.5-2.7.8c2.26-.44,6.68-2.16,7.48-.89.61,1,2.34,1.48,2.27,1.93s-.51,1.55-2.39,2.12c-5.51,1.67-14.91.91-17.63-.24a3.22,3.22,0,0,1-1.7-3.32c.09-.78,1.86-2.36,3-2.89C257.56,193.28,262.89,193.52,264.05,194.94Z" transform="translate(-101.05 -66.1)"/><path class="cls-20" d="M264.1,194.15a7.47,7.47,0,0,1,1.56,2.69c0,.34-1.94.52-2.55.82,2.13-.45,7.33-2.31,8.08-1a6.57,6.57,0,0,1,1.09,2.65c-.06.45-1.09,1.2-2.18,1.55-4.65,1.5-16.11.77-17.05.1a5,5,0,0,1-1.27-3.57c.09-.77.79-1.32.84-1.94C256,193.5,263,192.74,264.1,194.15Z" transform="translate(-101.05 -66.1)"/><path class="cls-21" d="M252.72,195.16c.45-.25,1.84.05,2.42-.15l-2.09,5.91h0a4.17,4.17,0,0,1-1.27-3.57A4.68,4.68,0,0,1,252.72,195.16Z" transform="translate(-101.05 -66.1)"/><path class="cls-21" d="M267.59,197c1.59-.34,3.24-1,3.6-.42a6.57,6.57,0,0,1,1.09,2.65c-.06.45-1.09,1.2-2.18,1.55C268.92,197.6,267.59,197,267.59,197Z" transform="translate(-101.05 -66.1)"/><path class="cls-22" d="M262.88,193.42c1.71.58,1.82,1.5.41,2.19a14.17,14.17,0,0,1,6.61.18c2,.67,1.82,1.79-.38,2.5-4.64,1.5-13.59.36-15.69.38.1-.7-3.77-3.48,1.47-5.18A14.15,14.15,0,0,1,262.88,193.42Z" transform="translate(-101.05 -66.1)"/><path class="cls-23" d="M255.88,194.31a14.05,14.05,0,0,1,7.58-.07,4.2,4.2,0,0,1,.79.36c0-.43-.42-.85-1.37-1.18a14.15,14.15,0,0,0-7.58.07c-5.24,1.7-1.37,4.48-1.47,5.18H254C253.18,197.52,251.88,195.6,255.88,194.31Z" transform="translate(-101.05 -66.1)"/><path class="cls-24" d="M305.5,202a4.66,4.66,0,0,1-1.8.4c-4.23.12-8.13.51-12.38-.2-1.94-.33-3.87-.73-5.79-1.16H280c-.77.85-2.42,0-2.3,1.23-.21,3.59,11.22,6.1,14.87,5.58,3.91-.55,8.48,1.06,10.58,1.39a29.32,29.32,0,0,0-1.43-3.35,18,18,0,0,0,5.59-1.47C308,202.7,306.92,202.25,305.5,202Z" transform="translate(-101.05 -66.1)"/><path class="cls-25" d="M280.63,197c2.51-1.52,1-3.81,2.27-4.29,3.72,1,16.26-5,18.21-2.82,0,0,4.86,5.69-5,10.71C292.35,196.48,277.93,199.15,280.63,197Z" transform="translate(-101.05 -66.1)"/><path class="cls-26" d="M302.16,203.14c-11.66,6.08-11.82-4.63-9.23-6.85,4.42-.45,6.6-2.18,12.13-2,.88,0,1.87-.11,2.15-.63C303.93,197.68,305.22,201.25,302.16,203.14Z" transform="translate(-101.05 -66.1)"/><path class="cls-25" d="M286.14,185.13c2.51-1.52,2.29-2.34,5-1.64,3.71,1,6.54.16,8.49,2.35,0,0-2.49,4.5-5.07,5.32C290.81,187.06,283.43,187.28,286.14,185.13Z" transform="translate(-101.05 -66.1)"/><path class="cls-27" d="M285.92,185.22c-1,.55-3.24,1.31-3.41,2.29,1-.57,2.21-1.63,7.11,2.12,5.08,3.89,13,.34,10.85-2.72-2.82-4.11-2.92-.32-3.49-.09C288.41,190.36,288,184.09,285.92,185.22Z" transform="translate(-101.05 -66.1)"/><path class="cls-27" d="M293.47,176.47c-3.5,5.68,3.29,5.25,3.49,10.09C300.7,179,290.56,182.44,293.47,176.47Z" transform="translate(-101.05 -66.1)"/><path class="cls-26" d="M293.47,176.47c-2.93,4.87,3.72,5.73,3.49,10.09C291.3,184,289.48,181.09,293.47,176.47Z" transform="translate(-101.05 -66.1)"/><path class="cls-27" d="M293.47,176.47c-6.16,4.2-8,8-1.77,9.59,3.72,1,4.25-.21,5.26.5,0,0,.51-1.39-1.79-2.46C292.54,182.86,290,180.82,293.47,176.47Z" transform="translate(-101.05 -66.1)"/><path class="cls-28" d="M293.17,176.72c-1.25,1.37-7.78,5,1.31,8.49C290.22,182.34,290.23,180.45,293.17,176.72Z" transform="translate(-101.05 -66.1)"/><path class="cls-26" d="M287.86,182.78c0,1.36,1.14,2.46,3.87,3.16,3.72,1,4.06-.18,5.23.62,0,0-.81.16-3.39,1C290.83,188.41,287,186.23,287.86,182.78Z" transform="translate(-101.05 -66.1)"/><path class="cls-28" d="M293.47,176.47c-1.47,3.94,3.21,2.77,4.18,6.33C296.66,180.11,291.12,181.22,293.47,176.47Z" transform="translate(-101.05 -66.1)"/><path class="cls-26" d="M282.92,192.53c.68-1.62-.69-4.86-.41-5,1-.57,2.21-1.93,7.1,1.82,5.09,3.89,13,.64,10.86-2.42,1.82,2.11-1.42,5-1.9,5.41C290.8,198.91,282.43,193.71,282.92,192.53Z" transform="translate(-101.05 -66.1)"/><path class="cls-27" d="M282.81,192.7a6,6,0,0,0-6.18,3.56c-.95,2,5.61,6.09,13.16,5.83s10.92,5.43,12.52,6.26c-1.16-3.55-4.91-10.29-8.19-11.34S282.6,196.29,282.81,192.7Z" transform="translate(-101.05 -66.1)"/><path class="cls-28" d="M282.51,187.51c1-.57,2.21-1.55,7.1,2.2,5.09,3.89,13.3.23,10.86-2.8,1.24,2.59-4.51,3-8.32,1.91C288.07,187.62,284.11,185.49,282.51,187.51Z" transform="translate(-101.05 -66.1)"/><path class="cls-28" d="M300.06,205.13c-.64-.81-5.73-4.82-12.78-5.19-6.66-.35-14.11-5.29-5.57-7-2.35,2.07.56,4.46,4.58,4.82C290.85,198.19,294.64,196.26,300.06,205.13Z" transform="translate(-101.05 -66.1)"/><path class="cls-26" d="M278.14,201.4c-.17-1.63-1.42-1.24-1.56-4.4.57,2.13,6.65,4.81,13.36,4.58,7.54-.26,10.77,5.94,12.37,6.77-2.09-.33-5.94-2-9.85-1.4C288.81,207.47,277.93,205,278.14,201.4Z" transform="translate(-101.05 -66.1)"/><path class="cls-27" d="M301.11,189.88c-.43,2.64-6,5.8-8.18,6.41,5.49,1.12,6.6-2.18,12.13-2C308,194.39,308.25,190.12,301.11,189.88Z" transform="translate(-101.05 -66.1)"/><path class="cls-28" d="M301.11,189.88c4.24.82,5.32,2.16,4,3.13-1,.75-4.06,1.13-4.08,1.84a34.19,34.19,0,0,1,4.49-.37C308.5,194.58,308.25,190.12,301.11,189.88Z" transform="translate(-101.05 -66.1)"/><path class="cls-26" d="M298.71,201.31c.65,1,2.17,3.55,2.2,3.73a19.67,19.67,0,0,0,5.67-1.34c.95-2.25,2.54-2.82,2.84-5.51C309.68,195.81,303.66,201.84,298.71,201.31Z" transform="translate(-101.05 -66.1)"/><path class="cls-27" d="M298.77,201.38c4.06-1.08,5.63-2.42,6.21-3.7a4.79,4.79,0,0,1,.92-2c1.54.1,3.88.16,3.52,2.54S301.85,201.18,298.77,201.38Z" transform="translate(-101.05 -66.1)"/><path class="cls-25" d="M298.77,201.38c4.06-1.08,5.63-2.42,6.21-3.7a4.79,4.79,0,0,1,.92-2l.28-.51c-2.63.55-1.17,4.31-8.22,5.13Z" transform="translate(-101.05 -66.1)"/><path class="cls-25" d="M278.14,201.4a3,3,0,0,0-.79-1.63c7.59,3.31,1,4.83,14.72,6.12,7.42.7,8.64,1.63,10.24,2.46-2.09-.33-5.94-2-9.85-1.4C288.81,207.47,277.93,205,278.14,201.4Z" transform="translate(-101.05 -66.1)"/><path class="cls-19" d="M310.93,207.56c-1.72.78,0,1.9,3.91,2.69-4.61-.46-9.09-1.22-10.81-.44-2,.9-1.93,2.95,6.81,4.42,11.1,1.88,25.2,1.25,25.89-.62.76-1.27-2.44-4.77-12.65-6.28C318.82,206.55,312.93,206.66,310.93,207.56Z" transform="translate(-101.05 -66.1)"/><path class="cls-21" d="M311.63,205.23c-1.63.73,1,2.31,4.66,3.06-4.37-.44-8.47-3.92-9.45-2.43-.31.47-1.73,4.57-1.81,4.72-.43.82,2,1.82,6.18,2.43,10.54,1.55,20.31,1,24.68-.11a6.3,6.3,0,0,0-.17-5.11c-3.5-3.12-22.93-4.66-22.93-4.66A13,13,0,0,0,311.63,205.23Z" transform="translate(-101.05 -66.1)"/><path class="cls-22" d="M313.31,202.72c-1.45.65,0,1.59,3.3,2.26-3.89-.39-7.78-.23-9.23.42-1.68.76.55,1.91,5,2.56,9.38,1.38,20.27-.12,23.35-.17-.5-.68-2.74-4-11.33-5.27C320,201.86,315,202,313.31,202.72Z" transform="translate(-101.05 -66.1)"/><path class="cls-23" d="M324.6,203.1c-4.09-.6-8.66-.52-10.21.19-.71.32-.64.72,0,1.11-1.64-.57-2.16-1.2-1.1-1.68,1.68-.76,6.64-.86,11.08-.2,8.59,1.27,10.83,4.59,11.33,5.27l-.77,0C334.32,207,332,204.2,324.6,203.1Z" transform="translate(-101.05 -66.1)"/><path class="cls-23" d="M307.38,205.4c1.32-.59,4.66-.77,8.17-.51a17.5,17.5,0,0,0,1.88.48c-3.59-.35-7.18-.21-8.51.39-1.5.68.39,1.68,4.2,2.29l-.75-.09C307.93,207.31,305.7,206.16,307.38,205.4Z" transform="translate(-101.05 -66.1)"/><path class="cls-24" d="M344.43,218.39a5.05,5.05,0,0,1-1.91.43c-4.5.12-8.64.54-13.15-.22-2.07-.34-4.11-.77-6.15-1.23H317.3c-.81.9-2.58,0-2.44,1.31-.22,3.81,11.91,6.48,15.79,5.93,4.16-.59,9,1.13,11.24,1.47a32,32,0,0,0-1.52-3.56,18.82,18.82,0,0,0,5.94-1.56C347.07,219.16,345.93,218.68,344.43,218.39Z" transform="translate(-101.05 -66.1)"/><path class="cls-25" d="M318,213.09c2.67-1.61,1.09-4.05,2.41-4.55,3.95,1,17.27-5.32,19.34-3,0,0,5.17,6-5.29,11.37C330.46,212.55,315.14,215.38,318,213.09Z" transform="translate(-101.05 -66.1)"/><path class="cls-26" d="M340.88,219.63c-12.38,6.45-12.56-4.92-9.8-7.28,4.69-.49,7-2.32,12.88-2.12.94,0,2-.12,2.28-.68C342.77,213.83,344.13,217.62,340.88,219.63Z" transform="translate(-101.05 -66.1)"/><path class="cls-25" d="M323.86,200.49c2.67-1.61,2.44-2.48,5.33-1.73,3.95,1,6.95.16,9,2.48,0,0-2.64,4.79-5.38,5.66C328.82,202.54,321,202.78,323.86,200.49Z" transform="translate(-101.05 -66.1)"/><path class="cls-27" d="M323.63,200.59c-1.08.59-3.44,1.39-3.62,2.43,1-.6,2.35-1.72,7.55,2.25,5.4,4.14,13.76.37,11.53-2.89-3-4.36-3.11-.34-3.71-.09C326.28,206.05,325.83,199.39,323.63,200.59Z" transform="translate(-101.05 -66.1)"/><path class="cls-27" d="M331.65,191.3c-3.72,6,3.5,5.57,3.71,10.72C339.33,194,328.56,197.63,331.65,191.3Z" transform="translate(-101.05 -66.1)"/><path class="cls-26" d="M331.65,191.3c-3.12,5.17,4,6.08,3.71,10.72C329.34,199.3,327.41,196.21,331.65,191.3Z" transform="translate(-101.05 -66.1)"/><path class="cls-27" d="M331.65,191.3c-6.55,4.45-8.5,8.48-1.88,10.18,4,1,4.51-.22,5.59.54,0,0,.53-1.48-1.9-2.62C330.66,198.09,328,195.91,331.65,191.3Z" transform="translate(-101.05 -66.1)"/><path class="cls-28" d="M331.33,191.56c-1.32,1.46-8.26,5.36,1.39,9C328.2,197.53,328.21,195.53,331.33,191.56Z" transform="translate(-101.05 -66.1)"/><path class="cls-26" d="M325.69,198c-.05,1.45,1.21,2.62,4.11,3.37,3.95,1,4.31-.2,5.56.66,0,0-.87.17-3.6,1C328.85,204,324.73,201.66,325.69,198Z" transform="translate(-101.05 -66.1)"/><path class="cls-28" d="M331.65,191.3c-1.56,4.18,3.41,2.94,4.44,6.72C335,195.16,329.15,196.34,331.65,191.3Z" transform="translate(-101.05 -66.1)"/><path class="cls-26" d="M320.44,208.36c.73-1.72-.73-5.17-.43-5.34,1-.6,2.35-2,7.54,1.94,5.4,4.13,13.77.68,11.54-2.58,1.93,2.25-1.52,5.33-2,5.76C328.81,215.13,319.92,209.61,320.44,208.36Z" transform="translate(-101.05 -66.1)"/><path class="cls-27" d="M320.33,208.53a6.43,6.43,0,0,0-6.57,3.78c-1,2.15,6,6.48,14,6.2s11.6,5.77,13.3,6.64c-1.23-3.76-5.22-10.92-8.7-12S320.11,212.34,320.33,208.53Z" transform="translate(-101.05 -66.1)"/><path class="cls-28" d="M320,203c1-.6,2.34-1.64,7.54,2.34,5.4,4.13,14.13.24,11.54-3,1.31,2.76-4.8,3.22-8.84,2C325.92,203.14,321.71,200.88,320,203Z" transform="translate(-101.05 -66.1)"/><path class="cls-28" d="M338.65,221.73c-.68-.85-6.09-5.11-13.57-5.5-7.08-.37-15-5.63-5.92-7.42-2.5,2.2.59,4.74,4.87,5.12C328.87,214.36,332.9,212.31,338.65,221.73Z" transform="translate(-101.05 -66.1)"/><path class="cls-26" d="M315.36,217.78c-.18-1.74-1.5-1.33-1.65-4.68.61,2.27,7.06,5.11,14.19,4.87,8-.28,11.44,6.31,13.14,7.18-2.22-.34-6.3-2.07-10.46-1.48C326.7,224.22,315.14,221.59,315.36,217.78Z" transform="translate(-101.05 -66.1)"/><path class="cls-27" d="M339.76,205.54c-.45,2.81-6.33,6.16-8.68,6.81,5.83,1.19,7-2.32,12.88-2.12C347.09,210.33,347.35,205.8,339.76,205.54Z" transform="translate(-101.05 -66.1)"/><path class="cls-28" d="M339.76,205.54c4.5.87,5.66,2.29,4.29,3.33-1.06.79-4.32,1.19-4.34,1.94a35.94,35.94,0,0,1,4.77-.38C347.61,210.53,347.35,205.8,339.76,205.54Z" transform="translate(-101.05 -66.1)"/><path class="cls-26" d="M337.22,217.68c.68,1,2.3,3.77,2.33,4a21.12,21.12,0,0,0,6-1.42c1-2.39,2.7-3,3-5.86C348.87,211.84,342.48,218.24,337.22,217.68Z" transform="translate(-101.05 -66.1)"/><path class="cls-27" d="M337.27,217.76c4.32-1.15,6-2.58,6.6-3.93a5.24,5.24,0,0,1,1-2.17c1.64.11,4.13.18,3.74,2.7S340.55,217.54,337.27,217.76Z" transform="translate(-101.05 -66.1)"/><path class="cls-25" d="M337.27,217.76c4.32-1.15,6-2.58,6.6-3.93a5.24,5.24,0,0,1,1-2.17l.3-.53c-2.79.58-1.25,4.57-8.73,5.45Z" transform="translate(-101.05 -66.1)"/><path class="cls-25" d="M315.36,217.78a3.07,3.07,0,0,0-.84-1.73c8.07,3.51,1.06,5.12,15.64,6.49,7.89.74,9.18,1.74,10.88,2.61-2.22-.34-6.3-2.07-10.46-1.48C326.7,224.22,315.14,221.59,315.36,217.78Z" transform="translate(-101.05 -66.1)"/><path class="cls-19" d="M302,220.71c-1.34,1.54-2.93,3.65-2.93,4.38,0,.56,3.1.95,4.06,1.48-3.43-.85-10-4-11.45-1.9-1.08,1.57-3.84,2.29-3.79,3s.59,2.59,3.42,3.64c8.3,3.09,23,2.4,27.33.67a5.72,5.72,0,0,0,3.09-5.4c0-1.29-2.56-4-4.19-4.93C312.27,218.36,304,218.44,302,220.71Z" transform="translate(-101.05 -66.1)"/><path class="cls-20" d="M302,219.4c-1.28,1.53-2.78,3.63-2.78,4.36,0,.56,2.93,1,3.84,1.51-3.25-.87-11-4.27-12.38-2.21-1,1.57-2.09,3.56-2.05,4.31s1.53,2,3.18,2.71c7,2.75,24.84,2.22,26.39,1.17a8.9,8.9,0,0,0,2.44-5.82c0-1.29-1-2.23-1-3.26C314.65,218.81,303.9,217.14,302,219.4Z" transform="translate(-101.05 -66.1)"/><path class="cls-21" d="M319.5,221.75c-.66-.44-2.85,0-3.72-.39l2.44,9.89h0c1.51-1.07,2.5-3.68,2.44-5.82A7.52,7.52,0,0,0,319.5,221.75Z" transform="translate(-101.05 -66.1)"/><path class="cls-21" d="M296.23,224c-2.43-.65-4.88-1.9-5.53-.91-1,1.57-2.09,3.56-2.05,4.31s1.53,2,3.18,2.71C294.08,224.82,296.23,224,296.23,224Z" transform="translate(-101.05 -66.1)"/><path class="cls-22" d="M304,218.28c-2.73.86-3,2.36-.93,3.59a20.63,20.63,0,0,0-10.26-.09c-3.17,1-3.06,2.85.24,4.15,7,2.75,21,1.39,24.26,1.55-.07-1.15,6.3-5.52-1.59-8.63A20.54,20.54,0,0,0,304,218.28Z" transform="translate(-101.05 -66.1)"/><path class="cls-23" d="M295.87,225.8c-3.3-1.3-3.41-3.16-.24-4.15a13.46,13.46,0,0,1,2.31-.47,17,17,0,0,0-5.12.6c-3.17,1-3.06,2.85.24,4.15,7,2.75,21,1.39,24.26,1.55,0,0,0-.06,0-.09C311.94,227.56,301.57,228.05,295.87,225.8Z" transform="translate(-101.05 -66.1)"/><path class="cls-19" d="M195.54,194c-.79,1-1.7,2.27-1.66,2.71s2.05.5,2.69.8c-2.25-.43-6.67-2.16-7.47-.88-.61,1-2.34,1.47-2.27,1.92s.51,1.55,2.39,2.12c5.51,1.67,14.91.92,17.63-.23a3.24,3.24,0,0,0,1.7-3.33c-.09-.78-1.86-2.36-3-2.88C202,192.34,196.7,192.58,195.54,194Z" transform="translate(-101.05 -66.1)"/><path class="cls-20" d="M195.48,193.21a7.58,7.58,0,0,0-1.55,2.7c0,.33,1.94.51,2.55.81-2.14-.45-7.33-2.31-8.08-1a6.62,6.62,0,0,0-1.09,2.65c.06.45,1.09,1.2,2.18,1.56,4.65,1.5,16.11.76,17,.1a5,5,0,0,0,1.27-3.57c-.09-.78-.79-1.32-.84-1.95C203.59,192.56,196.58,191.8,195.48,193.21Z" transform="translate(-101.05 -66.1)"/><path class="cls-21" d="M206.86,194.22c-.44-.25-1.83.06-2.41-.15l2.09,5.92h0a4.18,4.18,0,0,0,1.27-3.57A4.59,4.59,0,0,0,206.86,194.22Z" transform="translate(-101.05 -66.1)"/><path class="cls-21" d="M192,196.1c-1.6-.34-3.24-1-3.6-.42a6.62,6.62,0,0,0-1.09,2.65c.06.45,1.09,1.2,2.18,1.56C190.66,196.66,192,196.1,192,196.1Z" transform="translate(-101.05 -66.1)"/><path class="cls-22" d="M196.71,192.49c-1.71.58-1.82,1.49-.41,2.18a14.16,14.16,0,0,0-6.61.19c-2,.67-1.82,1.79.38,2.5,4.64,1.5,13.59.35,15.69.37-.1-.69,3.77-3.48-1.47-5.17A14.15,14.15,0,0,0,196.71,192.49Z" transform="translate(-101.05 -66.1)"/><path class="cls-23" d="M191.87,197.22c-2.2-.71-2.36-1.83-.38-2.5a8.25,8.25,0,0,1,1.46-.34,11.2,11.2,0,0,0-3.26.48c-2,.67-1.82,1.79.38,2.5,4.64,1.5,13.59.35,15.69.37,0,0,0,0,0-.06C202.31,197.9,195.66,198.44,191.87,197.22Z" transform="translate(-101.05 -66.1)"/><path class="cls-24" d="M237.89,200.51a16.37,16.37,0,0,0,5.18-1.36c.67-1.57-.33-2-1.64-2.24a4.4,4.4,0,0,1-1.67.37c-3.92.11-7.54.47-11.48-.19-1.8-.3-3.59-.67-5.36-1.08h-5.17c-1.64.06-1.37,2.63-.66,3.54a7.36,7.36,0,0,0,3.15,1.83c4.16,1.75,7.61.77,11.88.94,2.42.1,4.7.87,7.06,1.28A8.9,8.9,0,0,0,237.89,200.51Z" transform="translate(-101.05 -66.1)"/><path class="cls-25" d="M219.28,193.26c2.18-1.32.89-3.31,2-3.72,3.23.83,14.1-4.34,15.8-2.44,0,0,4.21,4.93-4.32,9.28C229.44,192.82,216.93,195.13,219.28,193.26Z" transform="translate(-101.05 -66.1)"/><path class="cls-26" d="M237.94,198.6c-10.1,5.26-10.25-4-8-5.95,3.83-.39,5.73-1.89,10.52-1.73.77,0,1.63-.09,1.86-.55C239.49,193.86,240.6,197,237.94,198.6Z" transform="translate(-101.05 -66.1)"/><path class="cls-25" d="M224.05,183c2.18-1.31,2-2,4.36-1.41,3.22.83,5.67.13,7.36,2,0,0-2.16,3.91-4.39,4.62C228.1,184.65,221.71,184.84,224.05,183Z" transform="translate(-101.05 -66.1)"/><path class="cls-27" d="M223.86,183.06c-.87.48-2.81,1.13-3,2,.85-.49,1.93-1.41,6.17,1.84,4.41,3.37,11.24.3,9.41-2.36-2.44-3.57-2.53-.28-3-.08C226,187.51,225.66,182.08,223.86,183.06Z" transform="translate(-101.05 -66.1)"/><path class="cls-27" d="M230.41,175.47c-3,4.92,2.86,4.55,3,8.75C236.68,177.68,227.89,180.64,230.41,175.47Z" transform="translate(-101.05 -66.1)"/><path class="cls-26" d="M230.41,175.47c-2.54,4.22,3.23,5,3,8.75C228.53,182,227,179.48,230.41,175.47Z" transform="translate(-101.05 -66.1)"/><path class="cls-27" d="M230.41,175.47c-5.34,3.64-6.94,6.92-1.54,8.31,3.23.84,3.69-.18,4.57.44,0,0,.44-1.21-1.55-2.14C229.6,181,227.44,179.24,230.41,175.47Z" transform="translate(-101.05 -66.1)"/><path class="cls-28" d="M230.15,175.68c-1.08,1.2-6.74,4.38,1.13,7.37C227.59,180.55,227.6,178.92,230.15,175.68Z" transform="translate(-101.05 -66.1)"/><path class="cls-26" d="M225.54,180.94c0,1.18,1,2.13,3.36,2.74,3.23.83,3.52-.16,4.54.54,0,0-.71.14-2.94.85C228.12,185.83,224.76,183.93,225.54,180.94Z" transform="translate(-101.05 -66.1)"/><path class="cls-28" d="M230.41,175.47c-1.27,3.41,2.78,2.4,3.63,5.48C233.18,178.62,228.37,179.59,230.41,175.47Z" transform="translate(-101.05 -66.1)"/><path class="cls-26" d="M221.26,189.39c.59-1.4-.6-4.21-.36-4.35.85-.49,1.92-1.67,6.17,1.58,4.41,3.37,11.24.56,9.41-2.1,1.58,1.83-1.23,4.35-1.65,4.7C228.09,194.93,220.83,190.42,221.26,189.39Z" transform="translate(-101.05 -66.1)"/><path class="cls-27" d="M221.17,189.54a5.22,5.22,0,0,0-5.36,3.09c-.82,1.75,4.86,5.28,11.41,5.05s9.47,4.72,10.86,5.43c-1-3.08-4.26-8.92-7.11-9.83S221,192.65,221.17,189.54Z" transform="translate(-101.05 -66.1)"/><path class="cls-28" d="M220.9,185c.85-.49,1.92-1.34,6.17,1.91,4.4,3.37,11.53.2,9.41-2.43,1.07,2.25-3.91,2.62-7.21,1.65C225.73,185.13,222.3,183.29,220.9,185Z" transform="translate(-101.05 -66.1)"/><path class="cls-28" d="M236.13,200.32a18.17,18.17,0,0,0-11.08-4.5c-5.78-.3-12.24-4.59-4.84-6-2,1.79.49,3.86,4,4.18C228.14,194.3,231.43,192.63,236.13,200.32Z" transform="translate(-101.05 -66.1)"/><path class="cls-26" d="M217.11,197.09c-.14-1.42-1.23-1.08-1.34-3.82.49,1.85,5.76,4.17,11.58,4,6.54-.23,9.34,5.16,10.73,5.87-1.82-.28-5.15-1.69-8.54-1.21C226.37,202.35,216.93,200.2,217.11,197.09Z" transform="translate(-101.05 -66.1)"/><path class="cls-27" d="M237,187.1c-.38,2.29-5.18,5-7.1,5.55,4.76,1,5.73-1.89,10.52-1.73C243,191,243.23,187.31,237,187.1Z" transform="translate(-101.05 -66.1)"/><path class="cls-28" d="M237,187.1c3.67.71,4.61,1.87,3.49,2.71-.86.65-3.52,1-3.54,1.59a29.3,29.3,0,0,1,3.89-.31C243.44,191.17,243.23,187.31,237,187.1Z" transform="translate(-101.05 -66.1)"/><path class="cls-26" d="M235,197c.55.84,1.88,3.08,1.9,3.23a16.73,16.73,0,0,0,4.92-1.16c.82-2,2.2-2.45,2.46-4.78C244.47,192.24,239.25,197.47,235,197Z" transform="translate(-101.05 -66.1)"/><path class="cls-27" d="M235,197.07c3.53-.93,4.89-2.1,5.39-3.21a4.26,4.26,0,0,1,.8-1.76c1.33.09,3.37.14,3.05,2.2S237.68,196.89,235,197.07Z" transform="translate(-101.05 -66.1)"/><path class="cls-25" d="M235,197.07c3.53-.93,4.89-2.1,5.39-3.21a4.26,4.26,0,0,1,.8-1.76l.24-.44c-2.28.48-1,3.73-7.13,4.45Z" transform="translate(-101.05 -66.1)"/><path class="cls-25" d="M217.11,197.09a2.6,2.6,0,0,0-.68-1.42c6.58,2.87.86,4.19,12.76,5.31,6.44.6,7.5,1.42,8.89,2.13-1.82-.28-5.15-1.69-8.54-1.21C226.37,202.35,216.93,200.2,217.11,197.09Z" transform="translate(-101.05 -66.1)"/><path class="cls-24" d="M179,200.43a4.66,4.66,0,0,1-1.8.4c-4.24.12-8.13.52-12.38-.2-1.95-.33-3.87-.72-5.79-1.16h-5.57c-.77.85-2.43,0-2.3,1.24-.21,3.58,11.22,6.1,14.87,5.58,3.91-.56,8.48,1.06,10.57,1.38a29.78,29.78,0,0,0-1.42-3.35,18,18,0,0,0,5.59-1.46C181.46,201.16,180.38,200.7,179,200.43Z" transform="translate(-101.05 -66.1)"/><path class="cls-25" d="M154.1,195.44c2.51-1.52,1-3.81,2.27-4.29,3.71,1,16.26-5,18.21-2.81,0,0,4.86,5.68-5,10.7C165.82,194.94,151.39,197.6,154.1,195.44Z" transform="translate(-101.05 -66.1)"/><path class="cls-26" d="M175.62,201.6c-11.65,6.07-11.82-4.63-9.22-6.86,4.41-.45,6.6-2.18,12.13-2,.88,0,1.87-.11,2.14-.64C177.4,196.13,178.69,199.71,175.62,201.6Z" transform="translate(-101.05 -66.1)"/><path class="cls-25" d="M159.61,183.58c2.51-1.52,2.29-2.33,5-1.63,3.72,1,6.54.15,8.49,2.34,0,0-2.49,4.51-5.06,5.33C164.27,185.51,156.9,185.74,159.61,183.58Z" transform="translate(-101.05 -66.1)"/><path class="cls-27" d="M159.39,183.67c-1,.56-3.24,1.32-3.41,2.29,1-.56,2.21-1.62,7.1,2.12,5.09,3.9,13,.35,10.86-2.72-2.82-4.11-2.93-.32-3.49-.08C161.88,188.81,161.46,182.54,159.39,183.67Z" transform="translate(-101.05 -66.1)"/><path class="cls-27" d="M166.94,174.92c-3.5,5.68,3.29,5.26,3.49,10.1C174.17,177.47,164,180.89,166.94,174.92Z" transform="translate(-101.05 -66.1)"/><path class="cls-26" d="M166.94,174.92c-2.94,4.88,3.72,5.73,3.49,10.1C164.77,182.45,163,179.55,166.94,174.92Z" transform="translate(-101.05 -66.1)"/><path class="cls-27" d="M166.94,174.92c-6.17,4.2-8,8-1.77,9.59,3.71,1,4.25-.21,5.26.51,0,0,.5-1.4-1.79-2.47C166,181.32,163.51,179.27,166.94,174.92Z" transform="translate(-101.05 -66.1)"/><path class="cls-28" d="M166.64,175.17c-1.25,1.38-7.78,5.05,1.31,8.5C163.69,180.79,163.69,178.91,166.64,175.17Z" transform="translate(-101.05 -66.1)"/><path class="cls-26" d="M161.33,181.23c-.05,1.36,1.14,2.46,3.87,3.16,3.71,1,4.06-.18,5.23.63,0,0-.82.16-3.39,1C164.3,186.87,160.42,184.69,161.33,181.23Z" transform="translate(-101.05 -66.1)"/><path class="cls-28" d="M166.94,174.92c-1.47,3.94,3.21,2.77,4.18,6.33C170.13,178.56,164.58,179.68,166.94,174.92Z" transform="translate(-101.05 -66.1)"/><path class="cls-26" d="M156.39,191c.68-1.61-.69-4.85-.41-5,1-.56,2.21-1.92,7.1,1.82,5.09,3.9,13,.65,10.86-2.42,1.82,2.12-1.43,5-1.9,5.42C164.26,197.37,155.89,192.17,156.39,191Z" transform="translate(-101.05 -66.1)"/><path class="cls-27" d="M156.28,191.15a6,6,0,0,0-6.18,3.56c-.95,2,5.61,6.09,13.15,5.83s10.93,5.44,12.53,6.26c-1.16-3.55-4.92-10.28-8.19-11.33S156.07,194.74,156.28,191.15Z" transform="translate(-101.05 -66.1)"/><path class="cls-28" d="M156,186c1-.56,2.21-1.54,7.1,2.2,5.08,3.89,13.3.23,10.86-2.8,1.23,2.6-4.51,3-8.32,1.91C161.54,186.07,157.58,183.94,156,186Z" transform="translate(-101.05 -66.1)"/><path class="cls-28" d="M173.53,203.58c-.64-.8-5.73-4.81-12.78-5.18-6.66-.35-14.11-5.3-5.57-7-2.36,2.08.56,4.46,4.58,4.82C164.32,196.64,168.11,194.71,173.53,203.58Z" transform="translate(-101.05 -66.1)"/><path class="cls-26" d="M151.6,199.85c-.17-1.63-1.41-1.24-1.55-4.4.57,2.13,6.65,4.82,13.35,4.58,7.55-.26,10.78,5.95,12.38,6.77-2.09-.33-5.94-2-9.85-1.4C162.28,205.92,151.39,203.44,151.6,199.85Z" transform="translate(-101.05 -66.1)"/><path class="cls-27" d="M174.58,188.34c-.43,2.64-6,5.79-8.18,6.4,5.49,1.12,6.6-2.18,12.13-2C181.48,192.85,181.72,188.57,174.58,188.34Z" transform="translate(-101.05 -66.1)"/><path class="cls-28" d="M174.58,188.34c4.23.82,5.32,2.15,4,3.13-1,.75-4.06,1.12-4.08,1.83a33,33,0,0,1,4.48-.36C182,193,181.72,188.57,174.58,188.34Z" transform="translate(-101.05 -66.1)"/><path class="cls-26" d="M172.18,199.76c.64,1,2.17,3.55,2.2,3.73a19.33,19.33,0,0,0,5.67-1.34c.95-2.25,2.54-2.82,2.84-5.51C183.15,194.26,177.13,200.29,172.18,199.76Z" transform="translate(-101.05 -66.1)"/><path class="cls-27" d="M172.23,199.84c4.06-1.08,5.63-2.43,6.21-3.71a5,5,0,0,1,.93-2c1.54.1,3.88.17,3.52,2.54S175.31,199.63,172.23,199.84Z" transform="translate(-101.05 -66.1)"/><path class="cls-25" d="M172.23,199.84c4.06-1.08,5.63-2.43,6.21-3.71a5,5,0,0,1,.93-2l.27-.5c-2.62.55-1.17,4.3-8.21,5.12Z" transform="translate(-101.05 -66.1)"/><path class="cls-25" d="M151.6,199.85a2.92,2.92,0,0,0-.79-1.62c7.6,3.31,1,4.82,14.72,6.11,7.43.7,8.65,1.64,10.25,2.46-2.09-.33-5.94-2-9.85-1.4C162.28,205.92,151.39,203.44,151.6,199.85Z" transform="translate(-101.05 -66.1)"/><path class="cls-19" d="M149.07,207.21c1.72.78,0,1.9-3.91,2.69,4.61-.46,9.09-1.22,10.81-.44,2,.9,1.93,2.95-6.81,4.42-11.1,1.88-25.2,1.25-25.89-.61-.76-1.28,2.44-4.78,12.65-6.29C141.18,206.2,147.07,206.31,149.07,207.21Z" transform="translate(-101.05 -66.1)"/><path class="cls-21" d="M148.37,204.88c1.63.74-1,2.31-4.66,3.06,4.37-.43,8.47-3.92,9.45-2.42.3.46,1.73,4.56,1.81,4.72.43.81-2,1.81-6.18,2.42-10.54,1.55-20.31,1-24.68-.11a6.3,6.3,0,0,1,.17-5.11c3.5-3.12,22.93-4.66,22.93-4.66A13,13,0,0,1,148.37,204.88Z" transform="translate(-101.05 -66.1)"/><path class="cls-22" d="M146.69,202.37c1.45.65,0,1.6-3.3,2.26,3.89-.39,7.78-.23,9.23.42,1.68.76-.56,1.91-5,2.56-9.38,1.38-20.27-.12-23.35-.17.5-.68,2.74-4,11.33-5.27C140.05,201.51,145,201.61,146.69,202.37Z" transform="translate(-101.05 -66.1)"/><path class="cls-23" d="M135.4,202.76c4.09-.61,8.66-.52,10.21.18.71.32.64.72,0,1.11,1.64-.57,2.16-1.2,1.1-1.68-1.68-.76-6.64-.86-11.08-.2-8.59,1.27-10.83,4.59-11.33,5.27l.77,0C125.68,206.61,128,203.86,135.4,202.76Z" transform="translate(-101.05 -66.1)"/><path class="cls-23" d="M152.62,205.05c-1.32-.59-4.66-.77-8.17-.51a15.42,15.42,0,0,1-1.88.48c3.59-.35,7.18-.21,8.51.39,1.5.68-.39,1.69-4.2,2.3l.75-.1C152.07,207,154.3,205.81,152.62,205.05Z" transform="translate(-101.05 -66.1)"/><path class="cls-24" d="M139.85,221.67a5,5,0,0,1-1.91.42c-4.5.12-8.64.54-13.15-.21-2.07-.35-4.11-.77-6.15-1.24h-5.92c-.81.91-2.58,0-2.44,1.32-.22,3.81,11.91,6.47,15.79,5.93,4.16-.59,9,1.12,11.24,1.47a32,32,0,0,0-1.52-3.56,19.4,19.4,0,0,0,5.94-1.56C142.49,222.43,141.35,222,139.85,221.67Z" transform="translate(-101.05 -66.1)"/><path class="cls-25" d="M113.43,216.37c2.67-1.62,1.09-4.05,2.41-4.56,4,1,17.27-5.31,19.34-3,0,0,5.17,6-5.29,11.37C125.88,215.83,110.56,218.66,113.43,216.37Z" transform="translate(-101.05 -66.1)"/><path class="cls-26" d="M136.3,222.9c-12.38,6.45-12.56-4.92-9.8-7.28,4.69-.48,7-2.31,12.88-2.12.94,0,2-.12,2.28-.67C138.19,217.1,139.55,220.89,136.3,222.9Z" transform="translate(-101.05 -66.1)"/><path class="cls-25" d="M119.28,203.76c2.67-1.61,2.44-2.48,5.33-1.73,4,1,7,.17,9,2.49,0,0-2.64,4.79-5.38,5.66C124.24,205.82,116.41,206.06,119.28,203.76Z" transform="translate(-101.05 -66.1)"/><path class="cls-27" d="M119.05,203.86c-1.08.59-3.44,1.4-3.62,2.44,1-.61,2.35-1.73,7.55,2.25,5.4,4.13,13.76.36,11.53-2.89-3-4.37-3.11-.34-3.71-.09C121.7,209.32,121.25,202.67,119.05,203.86Z" transform="translate(-101.05 -66.1)"/><path class="cls-27" d="M127.07,194.57c-3.72,6,3.5,5.58,3.71,10.72C134.75,197.28,124,200.91,127.07,194.57Z" transform="translate(-101.05 -66.1)"/><path class="cls-26" d="M127.07,194.57c-3.12,5.18,4,6.08,3.71,10.72C124.76,202.57,122.83,199.48,127.07,194.57Z" transform="translate(-101.05 -66.1)"/><path class="cls-27" d="M127.07,194.57c-6.55,4.46-8.5,8.48-1.88,10.19,3.95,1,4.51-.23,5.59.53,0,0,.53-1.48-1.9-2.62C126.08,201.36,123.43,199.19,127.07,194.57Z" transform="translate(-101.05 -66.1)"/><path class="cls-28" d="M126.75,194.83c-1.32,1.47-8.26,5.36,1.39,9C123.62,200.8,123.63,198.8,126.75,194.83Z" transform="translate(-101.05 -66.1)"/><path class="cls-26" d="M121.11,201.27c0,1.45,1.21,2.61,4.11,3.36,3.95,1,4.31-.2,5.56.66,0,0-.87.17-3.6,1C124.27,207.26,120.15,204.94,121.11,201.27Z" transform="translate(-101.05 -66.1)"/><path class="cls-28" d="M127.07,194.57c-1.56,4.18,3.41,2.94,4.44,6.72C130.46,198.43,124.57,199.62,127.07,194.57Z" transform="translate(-101.05 -66.1)"/><path class="cls-26" d="M115.86,211.63c.72-1.72-.73-5.16-.43-5.33,1-.61,2.35-2.05,7.54,1.93,5.4,4.13,13.77.68,11.54-2.57,1.93,2.25-1.52,5.32-2,5.75C124.23,218.41,115.34,212.88,115.86,211.63Z" transform="translate(-101.05 -66.1)"/><path class="cls-27" d="M115.75,211.81c-3.61-.12-5.56,1.63-6.57,3.78s6,6.47,14,6.19,11.6,5.77,13.3,6.65c-1.23-3.77-5.22-10.93-8.7-12S115.53,215.62,115.75,211.81Z" transform="translate(-101.05 -66.1)"/><path class="cls-28" d="M115.43,206.3c1-.61,2.34-1.65,7.54,2.33,5.4,4.14,14.13.25,11.54-3,1.31,2.75-4.8,3.21-8.84,2C121.34,206.41,117.13,204.15,115.43,206.3Z" transform="translate(-101.05 -66.1)"/><path class="cls-28" d="M134.07,225c-.68-.85-6.09-5.11-13.57-5.51-7.08-.37-15-5.62-5.92-7.41-2.5,2.2.59,4.73,4.87,5.11C124.29,217.64,128.32,215.59,134.07,225Z" transform="translate(-101.05 -66.1)"/><path class="cls-26" d="M110.78,221.05c-.18-1.73-1.5-1.32-1.65-4.67.6,2.26,7.06,5.11,14.19,4.86,8-.28,11.44,6.31,13.14,7.19-2.22-.35-6.3-2.08-10.46-1.49C122.12,227.49,110.56,224.86,110.78,221.05Z" transform="translate(-101.05 -66.1)"/><path class="cls-27" d="M135.18,208.82c-.45,2.8-6.33,6.15-8.68,6.8,5.83,1.19,7-2.31,12.88-2.12C142.51,213.61,142.77,209.07,135.18,208.82Z" transform="translate(-101.05 -66.1)"/><path class="cls-28" d="M135.18,208.82c4.5.87,5.66,2.29,4.29,3.32-1.06.8-4.32,1.2-4.34,2a35.31,35.31,0,0,1,4.77-.39C143,213.81,142.77,209.07,135.18,208.82Z" transform="translate(-101.05 -66.1)"/><path class="cls-26" d="M132.64,221c.68,1,2.3,3.78,2.33,4a20.7,20.7,0,0,0,6-1.43c1-2.39,2.7-3,3-5.85C144.29,215.11,137.9,221.52,132.64,221Z" transform="translate(-101.05 -66.1)"/><path class="cls-27" d="M132.69,221c4.32-1.14,6-2.57,6.6-3.93a5.17,5.17,0,0,1,1-2.16c1.64.11,4.13.18,3.74,2.7S136,220.81,132.69,221Z" transform="translate(-101.05 -66.1)"/><path class="cls-25" d="M132.69,221c4.32-1.14,6-2.57,6.6-3.93a5.17,5.17,0,0,1,1-2.16l.3-.54c-2.79.59-1.25,4.58-8.73,5.45Z" transform="translate(-101.05 -66.1)"/><path class="cls-25" d="M110.78,221.05a3.07,3.07,0,0,0-.84-1.73c8.07,3.52,1.06,5.12,15.64,6.5,7.89.74,9.18,1.73,10.88,2.61-2.22-.35-6.3-2.08-10.46-1.49C122.12,227.49,110.56,224.86,110.78,221.05Z" transform="translate(-101.05 -66.1)"/><path class="cls-24" d="M209.58,230.2a5,5,0,0,1-1.91.43c-4.5.12-8.64.54-13.15-.22-2.07-.34-4.11-.77-6.15-1.23h-5.91c-.82.91-2.58,0-2.45,1.31-.22,3.81,11.92,6.48,15.79,5.93,4.16-.59,9,1.13,11.24,1.47a32,32,0,0,0-1.52-3.56,19.17,19.17,0,0,0,5.94-1.55C212.22,231,211.08,230.49,209.58,230.2Z" transform="translate(-101.05 -66.1)"/><path class="cls-25" d="M183.16,224.9c2.67-1.61,1.09-4.05,2.41-4.55,4,1,17.27-5.32,19.35-3,0,0,5.16,6-5.3,11.37C195.61,224.36,180.29,227.2,183.16,224.9Z" transform="translate(-101.05 -66.1)"/><path class="cls-26" d="M206,231.44c-12.38,6.45-12.56-4.92-9.8-7.28,4.69-.48,7-2.32,12.88-2.12.94,0,2-.12,2.28-.68C207.92,225.64,209.28,229.43,206,231.44Z" transform="translate(-101.05 -66.1)"/><path class="cls-25" d="M189,212.3c2.66-1.61,2.43-2.48,5.32-1.73,3.95,1,6.95.16,9,2.49,0,0-2.64,4.78-5.38,5.66C194,214.35,186.14,214.59,189,212.3Z" transform="translate(-101.05 -66.1)"/><path class="cls-27" d="M188.78,212.4c-1.07.59-3.44,1.39-3.62,2.43,1-.6,2.35-1.72,7.55,2.25,5.4,4.14,13.76.37,11.53-2.88-3-4.37-3.11-.35-3.71-.1C191.43,217.86,191,211.2,188.78,212.4Z" transform="translate(-101.05 -66.1)"/><path class="cls-27" d="M196.8,203.11c-3.72,6,3.5,5.58,3.71,10.72C204.48,205.81,193.72,209.44,196.8,203.11Z" transform="translate(-101.05 -66.1)"/><path class="cls-26" d="M196.8,203.11c-3.11,5.17,3.95,6.08,3.71,10.72C194.5,211.11,192.56,208,196.8,203.11Z" transform="translate(-101.05 -66.1)"/><path class="cls-27" d="M196.8,203.11c-6.54,4.45-8.5,8.48-1.88,10.18,4,1,4.51-.22,5.59.54,0,0,.54-1.48-1.9-2.62C195.81,209.9,193.16,207.72,196.8,203.11Z" transform="translate(-101.05 -66.1)"/><path class="cls-28" d="M196.48,203.37c-1.32,1.46-8.26,5.36,1.39,9C193.35,209.34,193.36,207.34,196.48,203.37Z" transform="translate(-101.05 -66.1)"/><path class="cls-26" d="M190.84,209.81c-.05,1.44,1.22,2.61,4.11,3.36,4,1,4.31-.2,5.56.66,0,0-.87.17-3.6,1C194,215.79,189.88,213.48,190.84,209.81Z" transform="translate(-101.05 -66.1)"/><path class="cls-28" d="M196.8,203.11c-1.56,4.18,3.41,2.94,4.44,6.72C200.19,207,194.3,208.16,196.8,203.11Z" transform="translate(-101.05 -66.1)"/><path class="cls-26" d="M185.6,220.17c.72-1.72-.74-5.16-.44-5.34,1-.6,2.35-2,7.54,1.94,5.41,4.13,13.77.68,11.54-2.57,1.93,2.24-1.52,5.32-2,5.75C194,226.94,185.07,221.42,185.6,220.17Z" transform="translate(-101.05 -66.1)"/><path class="cls-27" d="M185.48,220.34a6.43,6.43,0,0,0-6.57,3.79c-1,2.14,6,6.47,14,6.19s11.6,5.77,13.3,6.65c-1.23-3.77-5.22-10.93-8.7-12S185.26,224.16,185.48,220.34Z" transform="translate(-101.05 -66.1)"/><path class="cls-28" d="M185.16,214.83c1-.6,2.35-1.64,7.54,2.34,5.4,4.13,14.13.24,11.54-3,1.31,2.75-4.79,3.21-8.84,2C191.07,215,186.86,212.69,185.16,214.83Z" transform="translate(-101.05 -66.1)"/><path class="cls-28" d="M203.8,233.54c-.68-.85-6.09-5.11-13.57-5.5-7.08-.37-15-5.63-5.92-7.42-2.5,2.2.6,4.74,4.87,5.12C194,226.17,198.05,224.13,203.8,233.54Z" transform="translate(-101.05 -66.1)"/><path class="cls-26" d="M180.51,229.59c-.18-1.74-1.5-1.32-1.65-4.68.61,2.27,7.06,5.12,14.19,4.87,8-.28,11.44,6.31,13.14,7.19-2.22-.35-6.3-2.08-10.46-1.49C191.85,236,180.29,233.4,180.51,229.59Z" transform="translate(-101.05 -66.1)"/><path class="cls-27" d="M204.92,217.35c-.46,2.81-6.34,6.16-8.69,6.81,5.83,1.19,7-2.32,12.88-2.12C212.25,222.14,212.5,217.61,204.92,217.35Z" transform="translate(-101.05 -66.1)"/><path class="cls-28" d="M204.92,217.35c4.5.87,5.65,2.3,4.28,3.33-1.06.79-4.32,1.2-4.34,1.95a35.31,35.31,0,0,1,4.77-.39C212.76,222.34,212.5,217.61,204.92,217.35Z" transform="translate(-101.05 -66.1)"/><path class="cls-26" d="M202.37,229.49c.68,1,2.31,3.77,2.33,4a20.63,20.63,0,0,0,6-1.42c1-2.39,2.7-3,3-5.85C214,223.65,207.63,230.05,202.37,229.49Z" transform="translate(-101.05 -66.1)"/><path class="cls-27" d="M202.43,229.57c4.31-1.15,6-2.58,6.59-3.93a5.24,5.24,0,0,1,1-2.17c1.64.11,4.13.18,3.74,2.71S205.7,229.35,202.43,229.57Z" transform="translate(-101.05 -66.1)"/><path class="cls-25" d="M202.43,229.57c4.31-1.15,6-2.58,6.59-3.93a5.24,5.24,0,0,1,1-2.17l.3-.53c-2.79.58-1.25,4.58-8.73,5.45Z" transform="translate(-101.05 -66.1)"/><path class="cls-25" d="M180.51,229.59a3.07,3.07,0,0,0-.84-1.73c8.07,3.51,1.06,5.12,15.64,6.49,7.89.75,9.18,1.74,10.88,2.62-2.22-.35-6.3-2.08-10.46-1.49C191.85,236,180.29,233.4,180.51,229.59Z" transform="translate(-101.05 -66.1)"/><path class="cls-24" d="M284.88,230.1a5,5,0,0,1-1.91.42c-4.5.13-8.64.55-13.15-.21-2.07-.35-4.11-.77-6.15-1.23h-5.91c-.82.9-2.58,0-2.45,1.31-.22,3.81,11.92,6.48,15.79,5.93,4.16-.59,9,1.12,11.24,1.47a30.11,30.11,0,0,0-1.52-3.56,18.74,18.74,0,0,0,5.94-1.56C287.53,230.87,286.39,230.39,284.88,230.1Z" transform="translate(-101.05 -66.1)"/><path class="cls-25" d="M258.47,224.8c2.66-1.61,1.08-4.05,2.4-4.56,3.95,1,17.27-5.31,19.35-3,0,0,5.16,6-5.29,11.37C270.92,224.26,255.59,227.09,258.47,224.8Z" transform="translate(-101.05 -66.1)"/><path class="cls-26" d="M281.33,231.33c-12.38,6.46-12.55-4.91-9.8-7.28,4.69-.48,7-2.31,12.88-2.11.94,0,2-.12,2.28-.68C283.22,225.53,284.58,229.33,281.33,231.33Z" transform="translate(-101.05 -66.1)"/><path class="cls-25" d="M264.32,212.2c2.66-1.62,2.43-2.48,5.33-1.73,3.94,1,6.94.16,9,2.48,0,0-2.64,4.79-5.38,5.66C269.27,214.25,261.44,214.49,264.32,212.2Z" transform="translate(-101.05 -66.1)"/><path class="cls-27" d="M264.08,212.3c-1.07.59-3.44,1.39-3.62,2.43,1-.6,2.35-1.73,7.55,2.25,5.4,4.14,13.77.37,11.53-2.89-3-4.36-3.11-.34-3.71-.09C266.73,217.76,266.28,211.1,264.08,212.3Z" transform="translate(-101.05 -66.1)"/><path class="cls-27" d="M272.11,203c-3.73,6,3.49,5.58,3.7,10.73C279.78,205.71,269,209.34,272.11,203Z" transform="translate(-101.05 -66.1)"/><path class="cls-26" d="M272.11,203c-3.12,5.18,3.95,6.09,3.7,10.73C269.8,211,267.86,207.92,272.11,203Z" transform="translate(-101.05 -66.1)"/><path class="cls-27" d="M272.11,203c-6.55,4.46-8.51,8.48-1.89,10.19,3.95,1,4.52-.22,5.59.54,0,0,.54-1.49-1.9-2.63C271.11,209.8,268.46,207.62,272.11,203Z" transform="translate(-101.05 -66.1)"/><path class="cls-28" d="M271.78,203.27c-1.32,1.46-8.25,5.36,1.39,9C268.65,209.24,268.66,207.23,271.78,203.27Z" transform="translate(-101.05 -66.1)"/><path class="cls-26" d="M266.14,209.7c0,1.45,1.22,2.62,4.11,3.36,3.95,1,4.32-.19,5.56.67,0,0-.87.17-3.6,1C269.3,215.69,265.18,213.37,266.14,209.7Z" transform="translate(-101.05 -66.1)"/><path class="cls-28" d="M272.11,203c-1.57,4.19,3.4,2.94,4.43,6.73C275.49,206.87,269.6,208.05,272.11,203Z" transform="translate(-101.05 -66.1)"/><path class="cls-26" d="M260.9,220.06c.72-1.71-.74-5.16-.44-5.33,1-.6,2.35-2,7.55,1.93,5.4,4.14,13.77.69,11.53-2.57,1.93,2.25-1.51,5.33-2,5.75C269.26,226.84,260.37,221.32,260.9,220.06Z" transform="translate(-101.05 -66.1)"/><path class="cls-27" d="M260.78,220.24c-3.61-.12-5.56,1.63-6.56,3.78s6,6.47,14,6.2,11.6,5.77,13.3,6.64c-1.23-3.77-5.22-10.92-8.7-12S260.56,224.05,260.78,220.24Z" transform="translate(-101.05 -66.1)"/><path class="cls-28" d="M260.46,214.73c1-.6,2.35-1.64,7.54,2.34,5.41,4.13,14.13.24,11.54-3,1.31,2.76-4.79,3.21-8.84,2C266.37,214.85,262.16,212.59,260.46,214.73Z" transform="translate(-101.05 -66.1)"/><path class="cls-28" d="M279.1,233.44c-.68-.85-6.09-5.11-13.57-5.5-7.08-.38-15-5.63-5.92-7.42-2.5,2.2.6,4.73,4.87,5.12C269.32,226.07,273.35,224,279.1,233.44Z" transform="translate(-101.05 -66.1)"/><path class="cls-26" d="M255.82,229.49c-.19-1.74-1.51-1.33-1.65-4.68.6,2.26,7.05,5.11,14.18,4.87,8-.28,11.44,6.31,13.14,7.18-2.22-.34-6.3-2.07-10.46-1.48C267.16,235.93,255.59,233.3,255.82,229.49Z" transform="translate(-101.05 -66.1)"/><path class="cls-27" d="M280.22,217.25c-.46,2.81-6.34,6.15-8.69,6.8,5.83,1.2,7-2.31,12.88-2.11C287.55,222,287.8,217.5,280.22,217.25Z" transform="translate(-101.05 -66.1)"/><path class="cls-28" d="M280.22,217.25c4.5.87,5.65,2.29,4.28,3.33-1.06.79-4.32,1.19-4.34,1.94a36.11,36.11,0,0,1,4.77-.38C288.07,222.24,287.8,217.5,280.22,217.25Z" transform="translate(-101.05 -66.1)"/><path class="cls-26" d="M277.67,229.39c.68,1,2.31,3.77,2.33,4a21.22,21.22,0,0,0,6-1.42c1-2.39,2.7-3,3-5.86C289.33,223.55,282.93,230,277.67,229.39Z" transform="translate(-101.05 -66.1)"/><path class="cls-27" d="M277.73,229.47c4.31-1.15,6-2.58,6.59-3.94a5.54,5.54,0,0,1,1-2.16c1.64.11,4.13.18,3.74,2.7S281,229.25,277.73,229.47Z" transform="translate(-101.05 -66.1)"/><path class="cls-25" d="M277.73,229.47c4.31-1.15,6-2.58,6.59-3.94a5.54,5.54,0,0,1,1-2.16l.3-.53c-2.79.58-1.24,4.57-8.73,5.44Z" transform="translate(-101.05 -66.1)"/><path class="cls-25" d="M255.82,229.49a3.28,3.28,0,0,0-.84-1.74c8.06,3.52,1,5.13,15.63,6.5,7.89.74,9.18,1.74,10.88,2.61-2.22-.34-6.3-2.07-10.46-1.48C267.16,235.93,255.59,233.3,255.82,229.49Z" transform="translate(-101.05 -66.1)"/><path class="cls-19" d="M164.69,220.14c.94,1.92,2,4.54,1.8,5.42-.13.68-3.17,1-4.21,1.64,3.47-.9,10.48-4.41,11.36-1.85.67,2,3.13,2.93,2.92,3.84a6.51,6.51,0,0,1-4.1,4.28c-8.62,3.41-22.46,2-26.22-.29-1.85-1.6-2.27-4.08-1.72-6.67.33-1.56,3.36-4.75,5.12-5.81C155.42,216.87,163.31,217.3,164.69,220.14Z" transform="translate(-101.05 -66.1)"/><path class="cls-21" d="M165,218.55c.87,1.9,1.31,3,1.14,3.86-.14.69-2.5,2.59-3.49,3.21,3.29-.93,11.5-4.73,12.31-2.18.61,1.94,1.18,4.4,1,5.31s-1.93,2.42-3.65,3.15c-7.3,3.06-24.21,1.7-25.45.37a11.28,11.28,0,0,1-1-7.16c.33-1.56,1.5-2.66,1.74-3.91C153.05,217.32,163.69,215.73,165,218.55Z" transform="translate(-101.05 -66.1)"/><path class="cls-20" d="M147.75,220.7c.73-.52,2.73.09,3.64-.33l-4.59,11.9h0c-1.19-1.36-1.55-4.57-1-7.16A12.65,12.65,0,0,1,147.75,220.7Z" transform="translate(-101.05 -66.1)"/><path class="cls-20" d="M172.8,226.05c.48,1.62.92,3.2,1.31,4.77a4.82,4.82,0,0,0,1.79-2.07c.21-.91-.36-3.37-1-5.31-.26-.81-1.48-.48-3,.05C172.24,224.34,172.53,225.19,172.8,226.05Z" transform="translate(-101.05 -66.1)"/><path class="cls-22" d="M163.32,217.11c2.42,1.14,2.35,3,.07,4.39,3.3-.93,7.4-.85,9.81.3,2.8,1.32,2.27,3.57-1.18,5-7.29,3.06-20.35.85-23.49.91.32-1.39-4.76-6.95,3.48-10.4C155.46,215.88,160.52,215.78,163.32,217.11Z" transform="translate(-101.05 -66.1)"/><path class="cls-23" d="M152.47,219.42c3.45-1.45,8.52-1.54,11.32-.22a4.14,4.14,0,0,1,1.12.77c.5-1,0-2.1-1.59-2.86-2.8-1.33-7.86-1.23-11.31.22-5.53,2.31-5.06,5.57-4.25,7.89C147.62,223.27,148.48,221.1,152.47,219.42Z" transform="translate(-101.05 -66.1)"/><path class="cls-19" d="M238,222.57c1,1.94,2,4.6,1.83,5.5-.14.69-3.22,1-4.28,1.66a64.43,64.43,0,0,1,11.53-1.88c2.33-.06,3.17,3,3,3.89a6.56,6.56,0,0,1-4.16,4.34c-8.75,3.47-22.78,2-26.59-.28-1.89-1.63-2.31-4.14-1.75-6.77.34-1.58,3.41-4.82,5.2-5.9C228.61,219.25,236.61,219.69,238,222.57Z" transform="translate(-101.05 -66.1)"/><path class="cls-21" d="M238,221.15c.86,1.9,1.31,3,1.13,3.87-.13.68-2.5,2.59-3.49,3.2,3.3-.92,11.52-4.73,12.33-2.18.61,2,1.18,4.41,1,5.32s-1.93,2.43-3.66,3.15c-7.3,3.07-24.23,1.71-25.47.38a11.32,11.32,0,0,1-1-7.17c.33-1.56,1.5-2.66,1.73-3.92C226.07,219.92,236.73,218.32,238,221.15Z" transform="translate(-101.05 -66.1)"/><path class="cls-20" d="M220.77,223.3c.73-.51,2.73.09,3.65-.33l-4.6,11.92h0c-1.2-1.37-1.55-4.58-1-7.17A12.7,12.7,0,0,1,220.77,223.3Z" transform="translate(-101.05 -66.1)"/><path class="cls-20" d="M245.84,228.66c.49,1.62.93,3.2,1.32,4.77a4.76,4.76,0,0,0,1.79-2.07c.21-.91-.36-3.37-1-5.32-.26-.81-1.48-.47-3,.05C245.28,226.94,245.57,227.8,245.84,228.66Z" transform="translate(-101.05 -66.1)"/><path class="cls-22" d="M236.36,219.71c2.41,1.14,2.35,3,.07,4.39,3.3-.93,7.4-.85,9.82.3,2.8,1.33,2.27,3.58-1.18,5-7.31,3.06-20.38.85-23.52.91.32-1.39-4.77-7,3.48-10.42C228.49,218.48,233.56,218.38,236.36,219.71Z" transform="translate(-101.05 -66.1)"/><path class="cls-23" d="M225.5,222c3.45-1.45,8.52-1.55,11.32-.22a4.21,4.21,0,0,1,1.13.77c.5-1,0-2.1-1.59-2.86-2.8-1.33-7.87-1.23-11.33.21-5.53,2.33-5.06,5.59-4.25,7.91C220.64,225.87,221.49,223.7,225.5,222Z" transform="translate(-101.05 -66.1)"/><path class="cls-19" d="M160.63,213.27c0,.24-.55.49-1.28.57s-1.35-.05-1.38-.29.55-.49,1.29-.57S160.6,213,160.63,213.27Z" transform="translate(-101.05 -66.1)"/><path class="cls-29" d="M159.89,213c.09.14-.07.4-.35.6h0c-.29.19-.6.23-.69.1l-28.64-42.57c-.09-.14.07-.41.36-.6h0c.28-.19.59-.24.68-.1Z" transform="translate(-101.05 -66.1)"/><path class="cls-30" d="M159.31,213.11a.22.22,0,0,1-.06.29h0a.2.2,0,0,1-.28-.06l-26.75-39.76a.2.2,0,0,1,.06-.28h0a.2.2,0,0,1,.28,0Z" transform="translate(-101.05 -66.1)"/><path class="cls-31" d="M122.81,155.43l5.28,3,5.48-2.63c2.21-1.06,3.6,0,3.1,2.43l-1.24,5.95,4.19,4.4c1.7,1.78,1.1,3.44-1.35,3.7l-6,.66-2.89,5.35c-1.17,2.16-2.93,2.1-3.94-.14l-2.49-5.55-6-1.09c-2.42-.44-2.9-2.14-1.08-3.79l4.5-4.08-.81-6C119.21,155.19,120.68,154.21,122.81,155.43Z" transform="translate(-101.05 -66.1)"/><path class="cls-32" d="M129.08,170.47a23.56,23.56,0,0,0-1.12,4.19c-.12.7.09,1.63-.5,2.17s-1.35-.66-1.62-1.19a19,19,0,0,0-1.55-3.33c-.89-1.13-2-.93-3.23-1.05-.74-.07-1.4-.23-2.12-.36s-1.81.13-2.23-.47,1-1.7,1.41-2c.87-.71,1.67-1.52,2.53-2.25.56-.47,1.64-1.06,1.82-1.79a10,10,0,0,0-.06-2.83,22.42,22.42,0,0,0-.82-3.2c-.29-1.06-.28-1.7,1-1.15a18.09,18.09,0,0,1,3.27,2c1.17.85,2.33,1.37,3.64.61a24.13,24.13,0,0,1,2.32-1c.58-.25,1.5-.86,2.16-.78.95.13.13,1.3-.18,1.74a34.9,34.9,0,0,0-1.87,2.95,13,13,0,0,0-1,1.74,11.53,11.53,0,0,0-.26,1.68,27.32,27.32,0,0,1-1.35,3.84C129.21,170.12,129.15,170.3,129.08,170.47Z" transform="translate(-101.05 -66.1)"/><path class="cls-33" d="M122,164.05a2.86,2.86,0,0,1-1.16,1.25c-2,1.26-3.33,3-5.12,4.47-.29-.5.34-1.09.7-1.41,1.29-1.18,2.55-2.42,3.89-3.55,1.1-.93.78-1.79.63-3.06s-.29-2.29-.46-3.44c0-.26-.07-.53-.1-.79-.07-.5-.13-1.32.35-1.64a13.57,13.57,0,0,1,.14,1.47c.08.52.18,1,.26,1.56a29.94,29.94,0,0,0,.9,3.5A2.46,2.46,0,0,1,122,164.05Z" transform="translate(-101.05 -66.1)"/><path class="cls-34" d="M131.6,171.87a2.91,2.91,0,0,1,1.68-.3c2.31.18,4.48-.39,6.78-.46-.07.57-.93.66-1.41.7-1.74.15-3.5.38-5.24.48-1.45.08-1.71,1-2.35,2.05s-1.16,2-1.72,3l-.39.7c-.25.43-.69,1.13-1.27,1.09a14.07,14.07,0,0,1,.77-1.25c.26-.46.48-.94.74-1.4a30.19,30.19,0,0,0,1.39-3.34A2.57,2.57,0,0,1,131.6,171.87Z" transform="translate(-101.05 -66.1)"/><path class="cls-33" d="M131.57,158l1-.43a9.74,9.74,0,0,1,2.54-.95c.39-.06,1.61-.27.8-.78-1-.67-2.75.5-3.6,1-.65.38-1.35.69-2,1-.19.1-2.08.9-1.81,1.1.47.34,1.34-.14,1.79-.36S131.13,158.19,131.57,158Z" transform="translate(-101.05 -66.1)"/><path class="cls-33" d="M124.88,174.71c.16.32.32.64.49,1a9.6,9.6,0,0,0,1.34,2.35c.26.3,1.06,1.24.12,1.12-1.23-.16-1.8-2.15-2.13-3.08-.25-.7-.59-1.39-.89-2.09-.08-.19-1-2-.69-2,.59,0,.95,1,1.15,1.41S124.67,174.27,124.88,174.71Z" transform="translate(-101.05 -66.1)"/><path class="cls-34" d="M135.79,160.19c-.09.35-.17.7-.26,1.05a9.72,9.72,0,0,0-.52,2.66c0,.39,0,1.63-.64.92-.83-.93,0-2.8.4-3.72.27-.7.46-1.44.7-2.16.06-.2.54-2.2.78-2,.42.41.09,1.35-.06,1.82S135.92,159.73,135.79,160.19Z" transform="translate(-101.05 -66.1)"/><path class="cls-19" d="M249.61,199.32c0,.24-.6.44-1.33.45s-1.34-.18-1.34-.42.59-.44,1.33-.45S249.6,199.08,249.61,199.32Z" transform="translate(-101.05 -66.1)"/><path class="cls-29" d="M249,199.46c0,.16-.34.23-.67.16h0c-.34-.08-.59-.27-.55-.43l11.13-50.08c0-.16.33-.23.67-.16h0c.34.08.58.27.55.43Z" transform="translate(-101.05 -66.1)"/><path class="cls-30" d="M248.49,199.13a.21.21,0,0,1-.24.16h0a.22.22,0,0,1-.16-.25l10.39-46.77a.22.22,0,0,1,.25-.16h0a.2.2,0,0,1,.15.24Z" transform="translate(-101.05 -66.1)"/><path class="cls-35" d="M265.16,132.94l1.44,5.91,5.69,2.16c2.3.87,2.46,2.62.37,3.92l-5.17,3.2-.29,6.07c-.12,2.46-1.74,3.16-3.62,1.57l-4.64-3.93-5.87,1.6c-2.37.64-3.54-.68-2.61-3l2.31-5.62-3.33-5.09c-1.35-2.06-.45-3.58,2-3.4l6.06.46,3.81-4.74C262.85,130.17,264.57,130.55,265.16,132.94Z" transform="translate(-101.05 -66.1)"/><path class="cls-36" d="M258.58,147.85a23.35,23.35,0,0,0-3.81,2.07c-.59.4-1.12,1.19-1.92,1.13-1-.08-.46-1.43-.26-2a18.85,18.85,0,0,0,1.35-3.42c.21-1.42-.67-2.07-1.46-3.07-.46-.58-.8-1.17-1.2-1.78s-1.34-1.22-1.19-1.93,1.92-.46,2.44-.39c1.12.14,2.26.16,3.38.28.72.08,1.9.46,2.54.09a9.57,9.57,0,0,0,2-2,21.2,21.2,0,0,0,1.75-2.8c.57-.94,1-1.37,1.49-.1a18.14,18.14,0,0,1,.78,3.78c.18,1.43.61,2.63,2.06,3.06a21.84,21.84,0,0,1,2.35,1c.59.25,1.66.5,2.05,1,.57.78-.85,1-1.38,1.06-1.15.17-2.29.41-3.42.68a5.13,5.13,0,0,0-3.34,1.46,28.12,28.12,0,0,1-3.72,1.66Z" transform="translate(-101.05 -66.1)"/><path class="cls-37" d="M258.34,138.28a2.79,2.79,0,0,1-1.7,0c-2.26-.55-4.48-.34-6.77-.64.16-.55,1-.5,1.51-.46,1.74.13,3.51.18,5.25.37,1.43.16,1.83-.67,2.65-1.65s1.46-1.79,2.18-2.7l.5-.62c.32-.39.86-1,1.43-.88a12.07,12.07,0,0,1-1,1.11c-.33.42-.63.86-1,1.27a27.07,27.07,0,0,0-1.91,3.07A2.49,2.49,0,0,1,258.34,138.28Z" transform="translate(-101.05 -66.1)"/><path class="cls-20" d="M259.3,150.64a2.85,2.85,0,0,1,1.37,1c1.47,1.8,3.37,3,5,4.59-.46.35-1.12-.22-1.48-.54-1.31-1.15-2.69-2.27-4-3.47-1.05-1-1.87-.57-3.11-.28s-2.25.55-3.37.84L253,153c-.49.12-1.3.28-1.67-.16a12.63,12.63,0,0,1,1.44-.31c.51-.13,1-.3,1.53-.43a30.41,30.41,0,0,0,3.37-1.29A2.46,2.46,0,0,1,259.3,150.64Z" transform="translate(-101.05 -66.1)"/><path class="cls-37" d="M269.34,141.06q.5.19,1,.42a9.49,9.49,0,0,1,2.44,1.18c.31.24,1.3,1,1.12.05-.24-1.22-2.26-1.65-3.21-1.92-.72-.21-1.43-.51-2.14-.75-.2-.07-2.09-.9-2.05-.56.08.58,1,.88,1.49,1.05S268.89,140.87,269.34,141.06Z" transform="translate(-101.05 -66.1)"/><path class="cls-37" d="M252.62,147.72c-.13.34-.25.67-.37,1a9.8,9.8,0,0,0-.78,2.59c0,.39-.16,1.62-.73.85-.73-1,.33-2.78.77-3.65.33-.68.6-1.4.9-2.09.09-.19.76-2.14,1-1.88.38.45,0,1.35-.24,1.81S252.79,147.27,252.62,147.72Z" transform="translate(-101.05 -66.1)"/><path class="cls-20" d="M270.65,145.63l-.94.53a10.09,10.09,0,0,0-2.29,1.45c-.28.28-1.18,1.12-1.1.18.1-1.24,2.06-1.9,3-2.27.7-.29,1.37-.66,2.05-1,.19-.09,2-1.12,2-.79,0,.59-.91,1-1.36,1.22S271.08,145.4,270.65,145.63Z" transform="translate(-101.05 -66.1)"/><path class="cls-19" d="M297.5,217c0,.39-1.11.65-2.43.58s-2.38-.42-2.36-.8,1.1-.65,2.43-.58S297.52,216.57,297.5,217Z" transform="translate(-101.05 -66.1)"/><path class="cls-38" d="M295.27,216.91c-.07.21-.49.27-.95.13h0c-.46-.14-.77-.43-.7-.65l21.24-67.71c.07-.22.49-.28.95-.14h0c.45.15.77.44.7.65Z" transform="translate(-101.05 -66.1)"/><path class="cls-39" d="M294.62,216.39a.29.29,0,0,1-.36.19h0a.28.28,0,0,1-.18-.36L313.92,153a.27.27,0,0,1,.35-.18h0a.28.28,0,0,1,.19.35Z" transform="translate(-101.05 -66.1)"/><path class="cls-40" d="M325.39,127.14l1.3,8.31,7.58,3.64c3.06,1.48,3.09,3.92.06,5.45l-7.51,3.8-1.13,8.34c-.45,3.37-2.76,4.14-5.16,1.73l-5.93-6-8.28,1.5c-3.34.61-4.8-1.35-3.24-4.37l3.83-7.48-4-7.41c-1.61-3-.19-5,3.16-4.44l8.31,1.34,5.81-6.09C322.54,123.05,324.87,123.78,325.39,127.14Z" transform="translate(-101.05 -66.1)"/><path class="cls-41" d="M314.57,146.91a31.69,31.69,0,0,0-5.5,2.4c-.85.48-1.68,1.51-2.77,1.33-1.31-.22-.46-2-.12-2.78.69-1.53,1.87-2.89,2.26-4.55.45-1.93-.69-2.92-1.66-4.39-.56-.86-1-1.71-1.44-2.6s-1.7-1.84-1.42-2.81,2.7-.4,3.42-.24c1.52.32,3.09.49,4.62.78,1,.2,2.57.86,3.5.42a13.31,13.31,0,0,0,3-2.51,29.72,29.72,0,0,0,2.74-3.65c.9-1.23,1.61-1.77,2.08,0a26.09,26.09,0,0,1,.62,5.29c.09,2,.53,3.7,2.48,4.47a31.8,31.8,0,0,1,3.13,1.6c.77.41,2.22.87,2.7,1.66.69,1.13-1.29,1.26-2,1.3a48.25,48.25,0,0,0-4.8.53,17.85,17.85,0,0,0-2.73.44,16.54,16.54,0,0,0-2,1.17,38.53,38.53,0,0,1-5.32,1.86C315.05,146.74,314.81,146.82,314.57,146.91Z" transform="translate(-101.05 -66.1)"/><path class="cls-42" d="M315.37,133.69a4,4,0,0,1-2.35-.16c-3-1-6.14-1-9.25-1.69.29-.73,1.47-.56,2.13-.45,2.39.38,4.82.67,7.19,1.13,2,.39,2.61-.7,3.85-2s2.23-2.31,3.33-3.47l.76-.8c.48-.5,1.31-1.28,2.07-1a17.94,17.94,0,0,1-1.46,1.42c-.5.54-1,1.1-1.47,1.63a41.84,41.84,0,0,0-3,4A3.35,3.35,0,0,1,315.37,133.69Z" transform="translate(-101.05 -66.1)"/><path class="cls-43" d="M315.23,150.84a3.93,3.93,0,0,1,1.78,1.55c1.8,2.65,4.29,4.5,6.35,6.92-.67.42-1.51-.44-2-.92-1.67-1.75-3.44-3.44-5.05-5.24-1.33-1.49-2.51-1-4.25-.77-1.58.23-3.16.49-4.74.76l-1.09.17c-.69.12-1.82.24-2.28-.42.58-.18,1.38-.13,2-.25s1.43-.29,2.15-.41a39.53,39.53,0,0,0,4.81-1.39A3.45,3.45,0,0,1,315.23,150.84Z" transform="translate(-101.05 -66.1)"/><path class="cls-42" d="M330.2,138.81l1.32.7a13.59,13.59,0,0,1,3.22,1.92c.4.37,1.67,1.5,1.53.2-.18-1.71-2.92-2.55-4.18-3-1-.37-1.92-.86-2.88-1.29-.26-.11-2.77-1.47-2.75-1,0,.81,1.31,1.34,1.93,1.63S329.6,138.51,330.2,138.81Z" transform="translate(-101.05 -66.1)"/><path class="cls-42" d="M306.37,146l-.63,1.35a13.88,13.88,0,0,0-1.38,3.48c-.09.54-.42,2.22-1.1,1.1-.89-1.47.77-3.8,1.48-5,.55-.88,1-1.84,1.5-2.76.14-.26,1.3-2.86,1.56-2.48.47.67-.22,1.85-.54,2.46S306.65,145.42,306.37,146Z" transform="translate(-101.05 -66.1)"/><path class="cls-43" d="M331.47,145.28l-1.36.61a14,14,0,0,0-3.32,1.73c-.43.35-1.76,1.41-1.55.11.28-1.69,3.07-2.37,4.36-2.78,1-.31,2-.75,2.94-1.11.27-.11,2.85-1.32,2.8-.86-.08.81-1.37,1.26-2,1.51S332.08,145,331.47,145.28Z" transform="translate(-101.05 -66.1)"/><path class="cls-19" d="M224.63,207.83a15.38,15.38,0,0,0-6.16,1.24c-.9.36-3.27,1.36-2.9,2.67.19.65.8.77,1.32,1.06.91.5,1.81.89,2.75,1.32,1.52.68,3.27,1.73,5,1.22.7-.21,1.32-.68,2-.9a7.27,7.27,0,0,1,2-.16c2.17,0,4.43-.06,6.33-1.22,1.62-1,.16-2.18-1-2.81A20.23,20.23,0,0,0,224.63,207.83Z" transform="translate(-101.05 -66.1)"/><path class="cls-44" d="M233.08,83.18a15,15,0,0,1-2.93,6c-2,2.39-5.91,4.41-8.24,1.35-1.87-2.46-1.29-6.3-.53-9.07a54.15,54.15,0,0,0,1.68-7.12c.26-1.94.17-3.95.51-5.88.83-4.68,4.45-1.27,6,1.08C232.27,73.43,234,78.43,233.08,83.18Z" transform="translate(-101.05 -66.1)"/><path class="cls-45" d="M232.33,83a16,16,0,0,1-1.52,3.5c-1.06,1.87-2,3.32-4.11,4.08a4.15,4.15,0,0,1-4.06-1c-3.2-2.68-.74-7.29.23-10.43a7.8,7.8,0,0,1,1.28-3c.19.69.56,3.67,1.37,3.82,1.18.23,1.12-2.89,1.22-3.56.26.19.6,1,.94.88s.41-1.36.41-1.69A14.58,14.58,0,0,0,228,73.1a10.07,10.07,0,0,1-.27-2.32c.89.12,1.44,2.79,1.74,3.56s.57,1.54.81,2.35a5.31,5.31,0,0,0,.49,1.58c0-.21.19-1.21.44-1.24s.36.78.46,1c.14-.15.25-.4.41-.55a9.15,9.15,0,0,1,.56,3A8.34,8.34,0,0,1,232.33,83Z" transform="translate(-101.05 -66.1)"/><path class="cls-46" d="M225,97.79c-.12-.18-2.86-4.56.46-12l.91.41c-3.08,6.88-.56,11-.53,11Z" transform="translate(-101.05 -66.1)"/><path class="cls-31" d="M235,211.4c0,1.3-2.91,2-8.47,1.87-.82,0-3.26,1.66-4.15,1.13-3.48-2.08-6.3-1.7-6.3-3,0-3.74,0-7.49,0-11.24,0-9-.07-18,0-27.07.07-10.75-.21-21.51,0-32.24.17-8.87-.5-17.86,0-26.7a58.93,58.93,0,0,0,0-8c-.44-5.13,7-12.52,12.32-9.32,2.91,1.75,5.9,4.16,6.46,7.66.36,2.26,0,5.67.07,8,.3,8.48.15,17,0,25.54-.23,19.87,0,39.77,0,59.65C235,202.27,235.05,206.84,235,211.4Z" transform="translate(-101.05 -66.1)"/><path class="cls-47" d="M235.11,132.9c0,1.72-.05,3.44-.07,5.16s0,3.49,0,5.23a18.82,18.82,0,0,1-9.25,10.52c-5,2.59-8,4.87-9.69,7.41q0-5,0-10.06c1.7-2.57,4.69-4.87,9.74-7.48A18.86,18.86,0,0,0,235.11,132.9Zm-9.35,68.78c-4.95,2.56-7.92,4.83-9.64,7.34v2.38c0,1.18,2.62,1.28,5.91,2.78a35.92,35.92,0,0,1,3.73-2.37A18.8,18.8,0,0,0,235,201.23v-3.52c0-2.19,0-4.39,0-6.58A18.84,18.84,0,0,1,225.76,201.68Zm0-96.67c-4.88,2.53-7.84,4.77-9.57,7.24,0,.65-.06,1.28-.1,1.9-.17,2.87-.2,5.76-.19,8.66,1.69-2.64,4.7-5,9.86-7.67A18.78,18.78,0,0,0,235,104.79l0-.27a8.83,8.83,0,0,0-2.73-4.85A18.83,18.83,0,0,1,225.76,105Zm0,19.33c-5,2.61-8,4.9-9.72,7.46.06,3,.1,6,0,9,0,.34,0,.69,0,1,1.72-2.53,4.7-4.82,9.69-7.4a18.87,18.87,0,0,0,9.4-10.94c0-3.25,0-6.5-.14-9.74A18.8,18.8,0,0,1,225.76,124.34Zm0,58c-5,2.59-8,4.86-9.67,7.39,0,3.37,0,6.74,0,10.11,1.72-2.52,4.7-4.79,9.66-7.36A18.82,18.82,0,0,0,235,182q0-5,0-10A18.74,18.74,0,0,1,225.76,182.34ZM235,152.65A18.83,18.83,0,0,1,225.76,163c-5,2.58-7.95,4.85-9.67,7.38,0,.9,0,1.8,0,2.7,0,2.48,0,5,0,7.44,1.71-2.53,4.69-4.81,9.67-7.39a18.83,18.83,0,0,0,9.2-10.37C235,159.4,234.94,156,235,152.65Z" transform="translate(-101.05 -66.1)"/><path class="cls-48" d="M221.67,210.52a1.75,1.75,0,0,1-1.75,1.75h0a1.75,1.75,0,0,1-1.75-1.75V107.27a1.75,1.75,0,0,1,1.75-1.75h0a1.75,1.75,0,0,1,1.75,1.75Z" transform="translate(-101.05 -66.1)"/><path class="cls-49" d="M233.92,210.52a1.75,1.75,0,0,1-1.75,1.75h0a1.75,1.75,0,0,1-1.75-1.75V107.27a1.75,1.75,0,0,1,1.75-1.75h0a1.75,1.75,0,0,1,1.75,1.75Z" transform="translate(-101.05 -66.1)"/><path class="cls-48" d="M227,101.62a6.47,6.47,0,0,0-1.15.26c1.92-1.32,3-3,2.44-4.08-.67-1.36-3.48-1.33-6.3,0s-4.55,3.6-3.88,5,3.38,1.33,6.14,0a1.11,1.11,0,0,0-.35.87c.12.88,1.71,1.39,3.55,1.14s3.22-1.18,3.1-2.06S228.82,101.36,227,101.62Z" transform="translate(-101.05 -66.1)"/><path class="cls-50" d="M224.12,95.29a5.16,5.16,0,0,1-.25-1.43,21.12,21.12,0,0,1,0-2.25,22.53,22.53,0,0,1,.25-3.28,8.29,8.29,0,0,1,1.08-3.47c.75-1.07,2.16.2,1.94,1.22a5.62,5.62,0,0,1-.62,1.34c-.4.79-.91,1.59-1.25,2.41a7,7,0,0,0-.18,2.5c0,.27,0,1.18,0,2.6-.32-.18-.39-2.91-.4-3.25-.39.33-.38,1.24-.43,1.72S224.38,95.06,224.12,95.29Z" transform="translate(-101.05 -66.1)"/><path class="cls-19" d="M214,206c-.87,1.17-4.51,1.81-8.13,1.44s-5.87-1.63-5-2.8,4.5-1.82,8.13-1.44S214.89,204.82,214,206Z" transform="translate(-101.05 -66.1)"/><path class="cls-51" d="M213.37,205.59c-.85,1-3.13,1.78-7.51,1.41-3.27-.29-5-1.26-4.68-2.53a4.47,4.47,0,0,1,.94-1.8c1.33-1.52,7.64,0,10.55.34a6,6,0,0,1,.9,2.07A.66.66,0,0,1,213.37,205.59Z" transform="translate(-101.05 -66.1)"/><path class="cls-52" d="M210.42,202.69c-1.53-.25-3.3-.54-4.84-.64-.6,1.55-1.27,3.07-2,4.58a14.86,14.86,0,0,0,2.25.37,13.82,13.82,0,0,0,6.13-.53C211.44,205.22,210.91,204,210.42,202.69Z" transform="translate(-101.05 -66.1)"/><path class="cls-53" d="M212.6,203.75c-.76.87-3.72,1.33-6.61,1s-4.63-1.24-3.87-2.11,3.72-1.32,6.61-1S213.36,202.89,212.6,203.75Z" transform="translate(-101.05 -66.1)"/><path class="cls-54" d="M203,203c.69-.79,3.4-1.21,6-.93,2.08.21,3.48.79,3.65,1.41.28-.79-1.36-1.59-4-1.86-2.89-.3-5.85.16-6.61,1-.59.67.34,1.39,2.15,1.82C203.11,204.1,202.58,203.55,203,203Z" transform="translate(-101.05 -66.1)"/><path class="cls-19" d="M264.36,211.24c-.59.74-3,1.07-5.34.74s-3.79-1.2-3.2-1.95,3-1.07,5.34-.74S265,210.49,264.36,211.24Z" transform="translate(-101.05 -66.1)"/><path class="cls-55" d="M263.94,211c-.58.61-2.08,1.08-4.93.73-2.13-.26-3.2-.94-3-1.76a2.87,2.87,0,0,1,.65-1.15c.91-1,5,.21,6.88.48a3.8,3.8,0,0,1,.54,1.37A.45.45,0,0,1,263.94,211Z" transform="translate(-101.05 -66.1)"/><path class="cls-56" d="M262.09,209c-1-.2-2.15-.43-3.15-.53-.43,1-.9,2-1.39,2.94a9.17,9.17,0,0,0,1.46.29,9,9,0,0,0,4-.19C262.69,210.67,262.37,209.83,262.09,209Z" transform="translate(-101.05 -66.1)"/><path class="cls-57" d="M263.48,209.74c-.51.54-2.46.77-4.34.51s-3-.92-2.47-1.47,2.46-.77,4.34-.51S264,209.19,263.48,209.74Z" transform="translate(-101.05 -66.1)"/><path class="cls-58" d="M257.25,209c.48-.5,2.25-.71,4-.47,1.35.19,2.25.6,2.35,1,.2-.51-.85-1.07-2.56-1.31-1.88-.26-3.82,0-4.34.51s.19.92,1.36,1.24C257.28,209.73,257,209.36,257.25,209Z" transform="translate(-101.05 -66.1)"/><path class="cls-19" d="M221,219.58c-.44.56-2.23.81-4,.56s-2.83-.9-2.39-1.46,2.23-.8,4-.55S221.39,219,221,219.58Z" transform="translate(-101.05 -66.1)"/><path class="cls-59" d="M220.64,219.37c-.44.46-1.56.82-3.69.55-1.59-.19-2.39-.7-2.24-1.31a2.14,2.14,0,0,1,.5-.86c.67-.72,3.72.15,5.13.35a3,3,0,0,1,.41,1A.33.33,0,0,1,220.64,219.37Z" transform="translate(-101.05 -66.1)"/><path class="cls-60" d="M219.25,217.9c-.74-.14-1.6-.32-2.35-.39-.32.74-.67,1.47-1,2.19a5.81,5.81,0,0,0,1.09.22,6.71,6.71,0,0,0,3-.14C219.7,219.16,219.47,218.53,219.25,217.9Z" transform="translate(-101.05 -66.1)"/><path class="cls-61" d="M220.29,218.46c-.38.41-1.83.58-3.24.38s-2.23-.69-1.84-1.09,1.83-.58,3.24-.38S220.68,218.06,220.29,218.46Z" transform="translate(-101.05 -66.1)"/><path class="cls-62" d="M215.64,217.94a4.44,4.44,0,0,1,3-.35c1,.14,1.69.45,1.76.76.15-.38-.64-.8-1.91-1s-2.86,0-3.24.38.14.68,1,.92C215.66,218.46,215.41,218.18,215.64,217.94Z" transform="translate(-101.05 -66.1)"/><path class="cls-19" d="M172.47,212.42c-.54.79-2.9,1.28-5.28,1.11s-3.86-.94-3.33-1.72,2.91-1.28,5.28-1.11S173,211.64,172.47,212.42Z" transform="translate(-101.05 -66.1)"/><path class="cls-63" d="M172,212.17c-.54.66-2,1.23-4.87,1.07-2.14-.11-3.26-.71-3.11-1.55a3,3,0,0,1,.58-1.19c.83-1,5-.13,6.89,0a3.85,3.85,0,0,1,.63,1.33A.39.39,0,0,1,172,212.17Z" transform="translate(-101.05 -66.1)"/><path class="cls-64" d="M170.05,210.34c-1-.13-2.17-.29-3.18-.32-.36,1-.77,2-1.19,3a8.36,8.36,0,0,0,1.48.19,9,9,0,0,0,4-.46C170.76,212,170.39,211.16,170.05,210.34Z" transform="translate(-101.05 -66.1)"/><path class="cls-65" d="M171.49,211c-.48.58-2.4.94-4.3.8s-3-.71-2.56-1.29,2.4-.94,4.29-.81S172,210.41,171.49,211Z" transform="translate(-101.05 -66.1)"/><path class="cls-66" d="M165.23,210.72c.43-.53,2.19-.86,3.92-.74,1.36.1,2.29.45,2.42.85.16-.52-.93-1-2.65-1.14-1.89-.13-3.81.23-4.29.81s.25.9,1.44,1.14C165.3,211.41,164.94,211.06,165.23,210.72Z" transform="translate(-101.05 -66.1)"/><path class="cls-19" d="M251.84,205.61c-.54.78-2.9,1.28-5.28,1.11s-3.86-.94-3.33-1.72,2.91-1.28,5.28-1.11S252.38,204.83,251.84,205.61Z" transform="translate(-101.05 -66.1)"/><path class="cls-67" d="M251.4,205.36c-.54.66-2,1.23-4.87,1.07-2.14-.12-3.26-.71-3.11-1.55a2.91,2.91,0,0,1,.58-1.19c.83-1,5-.13,6.89,0a3.75,3.75,0,0,1,.63,1.33A.43.43,0,0,1,251.4,205.36Z" transform="translate(-101.05 -66.1)"/><path class="cls-68" d="M249.42,203.53c-1-.13-2.17-.29-3.18-.32-.36,1-.77,2-1.19,3a9.41,9.41,0,0,0,1.48.19,8.84,8.84,0,0,0,4-.47C250.13,205.16,249.76,204.35,249.42,203.53Z" transform="translate(-101.05 -66.1)"/><path class="cls-69" d="M250.86,204.18c-.48.58-2.4.94-4.3.8s-3-.71-2.56-1.29,2.4-.94,4.29-.81S251.34,203.6,250.86,204.18Z" transform="translate(-101.05 -66.1)"/><path class="cls-70" d="M244.6,203.9c.43-.53,2.19-.86,3.92-.73,1.36.1,2.29.45,2.42.85.16-.53-.93-1-2.65-1.14-1.89-.13-3.81.23-4.29.81s.25.9,1.43,1.14C244.67,204.6,244.31,204.25,244.6,203.9Z" transform="translate(-101.05 -66.1)"/><path class="cls-19" d="M292.87,212.89c-.49.54-2.34.66-4.13.28s-2.84-1.12-2.34-1.66,2.34-.67,4.13-.29S293.37,212.35,292.87,212.89Z" transform="translate(-101.05 -66.1)"/><path class="cls-71" d="M292.57,212.65c-.48.44-1.66.72-3.82.3-1.62-.32-2.4-.89-2.2-1.51a2.27,2.27,0,0,1,.57-.85c.74-.68,3.8.43,5.24.74a3,3,0,0,1,.34,1.08A.41.41,0,0,1,292.57,212.65Z" transform="translate(-101.05 -66.1)"/><path class="cls-72" d="M291.25,211.05c-.75-.21-1.62-.45-2.38-.58-.38.74-.8,1.46-1.22,2.18a6.83,6.83,0,0,0,1.1.3,7,7,0,0,0,3.08.07C291.62,212.36,291.43,211.71,291.25,211.05Z" transform="translate(-101.05 -66.1)"/><path class="cls-73" d="M292.28,211.69c-.42.39-1.92.46-3.35.16s-2.24-.86-1.81-1.26,1.92-.46,3.35-.15S292.7,211.3,292.28,211.69Z" transform="translate(-101.05 -66.1)"/><path class="cls-74" d="M287.55,210.82a4.58,4.58,0,0,1,3.06-.14c1,.22,1.69.58,1.75.9.18-.38-.6-.87-1.89-1.14s-2.93-.24-3.35.15.09.72,1,1C287.53,211.36,287.29,211.06,287.55,210.82Z" transform="translate(-101.05 -66.1)"/><path class="cls-19" d="M255.13,220.32c-.43.59-2.26.91-4.08.73s-2.94-.81-2.51-1.4,2.25-.91,4.07-.73S255.56,219.73,255.13,220.32Z" transform="translate(-101.05 -66.1)"/><path class="cls-71" d="M254.8,220.11c-.43.5-1.57.9-3.77.72-1.64-.14-2.48-.62-2.34-1.26a2,2,0,0,1,.46-.9c.67-.77,3.83,0,5.29.15a2.94,2.94,0,0,1,.46,1A.34.34,0,0,1,254.8,220.11Z" transform="translate(-101.05 -66.1)"/><path class="cls-72" d="M253.31,218.66c-.77-.12-1.65-.26-2.42-.31-.3.78-.64,1.54-1,2.3a7.66,7.66,0,0,0,1.13.18,7,7,0,0,0,3.08-.27C253.83,219.93,253.56,219.3,253.31,218.66Z" transform="translate(-101.05 -66.1)"/><path class="cls-73" d="M254.41,219.19c-.38.44-1.87.67-3.32.53s-2.32-.62-1.94-1.05,1.87-.67,3.32-.53S254.79,218.76,254.41,219.19Z" transform="translate(-101.05 -66.1)"/><path class="cls-74" d="M249.61,218.85c.35-.4,1.7-.61,3-.48,1,.1,1.74.39,1.83.7.14-.39-.69-.79-2-.93s-2.94.09-3.32.53.18.69,1.08.91C249.65,219.38,249.38,219.11,249.61,218.85Z" transform="translate(-101.05 -66.1)"/><path class="cls-19" d="M188.74,204.85c-.54.83-3,1.4-5.46,1.28s-4.05-.9-3.5-1.73,3-1.39,5.46-1.27S189.29,204,188.74,204.85Z" transform="translate(-101.05 -66.1)"/><path class="cls-75" d="M188.29,204.6c-.55.7-2.07,1.33-5.06,1.23-2.23-.08-3.4-.68-3.26-1.55a3.06,3.06,0,0,1,.57-1.26c.85-1.08,5.19-.24,7.18-.14a4,4,0,0,1,.68,1.37A.46.46,0,0,1,188.29,204.6Z" transform="translate(-101.05 -66.1)"/><path class="cls-76" d="M186.18,202.74c-1.05-.11-2.27-.25-3.31-.26-.36,1.07-.76,2.13-1.18,3.18a9.27,9.27,0,0,0,1.54.17,9.56,9.56,0,0,0,4.15-.58C187,204.42,186.55,203.58,186.18,202.74Z" transform="translate(-101.05 -66.1)"/><path class="cls-77" d="M187.69,203.36c-.48.62-2.47,1-4.44,1s-3.19-.65-2.71-1.27,2.47-1.05,4.45-1S188.17,202.74,187.69,203.36Z" transform="translate(-101.05 -66.1)"/><path class="cls-78" d="M181.17,203.24c.44-.56,2.26-1,4.07-.85,1.41.07,2.39.41,2.53.82.16-.54-1-1-2.78-1.12-2-.1-4,.32-4.45.93s.28.94,1.52,1.16C181.26,204,180.88,203.61,181.17,203.24Z" transform="translate(-101.05 -66.1)"/><path class="cls-19" d="M181.22,220.42c-.48.65-2.52,1-4.54.79s-3.28-.92-2.8-1.57,2.52-1,4.55-.79S181.7,219.77,181.22,220.42Z" transform="translate(-101.05 -66.1)"/><path class="cls-75" d="M180.86,220.19c-.48.55-1.76,1-4.2.78-1.83-.17-2.77-.71-2.61-1.42a2.5,2.5,0,0,1,.52-1c.75-.84,4.27,0,5.9.21a3.25,3.25,0,0,1,.5,1.16A.37.37,0,0,1,180.86,220.19Z" transform="translate(-101.05 -66.1)"/><path class="cls-76" d="M179.21,218.57c-.86-.14-1.84-.31-2.7-.37-.34.87-.72,1.71-1.11,2.56a8.67,8.67,0,0,0,1.26.21,7.72,7.72,0,0,0,3.42-.29C179.77,220,179.48,219.28,179.21,218.57Z" transform="translate(-101.05 -66.1)"/><path class="cls-77" d="M180.43,219.14c-.42.49-2.08.75-3.69.59s-2.59-.68-2.17-1.16,2.08-.75,3.69-.59S180.85,218.66,180.43,219.14Z" transform="translate(-101.05 -66.1)"/><path class="cls-78" d="M175.08,218.75c.39-.44,1.9-.67,3.38-.52,1.16.13,1.94.45,2,.8.15-.44-.76-.89-2.23-1.05-1.62-.17-3.27.08-3.7.56s.19.78,1.2,1C175.12,219.34,174.83,219,175.08,218.75Z" transform="translate(-101.05 -66.1)"/><path class="cls-19" d="M188.47,210.05c0,.23-.55.49-1.28.56s-1.35-.06-1.37-.3.55-.48,1.28-.56S188.45,209.81,188.47,210.05Z" transform="translate(-101.05 -66.1)"/><path class="cls-29" d="M188,210c0,.18-.29.36-.68.39h0c-.4,0-.73-.09-.75-.28l-7.12-85.41c0-.19.29-.37.68-.4h0c.4,0,.73.1.75.29Z" transform="translate(-101.05 -66.1)"/><path class="cls-30" d="M187.35,209.82a.24.24,0,0,1-.22.25h0a.23.23,0,0,1-.25-.21l-6.83-81.54a.24.24,0,0,1,.22-.25h0a.23.23,0,0,1,.25.21Z" transform="translate(-101.05 -66.1)"/><path class="cls-47" d="M180.89,104.91l3.56,6,7,.46c2.81.19,3.58,2,1.73,4.17l-4.6,5.24,1.71,6.75c.69,2.73-.84,4-3.43,2.93l-6.4-2.75-5.9,3.71c-2.38,1.5-4.1.45-3.84-2.36l.64-6.94L166,117.66c-2.16-1.81-1.69-3.77,1.06-4.39l6.8-1.54,2.58-6.47C177.44,102.65,179.45,102.49,180.89,104.91Z" transform="translate(-101.05 -66.1)"/><path class="cls-79" d="M178.67,123.45a26.45,26.45,0,0,0-3.48,3.54c-.5.63-.82,1.68-1.71,1.88-1.08.24-1-1.41-1-2.1.07-1.39.55-2.79.33-4.19-.25-1.63-1.43-2-2.62-2.87a24.07,24.07,0,0,1-1.92-1.55c-.54-.45-1.87-.89-1.95-1.72s1.95-1.14,2.55-1.24c1.27-.23,2.53-.58,3.79-.82.82-.16,2.24-.14,2.82-.76a11.42,11.42,0,0,0,1.54-2.86,25.3,25.3,0,0,0,1-3.66c.31-1.22.68-1.85,1.61-.61a21.11,21.11,0,0,1,2.11,3.88c.68,1.5,1.55,2.68,3.28,2.66a28.16,28.16,0,0,1,2.9.27c.72.08,2,0,2.59.44.88.66-.6,1.37-1.16,1.63a38.35,38.35,0,0,0-3.52,1.89,14.46,14.46,0,0,0-2,1.18,13.7,13.7,0,0,0-1.2,1.53,31.21,31.21,0,0,1-3.52,3.07Z" transform="translate(-101.05 -66.1)"/><path class="cls-80" d="M175.21,113a3.22,3.22,0,0,1-1.86.6c-2.65.16-5,1.14-7.62,1.57,0-.66,1-.89,1.49-1,2-.44,3.91-1,5.88-1.35,1.62-.31,1.79-1.35,2.35-2.69s1-2.46,1.49-3.69c.11-.29.23-.57.34-.85.21-.53.61-1.39,1.27-1.44a13.78,13.78,0,0,1-.69,1.54c-.21.57-.4,1.14-.62,1.71a34.69,34.69,0,0,0-1.07,4A2.76,2.76,0,0,1,175.21,113Z" transform="translate(-101.05 -66.1)"/><path class="cls-81" d="M180.4,126.27a3.25,3.25,0,0,1,1.84.64c2.21,1.48,4.69,2.13,7,3.36-.38.52-1.3.13-1.79-.1-1.83-.83-3.71-1.59-5.51-2.47-1.48-.74-2.23,0-3.5.72s-2.28,1.36-3.41,2.05l-.78.47c-.49.3-1.33.74-1.88.38a15.67,15.67,0,0,1,1.47-.82c.52-.32,1-.66,1.53-1a32.23,32.23,0,0,0,3.27-2.55A2.78,2.78,0,0,1,180.4,126.27Z" transform="translate(-101.05 -66.1)"/><path class="cls-80" d="M188.19,112.4l1.23.13a11.24,11.24,0,0,1,3.06.48c.43.16,1.76.64,1.25-.32-.67-1.26-3-1-4.16-1-.86,0-1.73-.07-2.6-.1-.24,0-2.59-.28-2.43.07.28.62,1.42.63,2,.66S187.64,112.35,188.19,112.4Z" transform="translate(-101.05 -66.1)"/><path class="cls-80" d="M172.1,125.31l-.06,1.23a11.1,11.1,0,0,0,0,3.1c.1.45.37,1.83-.51,1.18-1.14-.85-.57-3.15-.39-4.26.15-.85.2-1.73.3-2.59,0-.24.11-2.6.44-2.39.56.37.4,1.49.34,2.06S172.13,124.75,172.1,125.31Z" transform="translate(-101.05 -66.1)"/><path class="cls-81" d="M191.16,117c-.29.29-.57.59-.85.89a11.58,11.58,0,0,0-2,2.35c-.22.4-.92,1.63-1.16.57-.3-1.39,1.63-2.77,2.49-3.48.67-.55,1.28-1.18,1.92-1.77.18-.16,1.78-1.89,1.89-1.52.19.65-.67,1.39-1.08,1.78S191.55,116.58,191.16,117Z" transform="translate(-101.05 -66.1)"/></g></g></svg>