<svg xmlns="http://www.w3.org/2000/svg" viewBox="0 0 936.13 1180.61"><defs><style>.cls-1{fill:#231f20;}.cls-1,.cls-10,.cls-11,.cls-2,.cls-3,.cls-4,.cls-5,.cls-6,.cls-7,.cls-8,.cls-9{fill-rule:evenodd;}.cls-2{fill:#ee1f46;}.cls-3{fill:#2d5068;}.cls-4{fill:#939598;}.cls-5{fill:#21b9ec;}.cls-6{fill:#a7a9ac;}.cls-7{fill:#c7c8ca;}.cls-8{fill:#87be40;}.cls-9{fill:#fae341;}.cls-10{fill:#79ad42;}.cls-11{fill:#f388a2;}</style></defs><title>Zasób 2</title><g id="Warstwa_2" data-name="Warstwa 2"><g id="Pose_02" data-name="Pose 02"><path class="cls-1" d="M468.06,0a202.27,202.27,0,0,1,82.69,17.21c80.12,35.8,126,117.37,135.46,202.13,5.94,52.88,4.64,101-14.17,151.22-8.25,22-19.07,42.92-30.13,63.63l-.39.43c1.1,3.16,2,6.4,2.87,9.64l7.87,3c25.42,9.68,50.66,25.19,72.54,41.24,27.69,20.31,69,56.34,82.23,88.68a139.71,139.71,0,0,1,6.39,19.53c7.42,30.22,2.79,63.21-30.57,74.45a80.47,80.47,0,0,1-20.49,3.49c6.94,16.86,13.87,34.43,20.66,52.68l105.19.67c18.24-.4,33.19,10.87,33.57,26.85.89,37.62,12.63,204.76,14.31,220.83.57,5.38-5.58,12.93-10.11,14.29l-10.89,3.25c1.3,20.78-5.3,42.49-19.08,57l4.39,63.36c1.11,16.14-3.3,27.64-7.75,32.39-33.25,35.45-111.68,45.12-156.92,22.26-2.92-1.47-3.88-5.53-4.07-10.56q-11.43,1.36-22.81,2.54c-79.47,8.27-160.91,10.93-240.79,10.93s-161.31-2.66-240.78-10.93q-11.37-1.18-22.81-2.54c-.19,5-1.15,9.09-4.07,10.56-45.24,22.86-123.67,13.19-156.92-22.26-4.45-4.75-8.86-16.25-7.75-32.39l4.39-63.36c-13.78-14.53-20.38-36.24-19.08-57L10.15,990C5.62,988.61-.53,981.06,0,975.68c1.68-16.07,13.42-183.21,14.31-220.83.37-16,15.33-27.25,33.56-26.85l105.2-.67c6.79-18.25,13.72-35.82,20.66-52.68a80.47,80.47,0,0,1-20.49-3.49c-33.36-11.24-38-44.23-30.57-74.45a139.71,139.71,0,0,1,6.39-19.53c13.2-32.34,54.54-68.37,82.23-88.68,21.88-16.05,47.12-31.56,72.54-41.24l7.87-3c.84-3.24,1.77-6.48,2.87-9.64l-.39-.43c-11.06-20.71-21.88-41.6-30.13-63.63-18.81-50.24-20.11-98.34-14.17-151.22C259.43,134.58,305.26,53,385.38,17.21A202.26,202.26,0,0,1,468.06,0Z"/><path class="cls-2" d="M536,497.53c31-13.9,63.36-37,94.34-71.48,20.32-38,35.66-69.89,41.9-111.57-16.3,26.95-39.75,49-67,65.92-40.67,25.14-89.32,38.68-137.09,38.68S371.65,405.54,331,380.4c-27.29-16.87-50.74-39-67-65.92,6.24,41.68,21.58,73.55,41.9,111.57,31,34.5,63.34,57.58,94.34,71.48a202.79,202.79,0,0,1,135.77,0ZM648.37,135.14c-35-74.38-102.35-121.77-180.31-121-77.95-.72-145.27,46.67-180.3,121,55.76,20.46,121.59,28.33,180.3,28.33s124.56-7.88,180.31-28.33ZM466,460.7c59.78,0,121.36-14.65,175.07-54.1-55.5,41.54-92.63,63-175.07,63s-119.57-21.51-175.07-63C344.6,446.05,406.18,460.7,466,460.7Z"/><path class="cls-3" d="M468.06,528.07c29.93,0,57,7.65,76.76,20a90.88,90.88,0,0,1,27.39-14.24c-25.18-20.78-62.5-33.94-104.15-33.94s-79,13.16-104.14,33.94a91.11,91.11,0,0,1,27.39,14.24C411,535.72,438.14,528.07,468.06,528.07Z"/><path class="cls-4" d="M468.06,405c93.94,0,184.11-54.2,207.17-131.06.11-48.4-3.42-87.56-21.09-125.63-15.27,6.34-56.87,15.8-101.74,22.23L454.69,404.63c4.44.24,8.91.37,13.37.37Zm49.32-230.19L423,400.87q-8.55-1.58-16.91-3.71l92.14-220.74c6.28-.43,12.68-1,19.13-1.61ZM447.23,177C384.18,173.77,304.5,157.65,282,148.31c-17.68,38.07-21.2,77.23-21.09,125.63,13.9,46.35,52.21,84.44,101,107.39Z"/><path class="cls-5" d="M659.37,672.67c-12.34,25.3-13.25,22.05-7.89,61,4.61,33.43-1.87,74.05,0,110.57,19.85.32,39.4,9.92,46,29.23C698.77,845,711,793,716.63,764.5c3.86-19.47,10.79-26.58,12.15-46,2-28.73-2.76-58.45-8.76-74.33-2.24-5.91-9.68-16.53-16.83-19.67-14.15-6.22-35.16-7-52.15-1.9C647.76,623.53,634,632,635,637c2.5,12.75,27.56,29.25,24.42,35.7Zm-382.61,0c12.34,25.3,13.25,22.05,7.89,61-4.61,33.43,1.87,74.05,0,110.57-19.85.32-39.4,9.92-46,29.23C237.36,845,225.14,793,219.5,764.5c-3.86-19.47-10.79-26.58-12.15-46-2-28.73,2.76-58.45,8.76-74.33,2.24-5.91,9.68-16.53,16.83-19.67,14.15-6.22,35.16-7,52.15-1.9,3.28,1,17.07,9.42,16.09,14.41-2.5,12.75-27.56,29.25-24.42,35.7Zm71.17-143.44c-32.33-31-39.34-47.52-59.05-68.81C232.54,481.88,158,543.69,142.13,582.51c-11,27-16.14,64.59,15.64,75.3,8.51,2.87,23.17,3.52,39.31,2.27a137.43,137.43,0,0,1,5.86-20.93c3.91-10.34,14.13-23.1,24.34-27.59a81.62,81.62,0,0,1,27.26-6.21c1.85-14.71,7.4-29.07,15.26-39.85l3-4.17,4-1c-24.51-3.86-73.51,9.33-78.89,40.51-1.82-20.68,5.57-32.78,18.38-43.48-9.54,5.08-17.2,10.46-32.07,24.17,9.69-15.38,15.5-22.74,30.78-31.17-16.28.93-21.13,2-33.69,5.73a88.36,88.36,0,0,1,42.25-10.63c2.82-.81,40.21,2.6,50.47-10.62-.2-12.8,2.77-27.73,6.39-42.33-.94,10.75-.58,21.35-.93,31.89-.13,3.87-.2,7.75-.2,11.68,21.56-13,41-14.62,68.57-6.87Zm240.27,0c32.33-31,39.34-47.52,59-68.81C703.59,481.88,778.15,543.69,794,582.51c11,27,16.14,64.59-15.64,75.3-8.51,2.87-23.17,3.52-39.31,2.27l-.07-.35v-.06l-.21-1h0l-.08-.35-.14-.66v0l-.08-.34-.08-.35-.13-.59-.14-.61-.11-.49-.17-.72-.13-.53-.19-.77-.1-.4-.21-.86-.09-.34-.21-.81-.12-.45-.24-.88-.07-.23c-.08-.3-.17-.6-.25-.9l-.09-.31-.27-.92-.05-.18c-.1-.35-.21-.69-.31-1l0-.16-.31-1,0-.06v0h0c-.11-.35-.23-.7-.34-1l0-.11c-.24-.74-.49-1.46-.74-2.18h0l-.39-1.06,0-.07-.39-1.05c-3.91-10.34-14.13-23.1-24.34-27.59l-.84-.36,0,0-.81-.33-.08,0-.79-.31-.07,0c-.58-.22-1.15-.44-1.74-.64l-.05,0-.82-.29-.09,0-.78-.26-.16,0-.8-.25-.06,0-.85-.26-.14,0-.78-.22-.16,0-.77-.21-.14,0-.77-.2-.17,0-.77-.19-.25-.06-.74-.17-.23-.06-.7-.15-.22-.05-.71-.15-.26,0-.72-.14-.25-.05-.7-.13-.34-.06-.67-.12-.3-.05-.65-.1-.34-.06-.59-.09-.43-.06-.53-.07-.48-.07-.64-.08-.34,0-.59-.07-.43,0-.5,0-.63-.07-.29,0-.65-.06-.35,0-.67,0h0l-.45,0-.45,0-.45,0c-1.85-14.71-7.4-29.07-15.26-39.85l-3-4.17-4-1c24.5-3.86,73.51,9.33,78.89,40.51,1.82-20.68-5.57-32.78-18.38-43.48,9.54,5.08,17.2,10.46,32.07,24.17-9.69-15.38-15.5-22.74-30.78-31.17,16.28.93,21.13,2,33.69,5.73a88.36,88.36,0,0,0-42.25-10.63c-2.82-.81-40.21,2.6-50.47-10.62.2-12.8-2.77-27.73-6.39-42.33.94,10.75.58,21.35.93,31.89.13,3.87.2,7.75.2,11.68C635.21,523.15,615.73,521.48,588.2,529.23Z"/><path class="cls-6" d="M690.07,904a146.64,146.64,0,0,0-6-26c-9.55-28-64.58-26-69.26,4.64-1,6.29-.46,18.41.42,27.51L690.07,904Zm-444,0A146.64,146.64,0,0,1,252,878c9.54-28,64.58-26,69.26,4.64,1,6.29.46,18.41-.42,27.51Z"/><path class="cls-7" d="M679.37,919l-58.06,4.75,6.43,58,52.53-4.07-.9-58.67Zm-422.61,0,58.06,4.75-6.43,58-52.53-4.07Z"/><path class="cls-4" d="M36.37,758.74l-4,53.52,18.72-45.34,8.84,39.6,16.94-40.21,19.42,44.82,19.54-38.89c4.09,9.18,6.73,23.3,13.08,33.46C134,785,134,758.45,131,745.11l-71.91-2.35c-20.72-.68-22.08,7-22.76,16Zm863.39,0,4,53.52-18.72-45.34-8.84,39.6-16.94-40.21-19.42,44.82-19.54-38.89c-4.09,9.18-6.73,23.3-13.08,33.46-5.1-20.66-5.08-47.25-2.16-60.59L877,742.76c20.72-.68,22.08,7,22.76,16ZM866.29,893.87l-2.37,38-9.26-22.75L844,933.85l-12.05-30-6.83,31.66L813.67,912l-6.56,37.25-9.61-35.78-8.41,43.15-9.44-36.23L769.73,962l-3.17-65.24c7.36-3.38,33.81-3.2,58.13-3.48,17.75-.21,34.36-1.85,41.6.62Zm-796.45,0,2.37,38,9.26-22.75,10.7,24.75,12-30,6.83,31.66L122.46,912,129,949.25l9.61-35.78L147,956.62l9.44-36.23L166.4,962l3.17-65.24c-7.36-3.38-33.81-3.2-58.13-3.48C93.69,893,77.07,891.4,69.84,893.87Z"/><path class="cls-4" d="M299.13,614.13c-4-32.24,8.15-68.66,50.87-68.63,12.31,0,33.4,11,42.08,21.56a150.21,150.21,0,0,0-14.66,7.42c-2,1.13-3.91,2.32-5.83,3.57-9.38-6.54-19.9-7.58-30.9-7.41,10.68,2.42,18.9,6.37,25.35,11.22a105.38,105.38,0,0,0-18.76,17.27,33,33,0,0,0-18.53,0A68.47,68.47,0,0,1,343.52,604a70.52,70.52,0,0,0-10.76,21.62A86.73,86.73,0,0,0,321.61,623a72.31,72.31,0,0,0-12.92-1,45.19,45.19,0,0,0-5.95-5.25c-1.07-.8-2.3-1.67-3.61-2.53Zm337.87,0c4-32.24-8.15-68.66-50.87-68.63-12.31,0-33.41,11-42.08,21.56a150.21,150.21,0,0,1,14.66,7.42c2,1.13,3.91,2.32,5.83,3.57,9.38-6.54,19.9-7.58,30.9-7.41-10.68,2.42-18.9,6.37-25.35,11.22a105.38,105.38,0,0,1,18.76,17.27,33,33,0,0,1,18.53,0A68.47,68.47,0,0,0,592.61,604a70.52,70.52,0,0,1,10.76,21.62A86.73,86.73,0,0,1,614.52,623a72.24,72.24,0,0,1,12.92-1,44.56,44.56,0,0,1,5.95-5.25c1.07-.8,2.3-1.67,3.61-2.53Zm-1.87-44a129.3,129.3,0,0,1,22.81,3.69c5.19,8,9.38,19.52,11,31.52a97.84,97.84,0,0,0-22,3.74,21.45,21.45,0,0,0-2.33.85c-.45-16.42-4.27-32.47-9.56-39.8Zm-334.13,0a129.3,129.3,0,0,0-22.81,3.69c-5.19,8-9.38,19.52-11,31.52a97.84,97.84,0,0,1,22,3.74,21.45,21.45,0,0,1,2.33.85C291.89,593.49,295.71,577.44,301,570.11Z"/><path class="cls-8" d="M871.67,1065.14c4,21.94-5.81,41.86-16.72,48.53-94.76,57.88-679,57.88-773.77,0-10.91-6.67-20.74-26.59-16.72-48.53,1.19.47,2.41.93,3.65,1.38l0,0c2.09.76,4.25,1.52,6.47,2.25h0c16.45,5.49,36,10.25,51.67,13.72h0l1.19.26.24,0,3.45.75.08,0,2.32.5,1.14.24.19,0,.93.2.53.11.56.12.86.18.21,0,1,.22.11,0,.91.18.42.09.57.12.72.14.24,0,.94.2H143l.85.17.33.07.55.11.58.12.26,0,.81.16c33.4,6.75,67.53,12.17,101.74,16.23C388.1,1120,548,1120,688,1103c34.21-4.06,68.34-9.48,101.74-16.23l.81-.16.26,0,.58-.12.55-.11.33-.07.85-.17h0l.94-.2.24,0,.72-.14.57-.12.42-.09.9-.18.12,0,1.05-.22.21,0,.86-.18.56-.12.53-.11.93-.2.19,0,1.14-.24,2.32-.5.08,0,3.45-.75.24,0,1.19-.26h0c15.66-3.47,35.21-8.23,51.67-13.72h0c2.22-.73,4.38-1.49,6.46-2.25l.06,0c1.24-.45,2.46-.91,3.65-1.38Zm-740.39,18.45,2.32.5Z"/><path class="cls-3" d="M468.06,1006.46c74.84.64,226.27-6.53,305.35-26.52,45-11.38,60.86-30.35,85.28-31.18,46.63-1.58,55.71,69,23,95.61-23.19,18.84-242.21,50.36-413.62,51.16-171.4-.8-390.42-32.32-413.61-51.16-32.72-26.57-23.64-97.19,23-95.61,24.42.83,40.28,19.8,85.28,31.18C241.8,999.93,393.22,1007.1,468.06,1006.46Z"/><path class="cls-4" d="M835.6,970.9c50.83-22,53.55,6.92,21.18,22.38-161.56,77.14-615.87,77.14-777.43,0C47,977.82,49.7,948.9,100.53,970.9,284.12,1050.37,652,1050.37,835.6,970.9Z"/><path class="cls-8" d="M468.06,566c1.66,0,3.32,0,5,0,64.77,1.35,121.89,37.24,118.59,80.34L574.57,969a664.51,664.51,0,0,1-106.51,10.64A664.5,664.5,0,0,1,361.56,969L344.5,646.33c-3.3-43.1,53.82-79,118.59-80.34,1.66,0,3.31,0,5,0ZM169,871l-10.65-42c-28.53-1.34-59.5-.83-88-1.78-6.77-.22-10.51,5.44-11.07,11.69l-4.49,50c3.88-14.85,8.83-23.75,17.39-23.27L169,871Zm598.09,0,10.65-42c28.53-1.34,59.5-.83,88-1.78,6.77-.22,10.5,5.44,11.07,11.69l4.49,50c-3.88-14.85-8.83-23.75-17.39-23.27L767.11,871ZM488.27,644.51a68.24,68.24,0,0,0-40.41,0L441,660.79l-.12,12.89,7.29-.95.95,100.6c5.5-.16,12.23-.67,19-.61s13.5.45,19,.61Z"/><path class="cls-9" d="M468.06,610.57c17.19-.56,34.07,3,48.27,11l3.84,184a372.72,372.72,0,0,0-52.11-3.16,372.58,372.58,0,0,0-52.1,3.16l3.84-184c14.2-8,31.08-11.6,48.26-11Zm20.21,33.94a68.24,68.24,0,0,0-40.41,0L441,660.79l-.12,12.89,7.29-.95.95,100.6c5.5-.16,12.23-.67,19-.61s13.5.45,19,.61Z"/><path class="cls-10" d="M402.59,975.17c-13.57-1.6-27.22-3.64-41-6.16L344.5,646.33c-1.72-22.42,12.92-42.88,36.46-57.55l21.63,386.39Zm65.47,181.91c-169.75,0-339.5-14.47-386.88-43.41-6.73-4.12-13.06-13.28-16-24.86C194,1126.53,326.77,1137,468.06,1137s274.12-10.5,402.85-48.22c-2.9,11.58-9.23,20.74-16,24.86-47.38,28.94-217.13,43.41-386.89,43.41Zm65.48-181.91c13.57-1.6,27.22-3.64,41-6.16l17.06-322.68c1.71-22.42-12.92-42.88-36.46-57.55Z"/><path class="cls-11" d="M645,128.16C609.07,57.81,543.55,13.4,468.06,14.09c-75.48-.69-141,43.72-176.88,114.06,43.93-51.87,106.91-84.39,176.88-84.39S601,76.28,645,128.16Z"/></g></g></svg>