<?xml version="1.0" encoding="utf-8"?>
<!-- Generator: Adobe Illustrator 23.0.1, SVG Export Plug-In . SVG Version: 6.00 Build 0)  -->
<svg version="1.1" id="Warstwa_1" xmlns="http://www.w3.org/2000/svg" xmlns:xlink="http://www.w3.org/1999/xlink" x="0px" y="0px"
	 viewBox="0 0 506.7 347.4" style="enable-background:new 0 0 506.7 347.4;" xml:space="preserve">
<style type="text/css">
	.st0{fill:#604EBA;}
	.st1{opacity:0.5;fill:#7E5BCF;enable-background:new    ;}
	.st2{fill:#7E5BCF;}
	.st3{opacity:0.2;fill:#FFFFFF;enable-background:new    ;}
	.st4{fill:#EC4AA0;}
	.st5{opacity:0.5;fill:#F291D0;enable-background:new    ;}
	.st6{fill:#F378D3;}
	.st7{opacity:0.2;fill:#F291D0;enable-background:new    ;}
	.st8{fill:#84C449;}
	.st9{opacity:0.4;fill:#C5CF5E;enable-background:new    ;}
	.st10{opacity:0.1;fill:#C5CF5E;enable-background:new    ;}
	.st11{fill:#5CA76C;}
	.st12{opacity:0.4;fill:#5CA76C;enable-background:new    ;}
	.st13{fill:#F7A01F;}
	.st14{fill:#FCC836;}
	.st15{opacity:0.2;fill:#F5692B;enable-background:new    ;}
	.st16{opacity:0.2;fill:#FFE36B;enable-background:new    ;}
	.st17{fill:#039266;}
</style>
<title>7329801</title>
<g>
	<g id="OBJECTS">
		<path class="st0" d="M125.4,285.3c-5,2-67.4,24-76.9,25.2s-37.6-5-40-7.7s-1.6-34.1,1.7-35.1s142.8-44.6,149.1-45.1
			c3.8-0.3,28.9,3.3,30.2,7.2s3.7,28-1.4,32.4S143.9,278,125.4,285.3z"/>
		<path class="st1" d="M51.3,277.5L7.3,295.6c-0.6-10.1,0.5-27.2,2.9-28c3.3-1,142.9-44.6,149.1-45.1c3.3-0.2,22.7,2.4,28.6,5.7l0,0
			L51.3,277.5z"/>
		<path class="st2" d="M10.2,267.6c0,0,36.9,6.3,41.1,9.9s-2.8,33-2.8,33c-9.5,1.1-37.6-5-40-7.7S6.9,268.6,10.2,267.6z"/>
		<path class="st3" d="M20.5,268.8c4.4-1.7,10.4,1.5,14.5,3.2c0.6,0.2,0.2,1-0.3,1c-2.5,0.2-4.9,0.1-7.4-0.4c-2.3-0.4-5-0.6-7.1-1.9
			c-0.5-0.3-0.6-1-0.3-1.5C20.1,269,20.3,268.9,20.5,268.8z"/>
		<path class="st3" d="M18.3,266.5c0.9,0,1.7,0.7,1.7,1.6c0,0.9-0.7,1.7-1.6,1.7s-1.7-0.7-1.7-1.6C16.6,267.3,17.4,266.5,18.3,266.5
			z"/>
		<path class="st3" d="M64,252.5c3.7-1.2,7.5-2,11.3-2.6c0.5,0,0.9,0.4,0.9,0.9c0,0.3-0.2,0.6-0.4,0.8c-3.4,1.5-6.7,3.2-10.1,4.8
			c-2.7,1.3-5.3,2.9-8.4,2.6c-0.9,0-1.5-0.7-1.5-1.6c0-0.4,0.1-0.7,0.4-1C58.2,254.1,61.1,253.4,64,252.5z"/>
		<path class="st3" d="M54.1,256.6c1.1,0.3,1.8,1.4,1.6,2.6c-0.3,1.1-1.4,1.9-2.6,1.6c-1.1-0.3-1.9-1.4-1.6-2.6
			C51.8,257.1,52.9,256.4,54.1,256.6C54.1,256.6,54.1,256.6,54.1,256.6z"/>
		<path class="st3" d="M47.1,258.9c0.9,0,1.7,0.7,1.7,1.6c0,0.9-0.7,1.7-1.6,1.7l0,0c-0.9,0-1.7-0.7-1.7-1.6
			C45.4,259.7,46.1,258.9,47.1,258.9z"/>
		<path class="st3" d="M35.2,263c1.5-2.4,4.3-3.4,7-2.6c1,0.3,1.5,1.3,1.2,2.2c-0.1,0.4-0.4,0.8-0.7,1c-1.9,1.4-4.3,1.9-6.6,1.5
			c-0.8-0.2-1.3-1-1-1.8C35.1,263.2,35.1,263.1,35.2,263z"/>
		<path class="st3" d="M39,272.5c0.9,0,1.5,0.8,1.5,1.7c0,0.8-0.6,1.4-1.4,1.5c-0.9,0-1.5-0.8-1.5-1.7
			C37.6,273.2,38.2,272.6,39,272.5z"/>
		<path class="st3" d="M79,248.3c0.2-0.1,0.5-0.2,0.7-0.3c1.1-0.3,2.2,0.4,2.5,1.5c0.3,1.1-0.4,2.2-1.5,2.5c-0.3,0.1-0.7,0.1-1,0
			c-0.2-0.1-0.5-0.2-0.7-0.3c-1-0.6-1.3-1.8-0.7-2.7C78.5,248.7,78.7,248.4,79,248.3z"/>
		<path class="st4" d="M125.6,250.8c-6.3,0-41.3-2.1-46.6-5.9s-2.5-22.6-1.7-26.3c1.9-8.3,65.7-19.9,70-25.6s49.9-144.8,50.4-148
			s9.3-26.2,15.2-28.8c5.9-2.6,63.9,3.9,66.9,7.6S271,216.5,271,216.5S137,250.7,125.6,250.8z"/>
		<path class="st5" d="M77.4,218.6c1.9-8.3,65.7-19.9,70-25.6s49.9-144.8,50.4-148s9.3-26.2,15.2-28.8c5.9-2.6,63.9,3.9,66.9,7.6
			c0,0-58.4-6.7-61.8-4.3s-6.8,22.9-7.9,31.5S179,194,176.9,199.3s-42.4,25-45.7,27.1c-3.3,2.1-5.5,24.3-5.5,24.3
			c-6.3,0-41.3-2.1-46.6-5.9S76.5,222.3,77.4,218.6z"/>
		<path class="st6" d="M147.3,193l29.5,6.4c-2.1,5.4-42.4,25-45.7,27.1l-53.8-7.9C79.3,210.3,143.1,198.7,147.3,193z"/>
		<path class="st7" d="M147.3,193c3.3-4.4,31.1-87.9,44-127.5c4.7,6.9,8.5,14.3,11.3,22.2c-6.6,30-15.8,70.9-21.3,94
			c-18.3,18.8-43.3,29.6-69.5,30c-6.3,0.1-12.6-0.3-18.8-1.4C112.8,203.7,144.4,196.9,147.3,193z"/>
		<path class="st3" d="M160.8,178.2c-2.5-7.1,0.5-16,6.9-21.1c0.3-0.2,0.7-0.2,1,0.1c4.3,6.9,1.5,16.4-4.8,21.7
			c-0.8,0.7-2.1,0.6-2.8-0.2C161,178.4,160.9,178.3,160.8,178.2z"/>
		<path class="st3" d="M159.3,179.8c1.7,0.2,2.9,1.8,2.7,3.5c-0.2,1.7-1.8,2.9-3.5,2.7c-1.5-0.2-2.7-1.5-2.7-3
			C155.9,181.1,157.5,179.7,159.3,179.8z"/>
		<path class="st3" d="M170,153.7c-0.7-0.3-1.1-0.9-1.2-1.6c0-0.9,0.7-1.7,1.6-1.9h0.1c1.5-0.3,2.9,0.5,3,1.8s-1.9,2.6-3.5,1.8
			L170,153.7z"/>
		<path class="st3" d="M215.7,16.9c0.5-0.1,0.9,0.1,1.3,0.4c0.2,0.2,0.7,0.4,0.5,0.7s-0.7,0.3-1.1,0.3c-0.7,0-1.2-0.4-1.1-1
			C215.2,17.1,215.4,17,215.7,16.9z"/>
		<path class="st3" d="M206.9,43.6c0.6-0.2,1.1-0.1,1.7,0.1c0.3,0.2,0.5,0.3,0.8,0.5c0.5,0.3,0.6,0.9,0.3,1.4
			c-0.1,0.2-0.3,0.3-0.5,0.4c-0.6,0.4-1.4,0.5-2.2,0.3c-0.7-0.1-1.2-0.6-1.2-1.3C205.8,44.3,206.3,43.7,206.9,43.6z"/>
		<path class="st3" d="M205.3,43L205.3,43c0.9,1-0.7,2.3-1.7,1.7l-0.1-0.1C201.7,43.5,204,41.5,205.3,43z"/>
		<path class="st3" d="M201.4,43.6c-0.2,0-0.4-0.1-0.5-0.3c0-0.2,0.1-0.4,0.3-0.5c0,0,0.1,0,0.1,0c0.2,0,0.4,0.1,0.5,0.3
			c0,0.2-0.1,0.4-0.3,0.5C201.5,43.6,201.5,43.6,201.4,43.6z"/>
		<path class="st3" d="M194.1,66.1c-0.4-1.5-0.3-3.1,0.4-4.4c0.8-1.6,2-2.9,3.4-3.8c0.7-0.4,1.6,0.2,1.4,0.9
			c-0.8,2.6-1.4,5.3-2.9,7.6C195.9,67.1,194.3,67.1,194.1,66.1z"/>
		<path class="st3" d="M194,67.5c1-0.2,2,0.5,2.2,1.6s-0.5,2-1.6,2.2c-0.2,0-0.4,0-0.5,0c-1,0.2-2-0.5-2.2-1.6s0.5-2,1.6-2.2
			C193.6,67.4,193.8,67.4,194,67.5z"/>
		<path class="st3" d="M201.1,53.7c0.9-0.1,1.7,0.6,1.8,1.4c0,0,0,0.1,0,0.1c-0.1,1-1,1.6-2,1.5c-0.8-0.1-1.4-0.7-1.5-1.4v-0.1
			C199.4,54.3,200.2,53.6,201.1,53.7z"/>
		<path class="st3" d="M89.4,217.7c3.3-1.5,7.3,0,10.6,0.9c4,1.2,7.9,2.9,11.8,4.3c0.9,0.3,0.3,1.5-0.6,1.3
			c-3.6-0.7-7.1-1.6-10.7-2.3s-7.9-0.4-11-1.9c-0.6-0.3-0.9-1-0.7-1.6C88.8,218.1,89.1,217.9,89.4,217.7z"/>
		<path class="st3" d="M115.1,222.8c1-0.5,2.3-0.3,3,0.6c0.2,0.3,0.3,0.6,0.4,1c0.2,1-1.1,1.9-2.1,1.9c-0.8,0.1-1.5-0.3-1.9-1v0.1
			l0,0c-0.2-0.2-0.2-0.5-0.3-0.8l0,0c0,0,0,0,0-0.1l0,0C114.1,223.8,114.4,223.1,115.1,222.8z"/>
		<path class="st3" d="M83.9,216.2c1.1,0.2,1.9,1.2,1.8,2.4c-0.2,1.1-1.2,1.9-2.4,1.8c-1-0.1-1.8-1-1.8-2
			C81.6,217.1,82.7,216.2,83.9,216.2z"/>
		<path class="st8" d="M468.6,27.4c0,0-182.6,5.4-200.4,16.2S168,244.1,168,244.1L148.4,271l203.1,22.1L468.6,27.4z"/>
		<path class="st9" d="M168,244.1c0,0,82.3-189.8,100.2-200.5s200.4-16.2,200.4-16.2S346.1,42.1,293.3,77.8S168,244.1,168,244.1z"/>
		<path class="st10" d="M268.2,43.6c9.4-5.6,64-9.8,113.9-12.5c10.1,50.3-24.1,112.8-86.8,151c-37.5,22.8-78,32.6-113.1,30
			C206.5,157.5,255,51.5,268.2,43.6z"/>
		<path class="st11" d="M189.3,232.3l4.4-7.7c2.8-4.9,6.8-11.9,11.7-20.3l16.7-28.5l9.5-16l9.9-16.5c3.3-5.5,6.6-11.1,9.9-16.5
			l9.7-15.9c6.3-10.3,12.3-19.9,17.4-28.1c2.6-4.1,4.9-7.9,7.1-11.2s4-6.2,5.5-8.6l3.6-5.5l1.3-1.9c0.2-0.2,0.5-0.3,0.7-0.2
			c0.3,0.1,0.4,0.5,0.2,0.7c0,0,0,0,0,0l-1.1,2l-3.2,5.7c-1.4,2.5-3.1,5.5-5,8.9s-4.1,7.3-6.6,11.5c-4.8,8.4-10.5,18.1-16.7,28.5
			c-3.1,5.2-6.3,10.6-9.6,16l-10,16.5l-10,16.4l-9.8,15.9c-6.4,10.3-12.3,19.9-17.4,28.1s-9.5,15-12.5,19.8l-4.8,7.5
			c-0.2,0.2-0.5,0.3-0.7,0.2C189.3,232.9,189.2,232.6,189.3,232.3z"/>
		<path class="st11" d="M244.5,221.4l4.3-8.7c1.7-3.3,3.6-7.1,5.6-11.2l14.3-28c5.3-10.2,10.9-21.1,16.6-32s11.4-21.7,16.8-31.9
			c2.7-5.1,5.3-10,7.8-14.7l7-13.1c4.3-8.1,8.1-14.8,10.6-19.6l4.1-7.4c0.1-0.3,0.5-0.4,0.7-0.2c0.3,0.1,0.4,0.4,0.3,0.7
			c0,0,0,0,0,0l-3.7,7.6c-2.4,4.8-5.8,11.7-10,19.9l-6.6,13.2c-2.4,4.7-4.9,9.6-7.6,14.8c-5.3,10.2-10.9,21.1-16.6,32l-16.8,31.9
			l-14.8,27.7l-6,11l-4.6,8.5l-4.1,7.4c-0.1,0.3-0.5,0.4-0.7,0.2c-0.3-0.1-0.4-0.5-0.3-0.8L244.5,221.4z"/>
		<path class="st11" d="M296.8,231.1c2.1-5.2,5-12.6,8.7-21.5s7.9-19.2,12.5-30.3l7.2-17c2.5-5.8,5-11.7,7.5-17.5l7.6-17.5l7.4-16.9
			c4.8-11,9.5-21.1,13.4-29.9s7.3-16,9.6-21.1s3.7-8,3.7-8c0.1-0.3,0.4-0.4,0.7-0.3c0.3,0.1,0.4,0.4,0.3,0.7c0,0,0,0,0,0l-3.2,8.2
			c-2.1,5.2-5,12.6-8.7,21.5s-7.9,19.2-12.5,30.2l-7.2,17c-2.5,5.8-5,11.7-7.5,17.5s-5.1,11.8-7.6,17.5s-5,11.4-7.4,16.9
			c-4.8,11-9.5,21.1-13.4,29.9s-7.3,16-9.6,21.1l-3.7,8c-0.2,0.2-0.5,0.3-0.8,0.1c-0.2-0.1-0.3-0.3-0.2-0.6L296.8,231.1z"/>
		<path class="st3" d="M279.9,44.9c3-1,7.8-1.4,10.5,0.5c0.4,0.3,0.7,1,0.2,1.5c-2.2,1.8-5.4,2.4-8,3.5c-3.2,1.4-6.1,3.3-9.4,4.2
			c-1.2,0.3-2.4-0.4-2.7-1.6c-0.1-0.5-0.1-1.1,0.2-1.6C272.5,47.7,276.1,46.2,279.9,44.9z"/>
		<path class="st3" d="M267.4,55.3c1.2,0,2.3,1,2.3,2.2c0,1.2-1,2.3-2.2,2.3c-1.2,0-2.3-1-2.3-2.2C265.1,56.4,266.1,55.4,267.4,55.3
			z"/>
		<path class="st3" d="M263.1,58.8c3.3-0.1,3.4,5.1,0.1,5.1C259.9,64,259.8,58.9,263.1,58.8z"/>
		<path class="st3" d="M296.1,42.8c1.1,0,2,0.9,2,2c0,1.1-0.9,2-2,2c-1.1,0-2-0.9-2-2c0-0.2,0-0.3,0-0.5
			C294.4,43.5,295.2,42.9,296.1,42.8z"/>
		<path class="st3" d="M239.4,113.1c-2.5,9.2-6.3,18-11.5,26c-0.4,0.6-1.2,0.8-1.8,0.5c-0.5-0.3-0.7-0.9-0.6-1.4
			c1.2-9.1,7.7-17.9,12.5-25.5c0.2-0.3,0.7-0.4,1-0.2C239.3,112.6,239.4,112.8,239.4,113.1z"/>
		<path class="st3" d="M223.7,142.8c1,0.4,1.6,1.5,1.3,2.5c0,0.1-0.1,0.2-0.1,0.3c-0.1,0.2-0.2,0.4-0.4,0.5
			c-0.8,0.8-2.1,0.9-2.9,0.1s-0.9-2.1-0.1-2.9C222.1,142.7,222.9,142.5,223.7,142.8L223.7,142.8z"/>
		<path class="st3" d="M223.9,142.9c-0.1,0-0.2-0.1-0.3-0.1h-0.1L223.9,142.9z"/>
		<path class="st3" d="M241.4,108.5c0.6,0,1,0.4,1,1s-0.4,1-1,1c-0.4,0-0.7-0.1-1-0.4c-0.3-0.3-0.3-0.9,0-1.2
			C240.7,108.7,241,108.5,241.4,108.5z"/>
		<path class="st3" d="M366.3,34.4c1.3,0,2.5,1,2.5,2.4c0,1.3-1,2.5-2.4,2.5s-2.5-1-2.5-2.4c0,0,0,0,0,0
			C363.9,35.6,364.9,34.5,366.3,34.4z"/>
		<path class="st3" d="M359.4,33.8c1.4,0,2.6,1.1,2.7,2.6c0,1.4-1.1,2.6-2.6,2.7c-1.4,0-2.6-1.1-2.7-2.6
			C356.8,35,358,33.8,359.4,33.8z"/>
		<path class="st12" d="M362.8,267.6l-11.2,25.5l-203.1-22.2l12.7-17.4C248.6,240.9,331.3,259.2,362.8,267.6z"/>
		<path class="st13" d="M111.9,215.1c-0.4-74.8,48.3-135.7,108.7-135.9s109.6,60.1,110,134.9c0.2,22.4-4.3,44.6-13.1,65.1
			c-9.8-1.6-25-3.8-43.9-5.9c12.5-16.3,17.8-38.8,17.7-63.2c-0.2-50-34.9-89.6-71.2-89.8c-40.4-0.3-72.9,40.9-72.7,90.9
			c0.1,21.1,6,40.5,15.9,55.9c-14,0.1-28.2,0.6-42.2,1.7C115.1,251.5,112,233.4,111.9,215.1z"/>
		<path class="st14" d="M111.9,215.1c-0.4-74.8,48.3-135.7,108.7-135.9c22-0.1,42.6,7.9,59.8,21.7c-14.9-10-33.1-15.1-48.5-15.1
			c-60.4,0.3-104.5,42.6-113.8,129.3c-1.6,14.6,3.3,45.4,3,53.7C115.1,251.5,111.9,233.4,111.9,215.1z"/>
		<path class="st15" d="M312.6,140.5c11.2,21.2,17.8,46.5,18,73.7c0.2,22.4-4.3,44.6-13.1,65.1c-7.5-1.2-18.2-2.8-31.3-4.4
			c16.4-27.5,25.5-57.7,27.7-90.5C314.8,169.7,314.4,155,312.6,140.5z"/>
		<path class="st15" d="M137.8,211.3c-0.2-50,32.3-91.2,72.7-90.9c1.3,0,2.7,0.1,4,0.2c-37.8,3.3-67.3,43-67.1,90.7
			c0.1,21.1,6,40.5,15.9,55.9c-14,0.1-28.2,0.6-42.2,1.7c-0.1-0.2-0.1-0.4-0.2-0.6c10.9-0.6,21.9-1,32.8-1.1
			C143.8,251.8,137.9,232.4,137.8,211.3z"/>
		<path class="st16" d="M220.6,79.2c9.7,0,19.3,1.5,28.4,4.5c6.2,10.5,9.4,22.5,9.6,34.6c0,5.4-0.6,10.7-1.8,15.9
			c-11-8.7-23.7-13.8-36.6-13.9c-40.2-0.3-72.7,40.6-72.7,90.3c-6,0.6-12.1,1-18.4,1c-5.8,0-11.5-0.2-17.1-0.7
			C113.4,138.1,161.4,79.5,220.6,79.2z"/>
		<path class="st3" d="M188.7,87.6c0.8,0.2,1.4,1,1.2,1.9c0,0.1-0.1,0.3-0.2,0.4c-2.4,3.3-6.2,5.3-10.2,5.6c-1.8,0-2.5-1.8-1.9-3.2
			C179.3,88.3,184.8,86.8,188.7,87.6z"/>
		<path class="st3" d="M172.6,95.8c1.7-0.5,3.5,0.5,3.9,2.2c0.2,0.8,0.1,1.7-0.3,2.4c-0.3,0.5-0.7,0.9-1.1,1.2
			c-0.8,0.4-1.6,0.5-2.5,0.3c-0.3-0.1-0.6-0.2-0.9-0.4c-1.3-0.8-1.9-2.4-1.3-3.9C170.9,96.8,171.7,96.1,172.6,95.8z"/>
		<path class="st3" d="M166,100.2c0.8-0.8,2-0.8,2.8,0c0.2,0.3,0.4,0.6,0.6,1c0.2,0.7,0,1.5-0.5,2v0.1c-0.8,0.8-2,0.8-2.8,0H166
			c-0.5-0.5-0.7-1.3-0.5-2C165.6,100.9,165.8,100.5,166,100.2z"/>
		<path class="st3" d="M117.5,179.7c0.6-6.2,4.1-12.3,7.9-17c0.6-0.7,1.6,0.2,1.2,0.9c-2.7,5.3-3.1,11.9-6.4,16.8
			C119.5,181.6,117.3,181.3,117.5,179.7z"/>
		<path class="st3" d="M115.9,185.3v-0.1c0.2-1.3,1.8-1.4,2.7-0.7l0.1,0.1c0.7,0.7,0.7,1.7,0,2.4c-0.7,0.7-1.7,0.7-2.4,0
			C115.9,186.5,115.7,185.9,115.9,185.3L115.9,185.3z"/>
		<path class="st3" d="M126.8,161.3c-0.8-0.2-1.3-1-1.1-1.8c0,0,0,0,0-0.1c0.1-0.5,0.5-0.9,1.1-1.1l0.2-0.1c0,0,0,0,0.1,0
			c0.6-0.3,1.3-0.1,1.7,0.4c0.1,0.2,0.2,0.4,0.2,0.6c0,0.4-0.2,0.9-0.4,1.3C128.1,161.1,127.4,161.4,126.8,161.3z"/>
		<path class="st3" d="M215.9,96.5c0-0.1,0-0.1,0-0.2l0,0c0-0.5,0.3-0.9,0.7-1.1c0.6-0.4,1.3-0.6,2-0.4c1.2,0.3,1.9,1.6,1.5,2.8
			c-0.3,1.2-1.6,1.9-2.8,1.5c-0.2,0-0.3-0.1-0.5-0.2C216.2,98.3,215.7,97.4,215.9,96.5C215.9,96.5,215.9,96.6,215.9,96.5z"/>
		<path class="st3" d="M209.5,95.7c0.2-0.8,0.9-1.5,1.7-1.7c0.9-0.2,1.8,0,2.4,0.6h0c0.9,0.9,1,2.4,0,3.4c0,0,0,0,0,0l-0.1,0.1
			c-0.6,0.6-1.6,0.9-2.4,0.6c-0.8-0.2-1.5-0.9-1.7-1.7C209.4,96.6,209.4,96.2,209.5,95.7L209.5,95.7z"/>
		<path class="st3" d="M127.6,229.2c0.4-0.2,0.9-0.1,1.2,0.3c1.1,1.6,0.7,4.4,1,6.3c0.4,2.6,0.3,5-1.3,7.1c-0.7,0.7-1.8,0.7-2.4,0
			c-1.5-2-1.9-4.5-1.3-6.9C125.2,233.9,125.6,230.4,127.6,229.2z"/>
		<path class="st3" d="M127.9,246.7L127.9,246.7c0.4-0.2,0.9-0.3,1.3-0.1l0,0h0.1c0.4,0.1,0.8,0.4,1,0.8c0.5,0.8,0.2,1.9-0.6,2.3
			c-0.1,0.1-0.2,0.1-0.4,0.1h-0.1c-0.9,0.3-1.9-0.3-2.1-1.2l0,0C126.9,247.8,127.2,247.1,127.9,246.7z"/>
		<path class="st3" d="M128.9,227.8L128.9,227.8c-0.8,0.2-1.7-0.1-2.1-0.8l0,0c-0.4-0.7-0.3-1.5,0.3-2.1l0,0
			c0.6-0.5,1.4-0.7,2.1-0.3c0.3,0.2,0.6,0.5,0.7,0.8c0.4,0.8,0.1,1.9-0.8,2.3C129.1,227.7,129,227.8,128.9,227.8z"/>
		<path class="st8" d="M309,271.4c0,0-114.5-19.5-217.5-8.4c0,0-46.7,11-55.1,17.5s-5.8,26.7,0.7,32.3s198,25.6,204,26.4
			s65.2-34.9,68.5-38.6S313.9,272.2,309,271.4z"/>
		<path class="st17" d="M238.6,306.9c3.9-1,70.3-35.5,70.3-35.5c5,0.8,3.9,25.6,0.6,29.3s-62.4,39.4-68.5,38.6s-197.6-20.8-204-26.4
			c-6-5.2-8.6-22.9-2.3-30.6C63.6,287,235,307.8,238.6,306.9z"/>
		<path class="st8" d="M241.1,339.2c-6.1-0.8-197.6-20.8-204-26.4c-6-5.2-8.6-22.9-2.3-30.6c28.9,4.8,200.2,25.7,203.9,24.8
			L241.1,339.2z"/>
		<path class="st9" d="M36.4,280.5C44.7,274,91.5,263,91.5,263c103-11.1,217.5,8.4,217.5,8.4s-134.2-2.5-185.4-0.3
			S36.4,280.5,36.4,280.5z"/>
		<path class="st12" d="M37.1,312.8c6.5,5.6,198,25.6,204,26.4l-2.5-32.3c0,0-6.7,17.7-58.5,17.8S37.1,312.8,37.1,312.8z"/>
		<path class="st9" d="M37.1,312.8c-6-5.2-8.6-22.9-2.3-30.6c28.9,4.8,200.2,25.7,203.9,24.8c0,0-184.3-17.4-193.7-13.7
			S37.1,312.8,37.1,312.8z"/>
		<path class="st11" d="M210.6,295.2l2.3-1.3c1.5-0.8,3.6-1.9,6.3-3.2s5.6-2.8,8.9-4.4l5-2.4l5.2-2.5c3.5-1.6,7-3.3,10.4-4.7
			c1.7-0.7,3.3-1.4,4.8-2l4.3-1.8c2.7-1.1,5-2,6.5-2.6l2.5-1c0.3-0.1,0.6,0,0.7,0.3c0.1,0.3,0,0.6-0.2,0.7c0,0,0,0,0,0l-2.4,1.2
			c-1.5,0.7-3.7,1.8-6.3,3l-4.3,2c-1.5,0.7-3.1,1.5-4.8,2.2c-3.3,1.5-6.8,3.2-10.3,4.8l-5.2,2.4l-5.1,2.3c-3.3,1.5-6.4,2.8-9.1,4
			s-4.9,2.1-6.5,2.7l-2.5,1l0,0c-0.3,0.1-0.6,0-0.7-0.3C210.3,295.7,210.4,295.4,210.6,295.2z"/>
		<path class="st11" d="M170.3,290.4l2.1-1.2c1.3-0.7,3.2-1.8,5.5-3l7.9-4.2c2.9-1.5,6-3.1,9.1-4.7s6.2-3.1,9.1-4.5
			c1.5-0.7,2.9-1.4,4.2-2l3.8-1.8c2.4-1.1,4.4-2,5.8-2.6l2.2-1c0.3-0.1,0.6,0,0.7,0.3c0.1,0.3,0,0.6-0.2,0.7l-2.1,1.2
			c-1.3,0.7-3.2,1.9-5.5,3.1l-3.7,2c-1.3,0.7-2.7,1.4-4.2,2.2c-2.9,1.5-6,3.1-9.1,4.6s-6.2,3.1-9.2,4.5l-8.1,3.8
			c-2.4,1.1-4.4,2-5.7,2.6l-2.2,1c-0.3,0.1-0.6,0-0.7-0.2C169.9,290.9,170,290.5,170.3,290.4C170.3,290.4,170.3,290.4,170.3,290.4z"
			/>
		<path class="st11" d="M131.1,282.1l1.8-1l4.6-2.4c1.9-1,4.2-2.1,6.6-3.3c1.2-0.6,2.5-1.1,3.8-1.7l4-1.7c2.7-1.1,5.3-2.3,7.9-3.2
			s4.9-1.8,7-2.5s3.8-1.2,5-1.6s1.9-0.5,1.9-0.5c0.3,0,0.6,0.2,0.6,0.5c0,0.2-0.1,0.4-0.2,0.5c0,0-0.6,0.3-1.8,0.9l-4.8,2.2
			c-2,0.9-4.3,1.9-6.8,2.9l-7.8,3.2c-2.6,1.1-5.4,2.1-7.9,3.1s-4.8,2-6.8,2.9l-4.9,1.9l-1.9,0.7l0,0c-0.3,0.1-0.6-0.1-0.7-0.4
			C130.9,282.4,131,282.1,131.1,282.1L131.1,282.1z"/>
		<path class="st11" d="M84.8,278l1.8-0.9l2.1-1c0.8-0.4,1.7-0.9,2.7-1.3l3.3-1.3c1.2-0.5,2.4-1,3.7-1.4c2.6-0.8,5.3-1.8,8.1-2.6
			s5.6-1.6,8.2-2.3s5.1-1.3,7.2-1.8s3.9-0.9,5.1-1.1l1.9-0.4c0.3-0.1,0.6,0.1,0.6,0.4c0.1,0.3-0.1,0.6-0.4,0.7c0,0,0,0,0,0l-6.9,1.9
			c-2.1,0.6-4.5,1.3-7.1,2s-5.3,1.6-8.1,2.4s-5.5,1.7-8,2.5c-1.3,0.4-2.5,0.9-3.6,1.3l-3.3,1.2c-1,0.4-1.9,0.8-2.7,1.1l-2.1,0.9
			l-1.8,0.8h-0.1c-0.3,0.1-0.6,0-0.7-0.3C84.5,278.5,84.5,278.1,84.8,278z"/>
		<path class="st10" d="M239.7,263.1c-23.8,9.4-68.8,16.4-120.5,17.4c-25.5,0.6-51.1-0.5-76.5-3.3c15.4-6.4,48.7-14.2,48.7-14.2
			C143.3,257.4,198.1,259.6,239.7,263.1z"/>
		<path class="st3" d="M92.5,264.3c0.6-0.4,1.2-0.6,1.9-0.6c0.7,0.1,1.3,0.3,1.9,0.6c0.8,0.5,1.4,1.4,1.4,2.3c0,1-0.5,1.9-1.3,2.4
			c-1.1,0.8-2.6,0.9-3.8,0.1c-0.9-0.5-1.4-1.4-1.4-2.4C91.2,265.8,91.7,264.9,92.5,264.3z"/>
		<path class="st3" d="M87.3,266H87c0.3-0.1,0.7-0.1,1,0c0.2,0.1,0.4,0.1,0.6,0.3c0.5,0.3,0.8,0.8,0.9,1.3c0.1,0.4,0,0.9-0.3,1.2
			c-0.4,0.6-1.1,1-1.9,1c-0.9,0-1.7-0.5-1.9-1.4c-0.1-0.3-0.1-0.7,0-1C85.6,266.6,86.5,266.1,87.3,266z"/>
		<path class="st3" d="M80.9,267.6c0.6,0,1.1,0.5,1.1,1.1c0,0.6-0.5,1.1-1.1,1.1c-0.6,0-1.1-0.5-1.1-1.1
			C79.8,268.1,80.3,267.6,80.9,267.6z"/>
		<path class="st3" d="M36.3,288.7c3-4.3,9.7-2,12.9,0.8c0.8,0.8,0.8,2,0,2.8c-0.2,0.2-0.5,0.4-0.8,0.5c-3.7,1-9.2,0.1-11.8-2.9
			C36.2,289.7,36.1,289.1,36.3,288.7z"/>
		<path class="st3" d="M55.8,288.8c3.3-0.1,3.4,5.1,0.1,5.1S52.5,288.8,55.8,288.8z"/>
		<path class="st3" d="M63.3,291.7c0.2-0.1,0.4-0.1,0.6-0.1c0.7,0,1.2,0.5,1.2,1.2c0,0,0,0,0,0c0,0.4-0.1,0.9-0.4,1.2
			c-0.5,0.5-1.4,0.5-1.9,0c-0.2-0.2-0.4-0.6-0.4-0.9l0,0C62.3,292.5,62.7,291.9,63.3,291.7z"/>
		<path class="st3" d="M234.2,301.7c0.2,0,0.3,0,0.5,0c0.4-0.1,0.8-0.1,1.2,0c0.6,0,1.2,0.2,1.8,0.5c0.8,0.2,1.2,1,1,1.8
			c-0.1,0.5-0.5,0.8-0.9,1c-0.7,0.3-1.5,0.5-2.3,0.3c-0.8-0.1-1.6-0.6-2.1-1.3c-0.5-0.5-0.6-1.3-0.1-1.9
			C233.5,301.8,233.8,301.7,234.2,301.7z"/>
		<path class="st3" d="M229.6,302c0.2-0.6,0.8-0.8,1.4-0.6c0.3,0.1,0.5,0.3,0.6,0.6c0,0.1,0,0.1,0.1,0.2c0.2,0.6-0.2,1.2-0.8,1.4
			c-0.6,0.2-1.2-0.2-1.4-0.8c0-0.2,0-0.4,0-0.6L229.6,302z"/>
		<path class="st0" d="M392.9,329c-7.1,1.5-95.6,17.8-108.9,17.8c-13.2,0.1-51.6-10-54.7-13.4c-3.1-3.3,1-37.2,5.7-37.9
			c4.7-0.7,202.1-30.7,210.8-30.5c5.2,0.2,39.7,7.2,41.1,11.5c1.4,4.4,2.5,30.9-5.1,35C474.3,315.7,419.1,323.4,392.9,329z"/>
		<path class="st1" d="M280.3,311.4l-48,19.7c-0.6-11,0.5-29.6,3.2-30.4c3.6-1.1,155.6-48.6,162.4-49.1c3.6-0.2,24.7,2.6,31.1,6.2
			l0,0L280.3,311.4z"/>
		<path class="st2" d="M233.8,295.3c0,0,40.2,6.8,44.8,10.7s-3,36-3,36c-10.3,1.2-41-5.4-43.6-8.4S230.2,296.4,233.8,295.3z"/>
		<path class="st3" d="M246.7,302c4.8-1.9,11.3,1.7,15.8,3.4c0.6,0.2,0.3,1.1-0.3,1.1c-2.7,0.2-5.4,0.1-8-0.4
			c-2.5-0.5-5.5-0.6-7.7-2.1c-0.6-0.3-0.8-1-0.4-1.6C246.2,302.2,246.4,302,246.7,302z"/>
		<path class="st3" d="M242.2,300.3c1,0,1.8,0.8,1.8,1.8s-0.8,1.8-1.8,1.8s-1.8-0.8-1.8-1.8S241.2,300.3,242.2,300.3z"/>
		<path class="st3" d="M294,284.1c4-1.3,8.2-2.2,12.3-2.8c0.6,0,1,0.4,1,1c0,0.4-0.2,0.7-0.5,0.9c-3.7,1.7-7.3,3.5-11,5.2
			c-3,1.4-5.8,3.1-9.2,2.8c-0.9,0-1.7-0.8-1.7-1.7c0-0.4,0.2-0.8,0.4-1.1C287.7,286,290.9,285.1,294,284.1z"/>
		<path class="st3" d="M283.2,288.7c1.2,0.3,2,1.6,1.7,2.8c-0.3,1.3-1.6,2-2.8,1.7c-1.3-0.3-2-1.6-1.7-2.8
			C280.7,289.2,282,288.4,283.2,288.7C283.2,288.7,283.2,288.7,283.2,288.7z"/>
		<path class="st3" d="M275.6,291.2c1,0.1,1.8,0.9,1.7,1.9c0,0.9-0.7,1.6-1.6,1.7c-1-0.1-1.8-0.9-1.7-1.9
			C274,292,274.7,291.2,275.6,291.2z"/>
		<path class="st3" d="M262.7,295.6c1.6-2.6,4.8-3.8,7.6-2.8c1.1,0.3,1.6,1.5,1.3,2.5c-0.1,0.4-0.4,0.8-0.8,1
			c-2,1.4-4.8,2.3-7.2,1.6c-0.9-0.2-1.4-1.1-1.1-2C262.6,295.8,262.7,295.7,262.7,295.6z"/>
		<path class="st3" d="M266.8,306c0.9,0,1.7,0.7,1.7,1.7c0,0.9-0.7,1.7-1.7,1.7s-1.7-0.7-1.7-1.7C265.1,306.8,265.9,306,266.8,306
			L266.8,306z"/>
		<path class="st3" d="M310.4,279.6c0.2-0.1,0.5-0.3,0.8-0.3c1.2-0.3,2.4,0.3,2.8,1.5c0.3,1.2-0.3,2.4-1.5,2.8
			c-0.4,0.1-0.8,0.1-1.2,0c-0.3-0.1-0.5-0.2-0.8-0.3c-1-0.6-1.4-1.9-0.8-2.9C309.8,280,310.1,279.8,310.4,279.6z"/>
		<path class="st4" d="M333.9,311.4c-6.3,0-41.5-3.1-46.8-8.1c-5.3-5-2.7-29.7-1.8-34.6c1.9-10.8,65.8-25.8,70.1-33.3
			c4.3-7.5,49.2-190.3,49.7-194.4c0.6-4.1,15.5-37.2,21.4-40.6s51.5,3.1,54.6,7.9c3.1,4.8,7,282,7,282S345.3,311.4,333.9,311.4z"/>
		<path class="st5" d="M285.2,268.7c1.9-10.8,65.8-25.8,70.1-33.3c4.3-7.5,49.2-190.3,49.7-194.4c0.6-4.1,15.5-37.2,21.4-40.6
			s51.5,3.1,54.6,7.9c0,0-46-6.7-49.4-3.5S418.6,37.6,417.5,49c-1,11.4-30.5,188-32.6,195c-2.1,7-42.5,32.7-45.7,35.4
			c-3.3,2.7-5.4,31.9-5.4,31.9c-6.3,0-41.5-3.1-46.8-8.1C281.7,298.3,284.4,273.6,285.2,268.7z"/>
		<path class="st6" d="M355.3,235.4L385,244c-2.1,7-42.5,32.7-45.7,35.4l-54.1-10.7C287.1,257.9,351,242.9,355.3,235.4z"/>
		<path class="st7" d="M355.3,235.4c3.3-5.8,30.7-115.5,43.3-167.6c4.9,9.3,8.7,19.2,11.5,29.3c-6.4,39.4-15.4,93.2-20.8,123.6
			c-17.3,23.6-42,38.5-69.6,39c-6.3,0.1-12.7-0.5-18.9-1.9C320.7,249.4,352.3,240.6,355.3,235.4z"/>
		<path class="st3" d="M368.7,216c-2.5-9.4,0.4-21,6.8-27.8c0.2-0.3,0.6-0.3,0.9-0.1c0.1,0.1,0.1,0.1,0.2,0.2
			c4.4,9.1,1.6,21.6-4.7,28.5c-0.7,0.7-1.8,0.8-2.6,0.2C369,216.8,368.8,216.4,368.7,216z"/>
		<path class="st3" d="M367.3,218.2c2.2-0.3,4.3,1.3,4.6,3.5c0.3,2.2-1.3,4.3-3.5,4.6c-2.2,0.3-4.3-1.3-4.6-3.5c0-0.1,0-0.3,0-0.4
			C363.6,220.2,365.2,218.4,367.3,218.2z"/>
		<path class="st3" d="M377.8,183.9c-0.7-0.5-1.2-1.3-1.2-2.2c-0.1-1.1,0.6-2.1,1.6-2.5h0.1c1.3-0.3,2.6,0.5,2.9,1.8
			c0.1,0.2,0.1,0.4,0.1,0.7C381.4,183.5,379.4,185,377.8,183.9L377.8,183.9z"/>
		<path class="st3" d="M434.9,1.2c0.5-0.2,0.8,0.2,1.1,0.5c0.2,0.2,0.6,0.5,0.5,0.8s-0.6,0.4-1,0.4c-0.6,0-1-0.4-1-1
			c0-0.1,0-0.2,0-0.3C434.6,1.5,434.7,1.3,434.9,1.2z"/>
		<path class="st3" d="M414.2,39.2c0.5-0.2,1.2-0.2,1.7,0.1c0.3,0.2,0.6,0.4,0.8,0.7c0.6,0.7,0.5,1.7-0.1,2.3c0,0-0.1,0.1-0.1,0.1
			c-0.6,0.5-1.5,0.7-2.2,0.4c-0.7-0.3-1.2-1-1.2-1.7C412.9,40.2,413.4,39.5,414.2,39.2z"/>
		<path class="st3" d="M412.6,38.4l0.1,0.1c0.8,1.1-0.7,3-1.8,2.1l-0.1-0.1C409,39.1,411.2,36.5,412.6,38.4z"/>
		<path class="st3" d="M408.7,39.2c-0.6,0-0.6-1,0-1C409.3,38.1,409.3,39.2,408.7,39.2z"/>
		<path class="st3" d="M401.4,68.8c-0.4-1.9-0.3-4,0.4-5.8c0.7-1.9,1.9-3.7,3.4-5c0.7-0.5,1.6,0.3,1.4,1.1c-0.8,3.3-1.3,6.9-2.9,10
			c-0.3,0.6-1,0.9-1.7,0.6C401.8,69.5,401.5,69.2,401.4,68.8z"/>
		<path class="st3" d="M401.3,70.6c2.9-0.1,3,4.9,0.1,4.9C398.6,75.5,398.5,70.6,401.3,70.6z"/>
		<path class="st3" d="M408.4,52.5c1,0.1,1.8,0.9,1.8,1.9v0.2c0.1,1-0.6,1.8-1.5,1.9c-1,0.1-1.8-0.6-1.9-1.5c0-0.1,0-0.3,0-0.4v-0.1
			C406.6,53.4,407.4,52.6,408.4,52.5z"/>
		<path class="st3" d="M297.3,267.7c3.3-1.9,7.3,0,10.6,1.2c4.1,1.6,7.9,3.9,11.9,5.7c0.9,0.4,0.3,2-0.6,1.8
			c-3.6-1-7.2-2.1-10.8-3.1s-7.9-0.6-11-2.6c-0.8-0.6-1-1.7-0.4-2.6C297,267.9,297.1,267.8,297.3,267.7z"/>
		<path class="st3" d="M323.1,274.6c1-0.6,2.2-0.4,2.9,0.6c0,0.1,0.1,0.1,0.1,0.2c0.2,0.4,0.3,0.9,0.4,1.4c0.1,1.3-0.9,2.4-2.1,2.5
			c-0.9,0-1.6-0.5-1.9-1.4v0.1c0,0,0,0,0-0.1c-0.2-0.3-0.3-0.7-0.3-1.1l0,0c0,0,0-0.1,0-0.1l0,0C322,275.9,322.4,275,323.1,274.6z"
			/>
		<path class="st3" d="M291.8,265.7c1.5,0.1,2.6,1.5,2.5,3c-0.1,1.3-1.1,2.3-2.4,2.5c-1.5-0.1-2.6-1.5-2.5-3
			C289.5,266.9,290.5,265.8,291.8,265.7z"/>
		<path class="st3" d="M351.7,98.1c-0.2-3,1.1-5.8,3.5-7.6c2.1-1.7,4.8-2.3,7.4-1.6c0.7,0.2,1.2,0.9,1,1.7c0,0,0,0,0,0
			c-0.7,1.9-1.7,3.6-3.1,5.1c-1.5,1.5-3.1,2.9-4.8,4.1c-0.9,0.9-2.4,0.9-3.3,0C352,99.3,351.7,98.7,351.7,98.1z"/>
		<path class="st3" d="M349.5,100.8h0.1c1.1,0.3,1.9,1.1,2.2,2.2c0.4,1.4-0.2,2.8-1.4,3.5l-0.1,0.1c-1.5,0.9-3.5,0.4-4.3-1.2
			c-0.9-1.5-0.4-3.5,1.2-4.3C347.8,100.7,348.7,100.5,349.5,100.8L349.5,100.8z"/>
		<path class="st3" d="M344.9,111.4c0.3,0.5,0.3,1.2,0,1.7c-0.4,0.6-1.2,0.8-1.9,0.4c-0.2-0.1-0.3-0.3-0.4-0.4
			c-0.3-0.5-0.3-1.2,0-1.7c0.3-0.6,1.1-0.9,1.8-0.6C344.5,110.9,344.7,111.1,344.9,111.4z"/>
		<path class="st3" d="M367.4,84.9c1,0,1.8,0.8,1.8,1.8c0,1-0.8,1.8-1.8,1.8s-1.8-0.8-1.8-1.8C365.7,85.7,366.4,84.9,367.4,84.9
			L367.4,84.9z"/>
		<path class="st3" d="M335.5,121.3c0.7-2.1,2-4,3.8-5.3c0.5-0.3,1.2-0.3,1.7,0c0.1,0.1,0.2,0.1,0.3,0.2c0.7,0.7,0.5,1.4,0.3,2.3
			c-0.1,1.4-0.2,2.8-0.1,4.2c0,2.9-1,6.3-4.2,7.1c-1.2,0.3-2.4-0.4-2.8-1.6C333.7,125.8,334.5,123.5,335.5,121.3z"/>
		<path class="st3" d="M373.4,80.9l0.5-0.3c1.5-1,3.4,0.4,3.4,2s-2,3-3.4,2l-0.5-0.3c-0.9-0.5-1.2-1.7-0.7-2.7
			C372.9,81.3,373.2,81.1,373.4,80.9z"/>
		<path class="st3" d="M410.2,194.4c2.2-1.8,4.9-1.8,7.5-1c1.6,0.4,3,1.4,4,2.8c1,1.5,0.8,3.6-0.7,4.8c-1.6,1.3-3.4,0.1-5,0
			c-2-0.1-4-0.7-5.7-1.9c-1.3-0.9-1.6-2.7-0.7-4C409.7,194.8,409.9,194.6,410.2,194.4z"/>
		<path class="st3" d="M405.4,194.6c1.5-0.2,2.9,0.9,3.1,2.5c0.2,1.5-0.9,2.9-2.5,3.1c-1.5,0.2-2.9-0.9-3.1-2.5c0-0.1,0-0.2,0-0.3
			C402.8,196,403.9,194.7,405.4,194.6z"/>
		<path class="st3" d="M398.4,197.1c2.5-0.1,2.6,4.3,0.1,4.3C396,201.5,395.9,197.1,398.4,197.1z"/>
		<path class="st3" d="M426.6,199.7c2.9-0.1,3,4.9,0.1,4.9C423.8,204.7,423.7,199.8,426.6,199.7z"/>
		<path class="st3" d="M498.5,258.7c1.8,0.8,3.2,3.5,4.6,5c1.5,1.6,3.2,3.1,5,4.3c0.1,0.1,0.1,0.3,0.1,0.4c0,0,0,0-0.1,0.1
			c-2,1.2-4.9-0.1-6.6-1.2c-2.2-1.4-5.3-3.7-5.7-6.7C495.6,258.8,497.4,258.2,498.5,258.7z"/>
		<path class="st3" d="M495.9,255.3c1.8,0,1.8,3,0.1,3S494.1,255.4,495.9,255.3z"/>
		<path class="st3" d="M511.1,266.9c1.4-0.2,2.6,0.8,2.8,2.2c0.2,1.4-0.8,2.6-2.2,2.8c-1.4,0.2-2.6-0.8-2.8-2.2c0-0.1,0-0.2,0-0.2
			C508.8,268.2,509.8,267,511.1,266.9z"/>
		<path class="st3" d="M362.9,191.9c2.2-1.6,4.8-1.6,7.3-0.9c1.5,0.3,2.9,1.2,3.9,2.5c1,1.3,0.8,3.2-0.6,4.2c0,0-0.1,0-0.1,0.1
			c-1.5,1.1-3.4,0.1-4.9,0c-2,0-3.9-0.6-5.6-1.7c-1.2-0.7-1.6-2.2-0.9-3.3C362.3,192.4,362.5,192.1,362.9,191.9z"/>
		<path class="st3" d="M358.1,192.1c1.4,0,2.5,1.1,2.5,2.4c0,1.4-1.1,2.5-2.4,2.5c-1.4,0-2.5-1.1-2.5-2.4
			C355.7,193.3,356.8,192.1,358.1,192.1z"/>
		<path class="st3" d="M351.3,194.4c2.5-0.1,2.6,3.8,0.1,3.9S348.8,194.4,351.3,194.4z"/>
		<path class="st3" d="M366.9,218.3c3.2-0.1,3.3,4.8,0.1,4.9S363.8,218.3,366.9,218.3z"/>
		<path class="st3" d="M450.5,274.8c1.9,0.8,3.5,3.5,5,4.9c1.6,1.6,3.5,3,5.4,4.3c0.1,0.1,0.2,0.2,0.1,0.3c0,0-0.1,0.1-0.1,0.1
			c-2.1,1.2-5.3-0.1-7.2-1.2c-2.4-1.4-5.7-3.7-6.2-6.6C447.2,275,449.3,274.3,450.5,274.8z"/>
		<path class="st3" d="M447.6,271.5c0.8,0,1.5,0.6,1.5,1.5s-0.6,1.5-1.5,1.5s-1.5-0.6-1.5-1.5S446.7,271.5,447.6,271.5z"/>
		<path class="st3" d="M464.1,283c1.4,0,2.5,1.1,2.5,2.4c0,1.4-1.1,2.5-2.4,2.5c-1.4,0-2.5-1.1-2.5-2.4
			C461.6,284.2,462.7,283,464.1,283z"/>
	</g>
</g>
</svg>
