<svg xmlns="http://www.w3.org/2000/svg" xmlns:xlink="http://www.w3.org/1999/xlink" viewBox="0 0 378.76 410.86"><defs><style>.cls-1,.cls-22,.cls-26,.cls-5,.cls-6{fill:none;}.cls-2{isolation:isolate;}.cls-3{fill:#e3ccaf;}.cls-3,.cls-31{mix-blend-mode:multiply;}.cls-4{fill:#ff2a23;}.cls-5,.cls-6{stroke:#300d4a;}.cls-26,.cls-5,.cls-6{stroke-linecap:round;}.cls-22,.cls-26,.cls-5,.cls-6{stroke-miterlimit:10;}.cls-5{stroke-width:3px;}.cls-6{stroke-width:2.34px;}.cls-7{fill:#00b3fd;}.cls-8{fill:#0082b8;}.cls-9{fill:#91120e;}.cls-10{fill:#bf1812;}.cls-11{fill:#bf5252;}.cls-12{fill:#0086bd;}.cls-13{fill:#005578;}.cls-14{fill:#499bbd;}.cls-15{fill:#f2ba00;}.cls-16{fill:#d69a00;}.cls-17{fill:#d1221d;}.cls-18{fill:#ff9f9f;}.cls-19{fill:#8edcfd;}.cls-20{fill:#ffe600;}.cls-21{fill:#f2ce00;}.cls-22{stroke:#ff2a23;stroke-width:9.37px;}.cls-23{fill:#300d4a;}.cls-24{fill:#fde12d;}.cls-25{fill:#f8cb31;}.cls-26{stroke:#f5f5f5;stroke-width:0.88px;}.cls-27{fill:#f5f5f5;}.cls-28{fill:#ff961a;}.cls-29{fill:#ffcd97;}.cls-30{fill:#d97500;}.cls-31{opacity:0.5;}.cls-32{clip-path:url(#clip-path);}</style><clipPath id="clip-path" transform="translate(-63.72 -43.57)"><path class="cls-1" d="M222.45,379.75c2.42-3.35,20.2-2.07,26.18-.57s23.91-2.67,26.74-1.38,13.42,45.42,24.36,55.26c2.93,7.21,1.56,6.22-1.66,8.47s-97,1.69-99.73,1-3.11-2-3-6.4,15.23-21.28,19.27-32.53S220.66,382.24,222.45,379.75Z"/></clipPath></defs><title>inflatable2</title><g class="cls-2"><g id="OBJECTS"><ellipse class="cls-3" cx="185.63" cy="360.7" rx="161.7" ry="32.56"/><path class="cls-4" d="M97.13,92.5c2.35-2.23,5-4.6,8.25-4.7,2.78-.08,5.38,1.55,8.16,1.52,4.52,0,7.7-4.25,11.47-6.74a24.44,24.44,0,0,1,10.21-3.45,6.58,6.58,0,0,0-3.9,7A13.33,13.33,0,0,1,140,84.45c-5.57,3.59-9.32,9.77-15.39,12.45-4,1.76-8.49,1.78-12.84,2.21s-8.94,1.48-11.9,4.69" transform="translate(-63.72 -43.57)"/><line class="cls-5" x1="42.45" y1="88.33" x2="33.38" y2="48.07"/><path class="cls-4" d="M400.59,97.22c3.1-.93,6.54-1.86,9.48-.49,2.52,1.17,4.11,3.8,6.61,5,4.06,2,8.79-.34,13.27-.88a24.41,24.41,0,0,1,10.68,1.5,6.58,6.58,0,0,0-6.64,4.53,13.34,13.34,0,0,1,8.49,2.35c-6.59.71-12.72,4.56-19.34,4.23-4.36-.22-8.39-2.22-12.46-3.78s-8.66-2.7-12.75-1.16" transform="translate(-63.72 -43.57)"/><line class="cls-5" x1="327.28" y1="92.93" x2="337.23" y2="52.88"/><path class="cls-4" d="M164.12,51.68c2-1.6,4.18-3.28,6.7-3.16,2.17.1,4.1,1.53,6.26,1.67,3.52.24,6.24-2.84,9.33-4.55a19.1,19.1,0,0,1,8.15-2.07,5.13,5.13,0,0,0-3.46,5.23,10.46,10.46,0,0,1,6.83-.81c-4.55,2.46-7.84,7-12.72,8.77-3.22,1.13-6.72.87-10.13.94s-7.05.61-9.54,2.93" transform="translate(-63.72 -43.57)"/><line class="cls-6" x1="105.06" y1="39.3" x2="100.43" y2="7.44"/><path class="cls-4" d="M333,53.57c2.28-1.12,4.81-2.26,7.25-1.58,2.08.59,3.64,2.41,5.72,3,3.37,1,6.72-1.37,10.11-2.34a19.08,19.08,0,0,1,8.41-.2A5.14,5.14,0,0,0,360,56.81a10.39,10.39,0,0,1,6.83.74c-5,1.38-9.22,5.11-14.36,5.69-3.38.38-6.74-.66-10.08-1.35s-7-1-10,.72" transform="translate(-63.72 -43.57)"/><line class="cls-6" x1="266.85" y1="41.45" x2="269.48" y2="9.36"/><path class="cls-7" d="M376,370a21.44,21.44,0,0,0-11.15-6.13c-14.41-39.71-115.44-35.29-115.44-35.29s-101-4.42-115.45,35.29A21.44,21.44,0,0,0,122.76,370c-1.32,6.37,33.36,9.22,126.6,9.22S377.27,376.37,376,370Z" transform="translate(-63.72 -43.57)"/><path class="cls-8" d="M131.13,364.64a22.16,22.16,0,0,0-2.25.93Q130,365.14,131.13,364.64Z" transform="translate(-63.72 -43.57)"/><path class="cls-8" d="M367.58,364.64c.78.33,1.52.64,2.25.93A22.16,22.16,0,0,0,367.58,364.64Z" transform="translate(-63.72 -43.57)"/><path class="cls-8" d="M338,340.44c-26.55-1.72-59.22-1.91-88.61,3.42-29.4-5.33-62.07-5.14-88.62-3.42-12.62,5.18-22.68,12.55-26.67,23,40.81-15.37,115.29-5,115.29-5s74.47-10.34,115.28,5C360.65,353,350.59,345.62,338,340.44Z" transform="translate(-63.72 -43.57)"/><path class="cls-9" d="M168.28,79.69c-4.83,1.56-19.1,31.86-20,39.68l25.41-1.85,0-.11C170.25,105.07,166.84,92.14,168.28,79.69Z" transform="translate(-63.72 -43.57)"/><path class="cls-10" d="M168.66,79.62a1.06,1.06,0,0,0-.38.07c-1.44,12.45,2,25.38,5.38,37.72l0,.11,22.52-1.63C192.36,104.91,173.07,79.7,168.66,79.62Z" transform="translate(-63.72 -43.57)"/><path class="cls-11" d="M174.78,87.39c-1.55.76,5.26,7.26,7,10.74s3.88,6.24,5,6.49c1.92.43,1.42-.75.73-1.74C184.58,98.74,176.07,86.75,174.78,87.39Z" transform="translate(-63.72 -43.57)"/><path class="cls-11" d="M173.21,85.75a.8.8,0,0,1-.91.65.77.77,0,1,1,.21-1.53A.79.79,0,0,1,173.21,85.75Z" transform="translate(-63.72 -43.57)"/><path class="cls-12" d="M208.76,104.54c-2.18-4.28-14.8-5.14-17.27-2.38s1,9.2,0,10.83-5,2-7.23,1.21-1.87-10-4.13-12.06-17.15.07-18.38,2.33.68,8.49.64,10.47-5.68,2.53-7.21,1.88-.54-7.81-2.12-9.8-13.89-1.69-15.08,1.9c-4.13,13.14.2,28.76,1.43,31.58a10.9,10.9,0,0,0,3.15,4.16c-2.76-7,4.49-14.16,33-17.74s38,2.92,36.94,7.58C214.78,129.78,211,108.82,208.76,104.54Z" transform="translate(-63.72 -43.57)"/><path class="cls-13" d="M175.57,126.92c-28.5,3.58-35.75,10.76-33,17.74,2,1.61,5,2.8,9.6,2.46,38.6-2.85,58.06-7.9,60.33-12.62C213.61,129.84,204.09,123.34,175.57,126.92Z" transform="translate(-63.72 -43.57)"/><path class="cls-12" d="M146.58,108.48c.75,0,1.5,0,2.26,0a2.59,2.59,0,0,1,.48,0l.24,0,.08,0a2,2,0,0,1,.37.21c-.08-.06,0,0,0,0a1.06,1.06,0,0,1,.15.15l.12.13c-.08-.09.05.09.05.09a2.33,2.33,0,0,1,.2.34,1.3,1.3,0,0,1,.08.17c.1.2,0-.12,0,.1s.09.25.12.38a8,8,0,0,1,.32,2,.73.73,0,0,0,1.45,0,6.7,6.7,0,0,0-1.37-4.25,3,3,0,0,0-2-.93c-.86-.07-1.74,0-2.6,0a.74.74,0,0,0-.72.73.73.73,0,0,0,.72.72Z" transform="translate(-63.72 -43.57)"/><path class="cls-14" d="M146.23,108.85a9.19,9.19,0,0,1,3.8.2,1.26,1.26,0,0,1,.52.23.64.64,0,0,1,.15.46c.05.71.07,1.42.1,2.12a.75.75,0,0,0,.72.73.73.73,0,0,0,.72-.73c0-.79,0-1.6-.12-2.38a2,2,0,0,0-1.46-1.75,8.91,8.91,0,0,0-2.34-.41,12,12,0,0,0-2.47.13.72.72,0,0,0-.5.89.73.73,0,0,0,.88.51Z" transform="translate(-63.72 -43.57)"/><path class="cls-14" d="M151.6,115.1a.73.73,0,0,0,0-1.45.73.73,0,0,0,0,1.45Z" transform="translate(-63.72 -43.57)"/><path class="cls-14" d="M168.33,104.62a36.53,36.53,0,0,1,7.13-1,11.47,11.47,0,0,1,1.76.09,1.21,1.21,0,0,1,1,.78,8.14,8.14,0,0,1,.72,3.25c0,.93,1.48.94,1.45,0a9.92,9.92,0,0,0-.89-3.9c-.57-1.27-1.65-1.55-2.95-1.63a32.77,32.77,0,0,0-8.64,1c-.91.19-.52,1.58.39,1.39Z" transform="translate(-63.72 -43.57)"/><path class="cls-14" d="M179.91,110.36a.72.72,0,0,0,0-1.44.72.72,0,0,0,0,1.44Z" transform="translate(-63.72 -43.57)"/><path class="cls-14" d="M197.74,103.24c2.13.49,4.45.27,6.51,1.1a5.47,5.47,0,0,1,3.29,4.37.73.73,0,0,0,.89.51.74.74,0,0,0,.5-.89,6.84,6.84,0,0,0-3.65-5.11c-2.24-1.09-4.78-.83-7.16-1.37-.9-.21-1.29,1.19-.38,1.39Z" transform="translate(-63.72 -43.57)"/><path class="cls-14" d="M208,111.39l.09.11a.51.51,0,0,0,.23.15.68.68,0,0,0,.56,0,.57.57,0,0,0,.23-.15l.11-.15a.65.65,0,0,0,.1-.36l0-.2a.65.65,0,0,0-.18-.31l-.08-.11a.61.61,0,0,0-.24-.15.64.64,0,0,0-.28-.06.63.63,0,0,0-.27.06.61.61,0,0,0-.24.15l-.11.15a.65.65,0,0,0-.1.36l0,.19a.64.64,0,0,0,.18.32Z" transform="translate(-63.72 -43.57)"/><path class="cls-15" d="M151.46,138.63c-7.11,5.13,3.28,29.05,8.32,77.67,1.55,21.08,9.32,114.73,16.05,118.75s34.47,5.52,41.29-2.81-9.6-124.43-10.84-153.59,1-42.37-3.92-45S164.5,129.22,151.46,138.63Z" transform="translate(-63.72 -43.57)"/><path class="cls-16" d="M205.8,155.57c-.07-13.38-.09-20.12-3.44-21.9-4.91-2.61-37.86-4.45-50.9,5-2.72,2-2.88,6.67-1.76,14.44,8.2-7.1,18.53-11.78,29.3-11.63C189.49,141.58,200,147,205.8,155.57Z" transform="translate(-63.72 -43.57)"/><path class="cls-9" d="M330.43,79.69c4.83,1.56,19.1,31.86,20,39.68L325,117.52l0-.11C328.46,105.07,331.88,92.14,330.43,79.69Z" transform="translate(-63.72 -43.57)"/><path class="cls-10" d="M330.05,79.62a1.06,1.06,0,0,1,.38.07c1.45,12.45-2,25.38-5.38,37.72l0,.11-22.52-1.63C306.36,104.91,325.65,79.7,330.05,79.62Z" transform="translate(-63.72 -43.57)"/><path class="cls-11" d="M323.93,87.39c1.55.76-5.26,7.26-7,10.74s-3.87,6.24-5,6.49c-1.92.43-1.42-.75-.73-1.74C314.14,98.74,322.64,86.75,323.93,87.39Z" transform="translate(-63.72 -43.57)"/><path class="cls-11" d="M325.5,85.75a.8.8,0,0,0,.91.65.77.77,0,1,0-.21-1.53A.81.81,0,0,0,325.5,85.75Z" transform="translate(-63.72 -43.57)"/><path class="cls-12" d="M290,104.54c2.19-4.28,14.8-5.14,17.27-2.38s-1.05,9.2,0,10.83,5,2,7.24,1.21,1.86-10,4.12-12.06,17.15.07,18.38,2.33-.68,8.49-.63,10.47,5.67,2.53,7.2,1.88.55-7.81,2.12-9.8,13.9-1.69,15.09,1.9c4.12,13.14-.21,28.76-1.44,31.58a10.8,10.8,0,0,1-3.15,4.16c2.76-7-4.49-14.16-33-17.74s-38,2.92-36.93,7.58C283.93,129.78,287.76,108.82,290,104.54Z" transform="translate(-63.72 -43.57)"/><path class="cls-13" d="M323.14,126.92c28.5,3.58,35.75,10.76,33,17.74-2,1.61-5,2.8-9.6,2.46-38.6-2.85-58-7.9-60.32-12.62C285.1,129.84,294.62,123.34,323.14,126.92Z" transform="translate(-63.72 -43.57)"/><path class="cls-12" d="M352.13,107c-.84,0-1.71-.08-2.55,0a3,3,0,0,0-2.09.93,6.76,6.76,0,0,0-1.37,4.25.74.74,0,0,0,.73.72.73.73,0,0,0,.72-.72,8.18,8.18,0,0,1,.31-2c0-.14.09-.28.14-.42l0-.07h0s0-.11.08-.16.14-.26.22-.38.11-.16.07-.11l.1-.11a1.33,1.33,0,0,1,.53-.4h0l.07,0a1.28,1.28,0,0,1,.28-.07,3.13,3.13,0,0,1,.44,0c.76,0,1.54,0,2.3,0a.73.73,0,1,0,0-1.45Z" transform="translate(-63.72 -43.57)"/><path class="cls-14" d="M352.86,107.45a12,12,0,0,0-2.47-.13,8.91,8.91,0,0,0-2.34.41,2,2,0,0,0-1.46,1.75c-.1.78-.09,1.59-.12,2.38a.72.72,0,1,0,1.44,0c0-.69.06-1.38.1-2.08a2,2,0,0,1,0-.28c0-.15,0,0,0-.14l0,0a1.09,1.09,0,0,1,.55-.26,9.19,9.19,0,0,1,3.8-.2.75.75,0,0,0,.89-.51.74.74,0,0,0-.51-.89Z" transform="translate(-63.72 -43.57)"/><path class="cls-14" d="M347.11,115.1a.73.73,0,0,0,0-1.45.73.73,0,0,0,0,1.45Z" transform="translate(-63.72 -43.57)"/><path class="cls-14" d="M330.77,103.23a32.77,32.77,0,0,0-8.64-1c-1.25.08-2.34.33-2.92,1.55a10,10,0,0,0-.92,4,.73.73,0,0,0,1.45,0,8.14,8.14,0,0,1,.72-3.25,1.21,1.21,0,0,1,1-.78,11.53,11.53,0,0,1,1.76-.09,36.53,36.53,0,0,1,7.13,1c.91.19,1.3-1.2.39-1.39Z" transform="translate(-63.72 -43.57)"/><path class="cls-14" d="M318.8,110.36a.72.72,0,0,0,0-1.44.72.72,0,0,0,0,1.44Z" transform="translate(-63.72 -43.57)"/><path class="cls-14" d="M300.59,101.85c-2.38.54-4.91.28-7.16,1.37a6.86,6.86,0,0,0-3.65,5.11.75.75,0,0,0,.51.89.74.74,0,0,0,.89-.51,5.46,5.46,0,0,1,3.28-4.37c2.06-.83,4.38-.61,6.51-1.1.91-.2.53-1.6-.38-1.39Z" transform="translate(-63.72 -43.57)"/><path class="cls-14" d="M289.74,110.37l-.09.11a.51.51,0,0,0-.15.23.64.64,0,0,0-.06.28.67.67,0,0,0,.06.28.65.65,0,0,0,.15.23l.15.11a.65.65,0,0,0,.36.1l.2,0a.68.68,0,0,0,.32-.18l.08-.11a.51.51,0,0,0,.15-.23.68.68,0,0,0,0-.56.57.57,0,0,0-.15-.23l-.15-.11a.65.65,0,0,0-.36-.1l-.19,0a.64.64,0,0,0-.32.18Z" transform="translate(-63.72 -43.57)"/><path class="cls-15" d="M347.26,138.63c7.11,5.13-3.29,29.05-8.33,77.67-1.54,21.08-9.32,114.73-16.05,118.75s-34.47,5.52-41.29-2.81,9.6-124.43,10.85-153.59-1-42.37,3.92-45S334.21,129.22,347.26,138.63Z" transform="translate(-63.72 -43.57)"/><path class="cls-16" d="M292.91,155.57c.07-13.38.1-20.12,3.45-21.9,4.9-2.61,37.85-4.45,50.9,5,2.71,2,2.87,6.67,1.75,14.44-8.19-7.1-18.53-11.78-29.3-11.63C309.22,141.58,298.67,147,292.91,155.57Z" transform="translate(-63.72 -43.57)"/><path class="cls-17" d="M104.94,127.46c-5.79,2.93-18.44,45.35-18.22,55.79l31.55-7-.06-.15C111.8,160.47,105.28,144.09,104.94,127.46Z" transform="translate(-63.72 -43.57)"/><path class="cls-4" d="M105.41,127.3a1.31,1.31,0,0,0-.47.16c.34,16.63,6.86,33,13.27,48.61l.06.15,28-6.24C139.51,156.25,110.94,126.61,105.41,127.3Z" transform="translate(-63.72 -43.57)"/><path class="cls-18" d="M114.42,136.41c-1.8,1.27,7.86,8.59,10.61,12.85s5.94,7.5,7.37,7.63c2.48.22,1.65-1.25.62-2.42C128.68,149.55,115.94,135.34,114.42,136.41Z" transform="translate(-63.72 -43.57)"/><path class="cls-18" d="M112.17,134.53a1,1,0,1,1-1-1A1,1,0,0,1,112.17,134.53Z" transform="translate(-63.72 -43.57)"/><path class="cls-7" d="M160,152.79c-3.49-5.23-19.47-4.07-22.08,0s2.9,11.91,1.9,14.23-6,3.49-8.87,2.91-4.07-12.78-7.27-15.11-21.49,3.2-22.65,6.39,2.32,11,2.61,13.66S97,179.22,95,178.64s-2-10.16-4.35-12.49-17.72.29-18.59,5.23c-2.91,18,5.22,37.77,7.26,41.25a14,14,0,0,0,4.67,4.89c-4.67-8.67,3.18-19.42,38.32-29.29s48.23-3.06,47.64,3.26C171.94,184.88,163.51,158,160,152.79Z" transform="translate(-63.72 -43.57)"/><path class="cls-8" d="M122.26,188.23c-35.14,9.87-43,20.62-38.32,29.29,2.8,1.75,6.8,2.77,12.47,1.5,47.93-10.74,71.46-20.91,73.49-27.53C170.49,185.17,157.41,178.35,122.26,188.23Z" transform="translate(-63.72 -43.57)"/><path class="cls-7" d="M82.82,169.2c.91-.15,1.83-.34,2.75-.45a2.59,2.59,0,0,1,1.11.07A1.57,1.57,0,0,1,87,169a1.3,1.3,0,0,1,.33.26,4.8,4.8,0,0,1,1,1.57,13,13,0,0,1,.71,2.6.94.94,0,0,0,1.16.65,1,1,0,0,0,.65-1.15c-.32-1.79-.91-3.91-2.36-5.13a3.71,3.71,0,0,0-2.74-.92c-1.15.08-2.31.34-3.45.53a.93.93,0,0,0-.65,1.15,1,1,0,0,0,1.15.66Z" transform="translate(-63.72 -43.57)"/><path class="cls-19" d="M82.22,169.81a11.43,11.43,0,0,1,2.46-.5,11.09,11.09,0,0,1,2.45,0,2.16,2.16,0,0,1,.49.11l.2.11a1.5,1.5,0,0,1,.28.77c.17.9.32,1.81.48,2.71a.93.93,0,1,0,1.8-.49c-.17-1-.29-2-.53-3a2.59,2.59,0,0,0-2-2,12.16,12.16,0,0,0-6.13.44c-1.15.35-.66,2.16.5,1.8Z" transform="translate(-63.72 -43.57)"/><path class="cls-19" d="M90,177a.94.94,0,0,0,0-1.87A.94.94,0,0,0,90,177Z" transform="translate(-63.72 -43.57)"/><path class="cls-19" d="M109.2,160.25a44.44,44.44,0,0,1,9-2.65,12.58,12.58,0,0,1,2.21-.17,1.49,1.49,0,0,1,1.34.92,12,12,0,0,1,1.45,4.2c.18,1.18,2,.68,1.8-.5a13.14,13.14,0,0,0-1.69-4.74c-.93-1.53-2.24-1.84-4-1.71a40.06,40.06,0,0,0-10.68,2.84c-1.12.42-.63,2.23.5,1.81Z" transform="translate(-63.72 -43.57)"/><path class="cls-19" d="M124.71,165.66a.94.94,0,0,0,0-1.87.94.94,0,0,0,0,1.87Z" transform="translate(-63.72 -43.57)"/><path class="cls-19" d="M146.09,153.07c2.83.26,5.83-.52,8.59.36a7.08,7.08,0,0,1,4.47,4.94.93.93,0,0,0,1.8-.5,9,9,0,0,0-5.12-6c-3.1-1.29-6.5-.38-9.74-.67-1.2-.11-1.19,1.76,0,1.87Z" transform="translate(-63.72 -43.57)"/><path class="cls-19" d="M160.09,161.85l.12.12a.67.67,0,0,0,.3.19.85.85,0,0,0,.72,0,.67.67,0,0,0,.3-.19l.15-.19a1,1,0,0,0,.13-.48l0-.24a.89.89,0,0,0-.24-.42l-.12-.12a.6.6,0,0,0-.3-.19.85.85,0,0,0-.72,0,.6.6,0,0,0-.3.19l-.15.19a.88.88,0,0,0-.13.47l0,.25a1,1,0,0,0,.25.42Z" transform="translate(-63.72 -43.57)"/><path class="cls-20" d="M94,208c-8,8,9.15,37.59,23.88,100.58,5.59,27.44,7.62,58.43,16.76,62.49s44.2,1,51.31-11.18-9.65-71.12-16.25-109.22-6.1-55.88-12.7-58.42S108.76,193.26,94,208Z" transform="translate(-63.72 -43.57)"/><path class="cls-21" d="M186,359.89c3.27-5.59,1.5-21-2-39.76-1.47,8-3.68,15.89-7.83,22.87-6,10.05-16.86,18-28.53,17.2-8.16-.55-15.67-5.33-20.75-11.74a41.83,41.83,0,0,1-2.69-3.92c2.52,13.68,5.41,24.27,10.49,26.53C143.82,375.14,178.87,372.09,186,359.89Z" transform="translate(-63.72 -43.57)"/><path class="cls-21" d="M144.24,204.49c7.77,2.59,14.52,8.82,16.64,16.74a66.14,66.14,0,0,1,3.23-8.2c-1.82-12.7-3.26-19.31-7.08-20.78-6.61-2.54-48.27,1-63,15.75-3.4,3.39-2.27,10.66,1.26,22.67a32.73,32.73,0,0,1,5.63-11.76,41.21,41.21,0,0,1,19.19-13.55C127.84,202.63,136.46,201.89,144.24,204.49Z" transform="translate(-63.72 -43.57)"/><path class="cls-22" d="M134.15,288.27c2.11,1.84,9.34.26,10.45-2.15s-1-30.33-3-40.53c-1.79-9.47-19.56-9.82-21.34,2a12.14,12.14,0,0,0,.3,4.76C123.66,264.59,134.15,288.27,134.15,288.27Z" transform="translate(-63.72 -43.57)"/><path class="cls-23" d="M134.15,288.27c2.11,1.84,9.34.26,10.45-2.15s-1-30.33-3-40.53c-1.79-9.47-19.56-9.82-21.34,2a12.14,12.14,0,0,0,.3,4.76C123.66,264.59,134.15,288.27,134.15,288.27Z" transform="translate(-63.72 -43.57)"/><path class="cls-7" d="M154.79,282.73a2.58,2.58,0,0,0-2.17-1.56c-3.53-.24-9.16,2.82-13.44,3.79-5,1.15-11.49-.35-13.53,2s-.32,8.28,2.2,9.7,23.77-1.42,28-5.67C157.56,289.62,155.74,284.88,154.79,282.73Z" transform="translate(-63.72 -43.57)"/><path class="cls-8" d="M129,294.87l.07-.08a.54.54,0,0,0,.15-.22.66.66,0,0,0,.06-.27.6.6,0,0,0-.06-.27.51.51,0,0,0-.15-.23l-.14-.11a.75.75,0,0,0-.36-.1l-.18,0a.61.61,0,0,0-.31.18l-.08.07a.59.59,0,0,0-.14.23.64.64,0,0,0,0,.54.68.68,0,0,0,.14.23l.15.11a.7.7,0,0,0,.35.09l.19,0a.87.87,0,0,0,.31-.18Z" transform="translate(-63.72 -43.57)"/><path class="cls-8" d="M131.13,295.29c6.94.35,13.6-1.85,20.09-4.05.85-.29.49-1.65-.37-1.36-6.37,2.17-12.9,4.35-19.72,4-.91-.05-.9,1.36,0,1.4Z" transform="translate(-63.72 -43.57)"/><path class="cls-19" d="M145.63,284.89a25.8,25.8,0,0,1,3.8-1.39c.92-.25,2.36-.76,3.2,0,.45.39,1.11-.27.66-.67-1-.91-2.47-.63-3.7-.31a25.7,25.7,0,0,0-4.43,1.59c-.55.25-.08,1.06.47.81Z" transform="translate(-63.72 -43.57)"/><path class="cls-8" d="M376,370c1.32,6.37-33.35,9.22-126.59,9.22s-127.92-2.85-126.6-9.22c-6,6.63-4.24,32.7,2,41.82s15,9.12,22.7,10.3,48.23,0,101.92,0,94.26,1.17,101.91,0,16.48-1.18,22.7-10.3S381.93,376.63,376,370Z" transform="translate(-63.72 -43.57)"/><path class="cls-17" d="M393.77,127.46c5.79,2.93,18.45,45.35,18.22,55.79l-31.55-7,.06-.15C386.91,160.47,393.43,144.09,393.77,127.46Z" transform="translate(-63.72 -43.57)"/><path class="cls-4" d="M393.3,127.3a1.25,1.25,0,0,1,.47.16c-.34,16.63-6.86,33-13.27,48.61l-.06.15-28-6.24C359.21,156.25,387.77,126.61,393.3,127.3Z" transform="translate(-63.72 -43.57)"/><path class="cls-18" d="M384.29,136.41c1.8,1.27-7.86,8.59-10.61,12.85s-5.94,7.5-7.37,7.63c-2.48.22-1.64-1.25-.61-2.42C370,149.55,382.77,135.34,384.29,136.41Z" transform="translate(-63.72 -43.57)"/><path class="cls-18" d="M386.54,134.53a1,1,0,1,0,1-1A1,1,0,0,0,386.54,134.53Z" transform="translate(-63.72 -43.57)"/><path class="cls-7" d="M338.68,152.79c3.49-5.23,19.47-4.07,22.08,0s-2.9,11.91-1.89,14.23,6,3.49,8.86,2.91,4.07-12.78,7.27-15.11,21.49,3.2,22.66,6.39-2.33,11-2.62,13.66,6.68,4.35,8.72,3.77,2-10.16,4.35-12.49,17.73.29,18.6,5.23c2.9,18-5.23,37.77-7.27,41.25a14,14,0,0,1-4.67,4.89c4.67-8.67-3.18-19.42-38.32-29.29s-48.22-3.06-47.64,3.26C326.77,184.88,335.2,158,338.68,152.79Z" transform="translate(-63.72 -43.57)"/><path class="cls-8" d="M376.45,188.23c35.14,9.87,43,20.62,38.32,29.29-2.8,1.75-6.8,2.77-12.47,1.5-47.93-10.74-71.46-20.91-73.49-27.53C328.23,185.17,341.3,178.35,376.45,188.23Z" transform="translate(-63.72 -43.57)"/><path class="cls-7" d="M416.39,167.39c-1.12-.18-2.25-.43-3.38-.53a3.75,3.75,0,0,0-2.81.92c-1.45,1.22-2,3.34-2.36,5.13a1,1,0,0,0,.65,1.15.94.94,0,0,0,1.16-.65,13.16,13.16,0,0,1,.69-2.55,4.8,4.8,0,0,1,1-1.62,1.38,1.38,0,0,1,.29-.23,3.52,3.52,0,0,1,.32-.18,2.41,2.41,0,0,1,1.1-.09c.94.1,1.88.3,2.81.46a1,1,0,0,0,1.16-.66,1,1,0,0,0-.66-1.15Z" transform="translate(-63.72 -43.57)"/><path class="cls-19" d="M417,168a12.15,12.15,0,0,0-6.13-.44,2.59,2.59,0,0,0-2,2c-.24,1-.36,2-.53,3a1,1,0,0,0,.65,1.15.94.94,0,0,0,1.15-.66c.16-.88.31-1.77.47-2.66a1.84,1.84,0,0,1,.25-.78,1.32,1.32,0,0,1,.74-.26,10.93,10.93,0,0,1,2.37,0,12.3,12.3,0,0,1,2.54.51c1.15.36,1.64-1.45.49-1.8Z" transform="translate(-63.72 -43.57)"/><path class="cls-19" d="M408.69,177a.94.94,0,0,0,0-1.87.94.94,0,0,0,0,1.87Z" transform="translate(-63.72 -43.57)"/><path class="cls-19" d="M390,158.44a40.06,40.06,0,0,0-10.68-2.84c-1.65-.13-3,.14-3.89,1.62a12.83,12.83,0,0,0-1.75,4.83c-.19,1.18,1.62,1.69,1.81.5a11.74,11.74,0,0,1,1.38-4.08c.31-.56.6-1,1.28-1a10.12,10.12,0,0,1,2.33.16,44.25,44.25,0,0,1,9,2.65c1.13.42,1.62-1.39.5-1.81Z" transform="translate(-63.72 -43.57)"/><path class="cls-19" d="M374,165.66a.94.94,0,0,0,0-1.87.94.94,0,0,0,0,1.87Z" transform="translate(-63.72 -43.57)"/><path class="cls-19" d="M352.62,151.2c-3.24.29-6.63-.62-9.74.67a9.06,9.06,0,0,0-5.12,6,.94.94,0,0,0,1.81.5,7.06,7.06,0,0,1,4.46-4.94c2.76-.88,5.76-.1,8.59-.36,1.19-.11,1.2-2,0-1.87Z" transform="translate(-63.72 -43.57)"/><path class="cls-19" d="M337.3,160.52l-.12.12a.7.7,0,0,0-.19.3.8.8,0,0,0-.09.36.81.81,0,0,0,.09.37.7.7,0,0,0,.19.3l.19.14a.85.85,0,0,0,.47.13l.25,0a1,1,0,0,0,.41-.24l.13-.12a.77.77,0,0,0,.19-.31.85.85,0,0,0,0-.72.67.67,0,0,0-.19-.3l-.19-.15a1,1,0,0,0-.48-.12l-.25,0a.91.91,0,0,0-.41.24Z" transform="translate(-63.72 -43.57)"/><path class="cls-20" d="M404.68,208c8,8-9.14,37.59-23.88,100.58C375.21,336,373.18,367,364,371.07s-44.2,1-51.31-11.18,9.65-71.12,16.25-109.22,6.1-55.88,12.71-58.42S390,193.26,404.68,208Z" transform="translate(-63.72 -43.57)"/><path class="cls-21" d="M312.73,359.89c-3.26-5.59-1.5-21,2-39.76,1.47,8,3.68,15.89,7.83,22.87,6,10.05,16.87,18,28.53,17.2,8.17-.55,15.67-5.33,20.75-11.74a41.83,41.83,0,0,0,2.69-3.92c-2.52,13.68-5.41,24.27-10.49,26.53C354.89,375.14,319.84,372.09,312.73,359.89Z" transform="translate(-63.72 -43.57)"/><path class="cls-21" d="M354.47,204.49c-7.77,2.59-14.52,8.82-16.63,16.74a67.8,67.8,0,0,0-3.24-8.2c1.82-12.7,3.26-19.31,7.09-20.78,6.6-2.54,48.26,1,63,15.75,3.4,3.39,2.27,10.66-1.26,22.67a32.73,32.73,0,0,0-5.63-11.76,41.17,41.17,0,0,0-19.19-13.55C370.87,202.63,362.25,201.89,354.47,204.49Z" transform="translate(-63.72 -43.57)"/><path class="cls-22" d="M364.57,288.27c-2.12,1.84-9.35.26-10.46-2.15s1-30.33,3-40.53c1.79-9.47,19.56-9.82,21.34,2a12,12,0,0,1-.3,4.76C375.05,264.59,364.57,288.27,364.57,288.27Z" transform="translate(-63.72 -43.57)"/><path class="cls-23" d="M364.57,288.27c-2.12,1.84-9.35.26-10.46-2.15s1-30.33,3-40.53c1.79-9.47,19.56-9.82,21.34,2a12,12,0,0,1-.3,4.76C375.05,264.59,364.57,288.27,364.57,288.27Z" transform="translate(-63.72 -43.57)"/><path class="cls-7" d="M343.92,282.73a2.58,2.58,0,0,1,2.17-1.56c3.53-.24,9.16,2.82,13.44,3.79,5,1.15,11.49-.35,13.54,2s.31,8.28-2.21,9.7-23.77-1.42-28-5.67C341.15,289.62,343,284.88,343.92,282.73Z" transform="translate(-63.72 -43.57)"/><path class="cls-8" d="M370.74,293.87l-.07-.07a.57.57,0,0,0-.23-.15.64.64,0,0,0-.54,0,.57.57,0,0,0-.23.15l-.11.14a.74.74,0,0,0-.09.36l0,.18a.61.61,0,0,0,.18.31l.07.08a.68.68,0,0,0,.23.14.64.64,0,0,0,.54,0,.68.68,0,0,0,.23-.14l.11-.15a.7.7,0,0,0,.09-.35l0-.19a.75.75,0,0,0-.18-.31Z" transform="translate(-63.72 -43.57)"/><path class="cls-8" d="M367.58,293.89c-6.82.34-13.34-1.84-19.71-4-.86-.29-1.23,1.07-.38,1.36,6.49,2.2,13.15,4.4,20.09,4.05.9,0,.91-1.45,0-1.4Z" transform="translate(-63.72 -43.57)"/><path class="cls-19" d="M353.56,284.08a25.81,25.81,0,0,0-4.44-1.59c-1.23-.32-2.65-.6-3.7.31-.45.4.21,1.06.67.67.83-.73,2.27-.22,3.19,0a25,25,0,0,1,3.8,1.39c.55.25,1-.56.48-.81Z" transform="translate(-63.72 -43.57)"/><path class="cls-12" d="M209.54,258c-2.93,3.12,4.46,70.25,7.58,74.2s59,2.88,64.47,0c3.43-1.4,10.56-69.43,7-74.2S214,253.28,209.54,258Z" transform="translate(-63.72 -43.57)"/><circle class="cls-17" cx="249.21" cy="290.56" r="23.76" transform="translate(-154.14 423.59) rotate(-76.85)"/><circle class="cls-24" cx="185.63" cy="246.99" r="11.9"/><path class="cls-25" d="M251.35,298.72a11.9,11.9,0,0,1-11.9-11.9,12,12,0,0,1,.56-3.62,11.9,11.9,0,1,0,20.68,11A11.88,11.88,0,0,1,251.35,298.72Z" transform="translate(-63.72 -43.57)"/><path class="cls-25" d="M261.28,290.56a12.63,12.63,0,0,1-.87,4.58,12.13,12.13,0,0,1-2.53,3.95,11.66,11.66,0,0,1-8.52,3.58,12.08,12.08,0,0,1-6.67-2.13,11.81,11.81,0,0,1-1.8-1.51,12.17,12.17,0,0,1-2.61-3.88c-.07-.18-.15-.36-.21-.55s-.13-.37-.19-.56-.12-.37-.16-.56-.1-.38-.14-.58a12.15,12.15,0,0,1-.26-2.34A12,12,0,0,1,254,279.35a11.63,11.63,0,0,1,3.89,2.68,12.1,12.1,0,0,1,2.52,4A12.42,12.42,0,0,1,261.28,290.56Zm0,0a11.91,11.91,0,0,0-.24-2.31,10.55,10.55,0,0,0-.71-2.21,11.7,11.7,0,0,0-2.63-3.77,12,12,0,0,0-3.83-2.48,11.8,11.8,0,0,0-4.46-.86,12.22,12.22,0,0,0-2.27.23,11.24,11.24,0,0,0-2.19.65,11.72,11.72,0,0,0-3.79,2.51,11.81,11.81,0,0,0-3.51,8.24,11.48,11.48,0,0,0,.84,4.52,12.2,12.2,0,0,0,1.09,2.05,11.38,11.38,0,0,0,1.47,1.79,11.91,11.91,0,0,0,1.8,1.45,12.15,12.15,0,0,0,2.06,1.06,12.1,12.1,0,0,0,9-.08l.53-.23.51-.25.51-.28.48-.3a11.86,11.86,0,0,0,1.81-1.43,11.7,11.7,0,0,0,2.63-3.77,11.36,11.36,0,0,0,.7-2.21A12,12,0,0,0,261.23,290.56Z" transform="translate(-63.72 -43.57)"/><path class="cls-24" d="M248.42,272l-1.72,3a1.07,1.07,0,0,0,.93,1.61h3.45A1.07,1.07,0,0,0,252,275l-1.72-3A1.08,1.08,0,0,0,248.42,272Z" transform="translate(-63.72 -43.57)"/><path class="cls-25" d="M248.6,271.75c-.37.64-.69,1.32-1,2-.16.33-.33.67-.51,1-.09.16-.18.33-.28.49a1.14,1.14,0,0,0-.19.43.78.78,0,0,0,.07.45.7.7,0,0,0,.33.33,1.09,1.09,0,0,0,.5.1l.56,0c.74,0,1.48,0,2.23-.05l1.11-.05a.77.77,0,0,0,.42-.16.76.76,0,0,0,.24-.35.7.7,0,0,0,0-.43,3.58,3.58,0,0,0-.25-.44c-.2-.32-.38-.65-.57-1-.36-.65-.72-1.3-1-2a2.7,2.7,0,0,0-.25-.48.74.74,0,0,0-.41-.28.77.77,0,0,0-.52,0A.87.87,0,0,0,248.6,271.75Zm0,0a1,1,0,0,1,1-.47.89.89,0,0,1,.53.26l.06.06.05.06.08.12.16.23c.42.61.81,1.25,1.19,1.89.19.32.37.64.55,1l.14.24a1.32,1.32,0,0,1,.13.29,1.06,1.06,0,0,1,0,.68,1.09,1.09,0,0,1-.39.53,1,1,0,0,1-.63.19l-1.12,0c-.75,0-1.49-.06-2.23-.05l-.56,0h-.29l-.16,0-.15-.05a1,1,0,0,1-.49-.39,1.16,1.16,0,0,1-.16-.63l0-.17c0-.05,0-.11.05-.16a2,2,0,0,1,.14-.26c.09-.16.18-.32.28-.48.19-.32.4-.63.6-.94C247.77,273,248.2,272.38,248.57,271.73Z" transform="translate(-63.72 -43.57)"/><path class="cls-24" d="M248.42,309.11l-1.72-3a1.07,1.07,0,0,1,.93-1.61h3.45a1.07,1.07,0,0,1,.93,1.61l-1.72,3A1.09,1.09,0,0,1,248.42,309.11Z" transform="translate(-63.72 -43.57)"/><path class="cls-25" d="M248.57,309.4c-.37-.65-.8-1.27-1.22-1.88-.2-.31-.41-.62-.6-.94-.1-.16-.19-.32-.28-.48s-.09-.16-.14-.27,0-.11-.05-.16l0-.16a1,1,0,0,1,.65-1l.15,0a.47.47,0,0,1,.16,0h.29l.56,0c.74,0,1.48,0,2.23-.05l1.12-.05a1,1,0,0,1,.63.19,1.07,1.07,0,0,1,.39.54,1,1,0,0,1,0,.67,1.32,1.32,0,0,1-.13.29l-.14.25c-.18.32-.36.64-.55,1-.38.65-.77,1.28-1.19,1.9l-.16.23-.08.12-.05.06-.06.05a.9.9,0,0,1-.53.27A1,1,0,0,1,248.57,309.4Zm0,0a.82.82,0,0,0,.41.35.77.77,0,0,0,.52,0,.7.7,0,0,0,.41-.28,2.6,2.6,0,0,0,.25-.47c.32-.68.68-1.33,1-2,.19-.32.37-.64.57-1a3.62,3.62,0,0,0,.25-.45.67.67,0,0,0,0-.42.74.74,0,0,0-.24-.36.76.76,0,0,0-.42-.15l-1.11-.06c-.75,0-1.49-.06-2.23,0h-.56a1.09,1.09,0,0,0-.5.1.77.77,0,0,0-.33.34.75.75,0,0,0-.07.44,1.11,1.11,0,0,0,.19.44c.1.16.19.32.28.48.18.33.35.66.51,1C247.91,308.06,248.23,308.73,248.6,309.37Z" transform="translate(-63.72 -43.57)"/><path class="cls-24" d="M230.81,291.49l3,1.73a1.08,1.08,0,0,0,1.62-.94v-3.44a1.08,1.08,0,0,0-1.62-.93l-3,1.72A1.07,1.07,0,0,0,230.81,291.49Z" transform="translate(-63.72 -43.57)"/><path class="cls-25" d="M230.54,291.31c.64.38,1.32.7,2,1l1,.52.48.27a1,1,0,0,0,.44.2.76.76,0,0,0,.44-.07.83.83,0,0,0,.34-.33,1,1,0,0,0,.09-.5l0-.56c0-.74,0-1.49-.05-2.23,0-.37,0-.75,0-1.12a.76.76,0,0,0-.15-.41.68.68,0,0,0-.36-.24.61.61,0,0,0-.42,0,3.62,3.62,0,0,0-.45.25l-1,.56c-.65.37-1.31.73-2,1.05a4.29,4.29,0,0,0-.48.24.83.83,0,0,0-.28.42.92.92,0,0,0,0,.52A.86.86,0,0,0,230.54,291.31Zm0,0a1,1,0,0,1-.47-1,1,1,0,0,1,.27-.54l.05-.05.06,0,.12-.08.23-.16c.62-.43,1.25-.81,1.89-1.19l1-.56.25-.13a1.31,1.31,0,0,1,.29-.14,1.09,1.09,0,0,1,.67,0,1.15,1.15,0,0,1,.54.4,1.19,1.19,0,0,1,.19.63l-.06,1.12c0,.74-.06,1.49,0,2.23v.56a1.36,1.36,0,0,1,0,.29.77.77,0,0,1,0,.15c0,.05,0,.1,0,.15a1,1,0,0,1-1,.66l-.16,0-.16-.05-.27-.14-.48-.28c-.32-.19-.63-.4-.94-.61C231.78,292.14,231.17,291.72,230.52,291.35Z" transform="translate(-63.72 -43.57)"/><path class="cls-24" d="M267.9,291.49l-3,1.73a1.08,1.08,0,0,1-1.62-.94v-3.44a1.08,1.08,0,0,1,1.62-.93l3,1.72A1.07,1.07,0,0,1,267.9,291.49Z" transform="translate(-63.72 -43.57)"/><path class="cls-25" d="M268.19,291.35c-.65.37-1.26.79-1.88,1.21-.31.21-.62.42-.94.61l-.48.28-.27.14-.15.05-.17,0a1,1,0,0,1-1-.66c0-.05,0-.1,0-.15a.77.77,0,0,1,0-.15,2.62,2.62,0,0,1,0-.29l0-.56c0-.74,0-1.49-.05-2.23,0-.37,0-.74-.05-1.12a1,1,0,0,1,.19-.63,1.12,1.12,0,0,1,.53-.4,1.1,1.1,0,0,1,.67,0,1.68,1.68,0,0,1,.3.14l.24.13c.33.18.65.37,1,.56.64.38,1.28.76,1.89,1.19l.23.16.12.08.06,0,.06.05a1,1,0,0,1,.26.54A1,1,0,0,1,268.19,291.35Zm0,0a.8.8,0,0,0,.35-.4.81.81,0,0,0-.25-.94,3.58,3.58,0,0,0-.48-.24c-.67-.32-1.33-.68-2-1.05-.33-.18-.65-.37-1-.56a3,3,0,0,0-.45-.25.61.61,0,0,0-.42,0,.68.68,0,0,0-.36.24.76.76,0,0,0-.15.41c0,.37,0,.75-.05,1.12,0,.74-.06,1.49-.05,2.23l0,.56a1.12,1.12,0,0,0,.09.5.83.83,0,0,0,.34.33.78.78,0,0,0,.45.07,1,1,0,0,0,.43-.2l.49-.27c.32-.18.65-.35,1-.52C266.85,292,267.53,291.69,268.17,291.31Z" transform="translate(-63.72 -43.57)"/><path class="cls-24" d="M235.58,278.11l.9,3.33a1.08,1.08,0,0,0,1.8.48l2.43-2.44a1.07,1.07,0,0,0-.48-1.8l-3.33-.89A1.08,1.08,0,0,0,235.58,278.11Z" transform="translate(-63.72 -43.57)"/><path class="cls-25" d="M235.52,277.79c.19.72.44,1.42.69,2.13.12.35.23.71.34,1.06,0,.18.1.36.14.54a1.18,1.18,0,0,0,.17.45.79.79,0,0,0,.84.27,1.14,1.14,0,0,0,.42-.29l.41-.38c.53-.52,1-1.06,1.54-1.61l.75-.83a.75.75,0,0,0,.19-.4.77.77,0,0,0-.08-.42.67.67,0,0,0-.31-.29,3.13,3.13,0,0,0-.5-.14l-1.08-.29c-.71-.19-1.43-.4-2.13-.65a5.07,5.07,0,0,0-.51-.17.77.77,0,0,0-.49.1.83.83,0,0,0-.35.39A.88.88,0,0,0,235.52,277.79Zm0,0a1,1,0,0,1,.36-1,1,1,0,0,1,.57-.19h.15l.15,0,.27.05c.74.13,1.46.31,2.18.49l1.08.3.27.07a1.7,1.7,0,0,1,.3.12,1,1,0,0,1,.47.48,1.15,1.15,0,0,1,.09.66,1.06,1.06,0,0,1-.31.58l-.83.75c-.55.5-1.09,1-1.61,1.55l-.38.4a1.94,1.94,0,0,1-.2.21.58.58,0,0,1-.12.1l-.14.07a1,1,0,0,1-.63.07,1.08,1.08,0,0,1-.56-.33l-.09-.14a.71.71,0,0,1-.08-.15c0-.11-.06-.19-.09-.28s-.1-.36-.14-.54c-.09-.36-.17-.73-.24-1.09C235.81,279.25,235.68,278.52,235.48,277.8Z" transform="translate(-63.72 -43.57)"/><path class="cls-24" d="M261.81,304.33l-3.33-.89a1.07,1.07,0,0,1-.48-1.8l2.44-2.43a1.07,1.07,0,0,1,1.8.48l.89,3.33A1.07,1.07,0,0,1,261.81,304.33Z" transform="translate(-63.72 -43.57)"/><path class="cls-25" d="M262.12,304.44c-.72-.2-1.46-.33-2.19-.47-.37-.07-.73-.15-1.09-.24l-.54-.14-.29-.09-.15-.08-.13-.1a1,1,0,0,1-.33-.56,1.09,1.09,0,0,1,.06-.62c0-.05.05-.1.08-.14l.09-.12.21-.2.41-.38c.54-.52,1.05-1.06,1.55-1.62.25-.27.49-.55.75-.82a1.06,1.06,0,0,1,.58-.31,1,1,0,0,1,.66.09,1.09,1.09,0,0,1,.48.47,1.11,1.11,0,0,1,.11.3l.08.27c.1.36.2.72.29,1.08.19.72.36,1.44.5,2.18l.05.27a.68.68,0,0,1,0,.15v.07a.22.22,0,0,1,0,.08.9.9,0,0,1-.19.56A1,1,0,0,1,262.12,304.44Zm0,0a.82.82,0,0,0,.92-.39.71.71,0,0,0,.09-.49A2.71,2.71,0,0,0,263,303c-.25-.71-.46-1.42-.66-2.14-.09-.36-.19-.72-.28-1.08-.05-.17-.09-.38-.14-.49a.67.67,0,0,0-.29-.31.71.71,0,0,0-.43-.08.8.8,0,0,0-.4.18l-.82.76c-.56.49-1.1,1-1.61,1.54l-.39.41a1,1,0,0,0-.28.42.83.83,0,0,0,0,.47.82.82,0,0,0,.27.36,1,1,0,0,0,.45.18l.53.14c.36.1.72.22,1.07.34C260.7,304,261.41,304.21,262.13,304.4Z" transform="translate(-63.72 -43.57)"/><path class="cls-24" d="M236.9,304.33l3.33-.89a1.07,1.07,0,0,0,.48-1.8l-2.43-2.43a1.07,1.07,0,0,0-1.8.48l-.9,3.33A1.07,1.07,0,0,0,236.9,304.33Z" transform="translate(-63.72 -43.57)"/><path class="cls-25" d="M236.59,304.4c.72-.19,1.42-.44,2.12-.69.36-.12.71-.24,1.07-.34l.54-.14a1,1,0,0,0,.44-.18.73.73,0,0,0,.27-.83,1,1,0,0,0-.28-.42l-.38-.41c-.52-.53-1.06-1.05-1.62-1.54l-.82-.76a.8.8,0,0,0-.4-.18.71.71,0,0,0-.43.08.67.67,0,0,0-.29.31c-.05.11-.09.32-.14.49-.09.36-.19.72-.28,1.08-.2.72-.41,1.43-.66,2.14a2.71,2.71,0,0,0-.16.51.71.71,0,0,0,.09.49.88.88,0,0,0,.39.35A.91.91,0,0,0,236.59,304.4Zm0,0a1,1,0,0,1-1-.37.9.9,0,0,1-.19-.56v-.15a.68.68,0,0,1,0-.15l.05-.27c.14-.74.31-1.46.5-2.18.1-.36.19-.72.29-1.08l.08-.27a1.11,1.11,0,0,1,.11-.3,1.14,1.14,0,0,1,.48-.47,1,1,0,0,1,.66-.09,1.06,1.06,0,0,1,.58.31c.26.27.5.55.76.82.49.56,1,1.1,1.54,1.62l.41.38a1.94,1.94,0,0,1,.21.2.54.54,0,0,1,.09.12.64.64,0,0,1,.08.14,1,1,0,0,1,.06.62,1,1,0,0,1-.33.56l-.13.1-.15.08-.29.09-.54.14c-.36.09-.72.17-1.09.24C238.05,304.11,237.31,304.24,236.6,304.44Z" transform="translate(-63.72 -43.57)"/><path class="cls-24" d="M263.13,278.11l-.89,3.33a1.08,1.08,0,0,1-1.8.48L258,279.48a1.07,1.07,0,0,1,.48-1.8l3.33-.89A1.08,1.08,0,0,1,263.13,278.11Z" transform="translate(-63.72 -43.57)"/><path class="cls-25" d="M263.23,277.8c-.2.72-.33,1.45-.47,2.19-.07.36-.15.73-.24,1.09,0,.18-.09.36-.14.54a2.22,2.22,0,0,1-.09.28c0,.06-.05.1-.07.15l-.1.14a1.08,1.08,0,0,1-.56.33,1,1,0,0,1-.63-.07l-.14-.07-.12-.1c-.08-.07-.13-.14-.2-.21l-.38-.4c-.52-.54-1.06-1.05-1.61-1.55l-.83-.75a1.06,1.06,0,0,1-.31-.58,1.08,1.08,0,0,1,.1-.66,1,1,0,0,1,.47-.48,1.44,1.44,0,0,1,.3-.12l.26-.07,1.08-.3c.72-.18,1.45-.36,2.18-.49l.28-.05.14,0h.15a1,1,0,0,1,.57.19A1,1,0,0,1,263.23,277.8Zm0,0a.81.81,0,0,0,0-.53.86.86,0,0,0-.34-.39.8.8,0,0,0-.5-.1,5.07,5.07,0,0,0-.51.17c-.7.25-1.42.46-2.13.65l-1.08.29a3.13,3.13,0,0,0-.5.14.6.6,0,0,0-.3.29.69.69,0,0,0-.08.42.67.67,0,0,0,.18.4l.75.83c.5.55,1,1.09,1.54,1.61l.41.38a1.14,1.14,0,0,0,.42.29.75.75,0,0,0,.47,0,.76.76,0,0,0,.37-.26,1.18,1.18,0,0,0,.17-.45c.05-.18.09-.36.15-.54.1-.35.21-.71.34-1.06C262.75,279.21,263,278.51,263.19,277.79Z" transform="translate(-63.72 -43.57)"/><path class="cls-26" d="M249.08,280.19a10.73,10.73,0,0,1,7.83,3.39" transform="translate(-63.72 -43.57)"/><path class="cls-27" d="M258,285.24a.5.5,0,0,0,0-1,.5.5,0,0,0,0,1Z" transform="translate(-63.72 -43.57)"/><path class="cls-28" d="M345.15,202c-3.08-7.68-22.69-11.54-39-25.8s-27.34-25.17-27.9-26.93,8.31-12.84,5.91-16.35-13.29-7.61-14.95-5.65-4.44,13.77-5.54,13.77-3.51.37-3.7-1.29,2.4-12.37,1.11-14.21S251.12,123,249.36,123s-10.43.74-11.72,2.59,1.29,12.55,1.11,14.21-2.59,1.29-3.7,1.29-3.87-11.81-5.53-13.77-12.56,2.14-15,5.65,6.46,14.58,5.91,16.35-11.59,12.66-27.9,26.93-35.93,18.12-39,25.8c-.82,2-1.58,20.27,11.9,20.7s63.5-37.9,71.81-45.1,12.09-7,12.09-7,3.77-.18,12.08,7,58.34,45.53,71.82,45.1S346,204.06,345.15,202Z" transform="translate(-63.72 -43.57)"/><path class="cls-29" d="M225.67,128.38a27.74,27.74,0,0,0-6.32,2.56,7.81,7.81,0,0,0-2.55,2,3.16,3.16,0,0,0-.4,3.2.94.94,0,0,0,1.62-1c-.25-.59.34-1.28.74-1.62a11.45,11.45,0,0,1,2.22-1.35,25.32,25.32,0,0,1,5.19-2,.94.94,0,0,0-.5-1.81Z" transform="translate(-63.72 -43.57)"/><path class="cls-29" d="M218.5,139.64a.94.94,0,0,0,0-1.88.94.94,0,0,0,0,1.88Z" transform="translate(-63.72 -43.57)"/><path class="cls-29" d="M221.53,151.68a197.79,197.79,0,0,1-17.62,17.84c-.91.81.42,2.13,1.32,1.33A196.59,196.59,0,0,0,222.85,153c.79-.91-.53-2.24-1.32-1.32Z" transform="translate(-63.72 -43.57)"/><path class="cls-29" d="M200.83,174a.94.94,0,0,0,0-1.87.94.94,0,0,0,0,1.87Z" transform="translate(-63.72 -43.57)"/><path class="cls-29" d="M272.54,130.19a25.32,25.32,0,0,1,5.19,2,12.14,12.14,0,0,1,2.16,1.3c.43.35,1.06,1.06.8,1.67a.94.94,0,0,0,1.62,1A3.14,3.14,0,0,0,282,133a7.73,7.73,0,0,0-2.58-2,27.82,27.82,0,0,0-6.33-2.56.94.94,0,0,0-.5,1.81Z" transform="translate(-63.72 -43.57)"/><path class="cls-29" d="M280.22,139.64a.94.94,0,0,0,0-1.88.94.94,0,0,0,0,1.88Z" transform="translate(-63.72 -43.57)"/><path class="cls-29" d="M275.86,153a196.59,196.59,0,0,0,17.62,17.85c.9.8,2.23-.52,1.32-1.33a196.37,196.37,0,0,1-17.61-17.84c-.8-.92-2.12.41-1.33,1.32Z" transform="translate(-63.72 -43.57)"/><path class="cls-29" d="M297.88,174a.94.94,0,0,0,0-1.87.94.94,0,0,0,0,1.87Z" transform="translate(-63.72 -43.57)"/><path class="cls-30" d="M331.93,215.91c-7.42-.64-14.29-4.14-20.6-8.1-14.38-9-26.92-20.61-39.56-31.93-6.77-6.06-14.17-12.28-22.41-15.66-8.25,3.38-15.65,9.6-22.41,15.66-12.65,11.32-25.19,22.91-39.56,31.93-6.32,4-13.18,7.46-20.61,8.1a23.87,23.87,0,0,1-12.42-2.25c1.49,4.61,4.67,8.86,11.1,9.06,13.47.43,63.5-37.9,71.81-45.1s12.09-7,12.09-7,3.77-.18,12.08,7,58.34,45.53,71.82,45.1c6.42-.2,9.6-4.45,11.09-9.06A23.87,23.87,0,0,1,331.93,215.91Z" transform="translate(-63.72 -43.57)"/><path class="cls-4" d="M319.1,222.73c-17-28.72-53-36.12-69.74-36.12s-52.79,7.4-69.75,36.12S157.49,286.89,186,363.84c2.42,6.06,19.09,3.63,19.69-3.33s-27.93-94.86-4.39-127.85c9-13.07,21.5-23.63,48.09-23.63s39.08,10.56,48.09,23.63c23.53,33-5,120.88-4.4,127.85s17.27,9.39,19.69,3.33C341.22,286.89,336.07,251.45,319.1,222.73Z" transform="translate(-63.72 -43.57)"/><path class="cls-18" d="M328.16,257c-.82-4.14-2-8.21-3.21-12.25q-2.29-7.62-4.76-15.17c-.24-.73-.94-1.63-1.56-1.18a1.09,1.09,0,0,0-.36.65.13.13,0,0,0,0,.06,3.66,3.66,0,0,0-.31,2.76,48.23,48.23,0,0,0,2.32,6.56,112,112,0,0,1,7,53.77c-.26,2.15-.54,4.47.5,6.37a3.26,3.26,0,0,0,.81-2.29C329.65,283.15,330.69,269.85,328.16,257Z" transform="translate(-63.72 -43.57)"/><path class="cls-18" d="M327.77,301.58a1.11,1.11,0,1,1-1.11-1.11A1.11,1.11,0,0,1,327.77,301.58Z" transform="translate(-63.72 -43.57)"/><circle class="cls-18" cx="253.06" cy="181.71" r="1.98"/><path class="cls-15" d="M89.73,248.92A164.33,164.33,0,0,0,105.05,292c.28.54,1.09.07.81-.47a163.45,163.45,0,0,1-15.22-42.89c-.12-.59-1-.34-.91.25Z" transform="translate(-63.72 -43.57)"/><path class="cls-15" d="M85.59,258.28a134.43,134.43,0,0,0,6.9,20.61c.23.56,1,.08.81-.47A131.84,131.84,0,0,1,86.5,258a.47.47,0,0,0-.91.25Z" transform="translate(-63.72 -43.57)"/><path class="cls-15" d="M386.94,334.88q-1.71,9-3.43,17.94a25.75,25.75,0,0,0-.66,4,7.44,7.44,0,0,0,.85,3.36c1.28,2.71,2.64,5.38,4,8.07.27.54,1.08.06.81-.48-1.18-2.41-2.36-4.81-3.55-7.22a7.53,7.53,0,0,1-1-4.63c.21-1.44.53-2.87.8-4.3q1.57-8.24,3.16-16.48c.11-.59-.79-.84-.91-.25Z" transform="translate(-63.72 -43.57)"/><path class="cls-15" d="M386.77,356.7a43.87,43.87,0,0,1,4.8,9.15c.22.56,1.12.32.91-.25a44,44,0,0,0-4.91-9.37c-.34-.5-1.15,0-.8.47Z" transform="translate(-63.72 -43.57)"/><path class="cls-15" d="M111,372.79a26.83,26.83,0,0,0-1,20.07c.2.57,1.1.32.9-.25a25.93,25.93,0,0,1,.91-19.35c.26-.54-.55-1-.81-.47Z" transform="translate(-63.72 -43.57)"/><path class="cls-15" d="M103.73,377.41a58.74,58.74,0,0,0,.49,13c.09.6,1,.34.9-.25a58.32,58.32,0,0,1-.46-12.8c0-.61-.89-.6-.93,0Z" transform="translate(-63.72 -43.57)"/><path class="cls-12" d="M135.16,100.82a11.6,11.6,0,0,0-3.66,11.54.47.47,0,0,0,.9-.25,10.68,10.68,0,0,1,3.43-10.63c.46-.39-.21-1-.67-.66Z" transform="translate(-63.72 -43.57)"/><path class="cls-12" d="M211.33,99.48,214,106.8c.2.56,1.11.32.91-.25l-2.63-7.32c-.2-.57-1.1-.32-.9.25Z" transform="translate(-63.72 -43.57)"/><path class="cls-12" d="M214,98.43a25.49,25.49,0,0,1,3.54,6,.47.47,0,1,0,.9-.25,26.52,26.52,0,0,0-3.78-6.38.47.47,0,1,0-.66.66Z" transform="translate(-63.72 -43.57)"/><path class="cls-12" d="M369.44,117.8v12.92a.47.47,0,0,0,.94,0V117.8a.47.47,0,0,0-.94,0Z" transform="translate(-63.72 -43.57)"/><path class="cls-12" d="M373.13,120.87v8.62a.47.47,0,0,0,.94,0v-8.62a.47.47,0,0,0-.94,0Z" transform="translate(-63.72 -43.57)"/><path class="cls-12" d="M280.76,104.12c-.41,2.67-.83,5.33-1.25,8-.09.59.81.84.9.24l1.26-8c.09-.59-.81-.84-.91-.25Z" transform="translate(-63.72 -43.57)"/><path class="cls-7" d="M432.86,199.62a25.4,25.4,0,0,1-5,13.24c-.36.48.46.95.81.47a26.15,26.15,0,0,0,5.11-13.71c0-.6-.89-.6-.93,0Z" transform="translate(-63.72 -43.57)"/><path class="cls-7" d="M435.35,206.28l-2.61,8.57c-.17.58.73.82.91.25l2.61-8.57a.47.47,0,0,0-.91-.25Z" transform="translate(-63.72 -43.57)"/><path class="cls-7" d="M63.73,192.23a32.51,32.51,0,0,0,4.94,15c.32.51,1.13,0,.81-.47a31.54,31.54,0,0,1-4.82-14.54c0-.6-1-.6-.93,0Z" transform="translate(-63.72 -43.57)"/><path class="cls-17" d="M241.39,206c-26.59,0-39.09,10.55-48.09,23.63-23.54,33,5,120.87,4.4,127.84-.36,4.08-6.23,6.6-11.52,6.77,3,5.5,18.89,3,19.48-3.76.61-7-27.93-94.86-4.39-127.85,9-13.07,21.5-23.63,48.09-23.63a72.63,72.63,0,0,1,20,2.53C262.21,208.11,253.19,206,241.39,206Z" transform="translate(-63.72 -43.57)"/><g class="cls-31"><path class="cls-12" d="M209.54,258c-2.7,2.89,3.39,60.33,6.79,72.23,5.35-14,14-26.63,26.09-35.23,13.2-9.37,30.85-13,46.19-8.65,1.11-14.08,1.42-26.42,0-28.35C285,253.27,214,253.28,209.54,258Z" transform="translate(-63.72 -43.57)"/></g><path class="cls-4" d="M226.67,378.16a5.75,5.75,0,0,0-4.41-6.28c-3.63-.62-7.14,2-9,5.2s-2.43,6.91-3.48,10.43c-3.93,13.21-14,23.52-23.23,33.73-1.77,2-3.57,4-4.38,6.53-1.33,4.17.56,8.75,3.46,12,12.26,13.84,24.46-4.62,26.76-9.71a211.12,211.12,0,0,0,13.95-42.34A22.39,22.39,0,0,0,226.67,378.16Z" transform="translate(-63.72 -43.57)"/><path class="cls-4" d="M272.05,378.16a5.74,5.74,0,0,1,4.41-6.28c3.62-.62,7.13,2,9,5.2s2.44,6.91,3.48,10.43c3.93,13.21,14,23.52,23.23,33.73,1.77,2,3.58,4,4.38,6.53,1.33,4.17-.55,8.75-3.46,12-12.26,13.84-24.46-4.62-26.76-9.71a211.75,211.75,0,0,1-13.95-42.34A22.23,22.23,0,0,1,272.05,378.16Z" transform="translate(-63.72 -43.57)"/><g class="cls-32"><path class="cls-20" d="M222.45,379.75c2.42-3.35,20.2-2.07,26.18-.57s23.91-2.67,26.74-1.38,13.42,45.42,24.36,55.26c2.93,7.21,1.56,6.22-1.66,8.47s-97,1.69-99.73,1-3.11-2-3-6.4,15.23-21.28,19.27-32.53S220.66,382.24,222.45,379.75Z" transform="translate(-63.72 -43.57)"/><path class="cls-21" d="M219.52,389.5c8.64-2.87,17.73-.28,26.52.3a48.44,48.44,0,0,0,13.37-1.13,93.9,93.9,0,0,1,14.33-2.16,69.51,69.51,0,0,1,16.54,1.16c1.18.23,1.68-1.58.5-1.81a73,73,0,0,0-28.89.37c-4.76,1-9.4,2-14.29,1.78-4.56-.18-9.06-.95-13.6-1.4-5-.49-10.14-.52-15,1.09-1.14.38-.65,2.19.5,1.8Z" transform="translate(-63.72 -43.57)"/><path class="cls-21" d="M207,406.76c11.26-3.19,22.82-4.8,34.37-2.14a40.92,40.92,0,0,0,8.37,1.34,44.4,44.4,0,0,0,8.36-.92,151.78,151.78,0,0,1,17.77-2.18,143.45,143.45,0,0,1,20.1.22c1.2.09,1.2-1.78,0-1.88a145.61,145.61,0,0,0-35.51,1.53,74.59,74.59,0,0,1-9.28,1.33,31.75,31.75,0,0,1-8.62-1.09,58.45,58.45,0,0,0-16.93-1.54A90.19,90.19,0,0,0,206.5,405a.94.94,0,0,0,.5,1.81Z" transform="translate(-63.72 -43.57)"/><path class="cls-21" d="M196.94,425.06a73.23,73.23,0,0,1,32-3.18c3.65.46,7.2,1.35,10.81,2.06a31.29,31.29,0,0,0,10.44.42c3.63-.5,7.16-1.51,10.74-2.24A106.64,106.64,0,0,1,283.27,420a108.33,108.33,0,0,1,24.58,3.06c1.17.28,1.67-1.52.5-1.81a110.54,110.54,0,0,0-44.18-1.62c-7.5,1.26-14.82,4.06-22.5,2.77-3.57-.6-7.07-1.56-10.65-2.1a76.44,76.44,0,0,0-10.8-.84,74.82,74.82,0,0,0-23.78,3.81c-1.14.37-.65,2.18.5,1.8Z" transform="translate(-63.72 -43.57)"/><path class="cls-21" d="M190.31,435c41.09,2.75,82.77,3.82,123.05-4.75.84,3.3-.48,6.84-2.6,9.52-4.44,5.62-11.8,7.94-18.78,9.54-31.29,7.17-63.92,5.82-95.81,2.14-5.92-.68-12-1.49-17.22-4.34" transform="translate(-63.72 -43.57)"/></g><path class="cls-18" d="M220.51,373.64c-6.46,1.94-7.63,9.79-9.77,15.21a91.59,91.59,0,0,1-10,18.56c-.69,1,.93,1.93,1.61.95a93.89,93.89,0,0,0,9.35-17c1.24-3,2.2-6,3.32-9s2.78-5.93,5.95-6.89a.93.93,0,0,0-.5-1.8Z" transform="translate(-63.72 -43.57)"/><path class="cls-18" d="M198.1,413.27a.94.94,0,0,0,0-1.87.94.94,0,0,0,0,1.87Z" transform="translate(-63.72 -43.57)"/><path class="cls-18" d="M284.7,384c2.27,11.25,7.06,22.07,15,30.49.83.88,2.15-.44,1.33-1.32-7.7-8.2-12.29-18.73-14.49-29.66-.24-1.18-2-.68-1.81.49Z" transform="translate(-63.72 -43.57)"/><path class="cls-18" d="M302.48,417.71a.94.94,0,0,0,0-1.88.94.94,0,0,0,0,1.88Z" transform="translate(-63.72 -43.57)"/><path class="cls-18" d="M304.58,420a.94.94,0,0,0,0-1.87.94.94,0,0,0,0,1.87Z" transform="translate(-63.72 -43.57)"/></g></g></svg>